<?xml version="1.0" encoding="UTF-8"?><svg xmlns="http://www.w3.org/2000/svg" xmlns:xlink="http://www.w3.org/1999/xlink" viewBox="0 0 540 450"><defs><style>.cls-1{fill:#0e1f40;opacity:.1;}.cls-2{fill:url(#linear-gradient);}.cls-3{stroke:#969daa;stroke-width:.21px;}.cls-3,.cls-4,.cls-5,.cls-6,.cls-7,.cls-8{fill:none;}.cls-3,.cls-4,.cls-7,.cls-8{stroke-miterlimit:10;}.cls-9{fill:#f4dbc9;}.cls-10{fill:#f8dac7;}.cls-11{fill:#f3ac3d;}.cls-12{fill:#f7cfb9;}.cls-13{fill:#f99cdb;}.cls-14{fill:#0052cc;}.cls-15{fill:#f09637;}.cls-16{fill:#ecd1bd;}.cls-17{fill:#f1d2c0;}.cls-18{fill:#f6c444;}.cls-19{fill:#f6c556;}.cls-20{fill:#ed50b4;}.cls-21{fill:#e3cfbc;}.cls-22{fill:#ffe380;}.cls-23{fill:#fff;}.cls-24{fill:#f5c145;}.cls-25{fill:#f5c143;}.cls-26{fill:#fff2fb;}.cls-27{fill:#f09a80;}.cls-28{fill:#fae3d2;}.cls-29{fill:#edd4c2;}.cls-30{fill:#f0d3c0;}.cls-31{fill:#ff95de;}.cls-32{fill:#7e8393;}.cls-33{fill:#6c462a;}.cls-34{fill:#b87748;}.cls-35{fill:#c3875d;}.cls-36{fill:#c1c6ce;}.cls-37{fill:#b7d3fa;}.cls-38{fill:#b6eff9;}.cls-39{fill:#a4acb8;}.cls-40{fill:#b2d4ff;}.cls-41{fill:#b2b9c3;}.cls-42{fill:#bf8b6d;}.cls-43{fill:#c0c6ce;}.cls-44{fill:#bff2fc;}.cls-45{fill:#c17d4f;}.cls-46{fill:#cb8d64;}.cls-47{fill:#ddad8a;}.cls-48{fill:#d39b7a;}.cls-49{fill:#e0bb9f;}.cls-50{fill:#dbb884;}.cls-51,.cls-52,.cls-53{fill:#deebff;}.cls-54{fill:#d6ae8f;}.cls-55{fill:#253858;}.cls-56{fill:#102647;}.cls-57{fill:#184ba9;}.cls-58{fill:#2369f5;}.cls-59{fill:#4085f6;}.cls-60{fill:#0747a6;}.cls-61{fill:#1b2b4b;}.cls-62{fill:#1b55c4;}.cls-63{fill:#374561;}.cls-64{fill:#362a25;}.cls-65{fill:#3e81f5;}.cls-66{fill:#1a54c7;}.cls-67{fill:#45526c;}.cls-68{fill:#459db9;}.cls-69{fill:#53382a;}.cls-70{fill:#6358b6;}.cls-71{fill:#57d9a3;}.cls-72{fill:#2a4764;}.cls-73{fill:#2d4361;}.cls-74{fill:#36b37e;}.cls-75{fill:#3381f0;}.cls-76{fill:#583827;}.cls-77{fill:#58c4e0;}.cls-78{fill:#5e9af7;}.cls-79{fill:#4fb2d1;}.cls-80{fill:#50392b;}.cls-81{fill:#4eac82;}.cls-82{fill:#2684ff;}.cls-83{fill:#50b5d5;}.cls-84{fill:#79f2c0;}.cls-52{opacity:.2;}.cls-52,.cls-53{mix-blend-mode:soft-light;}.cls-4{stroke:#296245;stroke-width:.46px;}.cls-85{fill:url(#linear-gradient-3);}.cls-86{fill:url(#linear-gradient-4);}.cls-87{fill:url(#linear-gradient-2);}.cls-88{fill:url(#linear-gradient-6);}.cls-89{fill:url(#linear-gradient-7);}.cls-90{fill:url(#linear-gradient-5);}.cls-5{stroke:#1a52c0;stroke-width:.82px;}.cls-5,.cls-6{stroke-linecap:round;stroke-linejoin:round;}.cls-91{isolation:isolate;}.cls-6{stroke:#a5a9b5;stroke-width:.41px;}.cls-7{stroke:#5e9af7;stroke-width:1.86px;}.cls-8{stroke:#b2d4ff;stroke-width:.5px;}</style><linearGradient id="linear-gradient" x1="122.52" y1="503.09" x2="165.62" y2="349.08" gradientUnits="userSpaceOnUse"><stop offset="0" stop-color="#004aa5"/><stop offset=".18" stop-color="#004dad"/><stop offset=".46" stop-color="#0055c3"/><stop offset=".82" stop-color="#0062e8"/><stop offset="1" stop-color="#006bff"/></linearGradient><linearGradient id="linear-gradient-2" x1="296.48" y1="431.61" x2="227.54" y2="418.26" xlink:href="#linear-gradient"/><linearGradient id="linear-gradient-3" x1="-6701.14" y1="-494.61" x2="-6701.1" y2="-501.6" gradientTransform="translate(-6500.66 -64.52) rotate(-172.26) scale(1 -1)" gradientUnits="userSpaceOnUse"><stop offset=".03" stop-color="#2b221e"/><stop offset=".94" stop-color="#af886d" stop-opacity="0"/></linearGradient><linearGradient id="linear-gradient-4" x1="74.41" y1="467.74" x2="75.52" y2="443.03" gradientTransform="translate(-100.98 -58.6) rotate(-7.02)" gradientUnits="userSpaceOnUse"><stop offset="0" stop-color="#f2a93c"/><stop offset="1" stop-color="#ef8834"/></linearGradient><linearGradient id="linear-gradient-5" x1="69.92" y1="469.58" x2="71.17" y2="441.99" xlink:href="#linear-gradient-4"/><linearGradient id="linear-gradient-6" x1="4088.93" y1="-573.06" x2="4097.68" y2="-561.77" gradientTransform="translate(-3766.93 -348.31) rotate(17.84)" gradientUnits="userSpaceOnUse"><stop offset=".15" stop-color="#ffd4ba" stop-opacity="0"/><stop offset=".31" stop-color="#dfbdab" stop-opacity=".16"/><stop offset=".62" stop-color="#8c8287" stop-opacity=".57"/><stop offset=".91" stop-color="#374561"/></linearGradient><linearGradient id="linear-gradient-7" x1="12991.64" y1="-526.67" x2="12995.4" y2="-534.53" gradientTransform="translate(-12188.18 -3264.52) rotate(18.56)" gradientUnits="userSpaceOnUse"><stop offset=".43" stop-color="#374561"/><stop offset=".52" stop-color="#404b65" stop-opacity=".95"/><stop offset=".62" stop-color="#5c5f71" stop-opacity=".81"/><stop offset=".72" stop-color="#8a8085" stop-opacity=".58"/><stop offset=".83" stop-color="#caaea2" stop-opacity=".26"/><stop offset=".91" stop-color="#ffd4ba" stop-opacity="0"/></linearGradient></defs><g class="cls-91"><g id="illos"><rect class="cls-52" x="366.17" y="392.92" width="56.93" height="56.93"/><rect class="cls-52" x="309.42" y="336.05" width="56.93" height="56.93"/><rect class="cls-52" x="-.03" y="364.43" width="56.93" height="56.93" transform="translate(-364.46 421.33) rotate(-90)"/><rect class="cls-53" x="56.9" y="307.5" width="56.93" height="56.93" transform="translate(-250.6 421.33) rotate(-90)"/><rect class="cls-53" x="-.03" y="250.57" width="56.93" height="56.93" transform="translate(-250.6 307.47) rotate(-90)"/><g><rect class="cls-26" x="128.07" y="278.98" width="14.24" height="14.24"/><rect class="cls-51" x="113.79" y="293.22" width="14.24" height="14.24"/><path class="cls-65" d="m169.77,294.15v12.39h-12.39v-12.39h12.39m.93-.93h-14.24v14.24h14.24v-14.24h0Z"/></g><g><rect class="cls-82" x="83.78" y="217.9" width="14.24" height="14.24"/><path class="cls-82" d="m110.89,205.04v12.24h-12.24v-12.24h12.24m1-1h-14.24v14.24h14.24v-14.24h0Z"/></g><ellipse class="cls-1" cx="27.15" cy="450.19" rx="16.05" ry="1.51"/><ellipse class="cls-1" cx="136.28" cy="450.19" rx="16.05" ry="1.51"/><ellipse class="cls-1" cx="176.05" cy="450.19" rx="16.05" ry="1.51"/><ellipse class="cls-1" cx="338.45" cy="450.19" rx="16.05" ry="1.51"/><ellipse class="cls-1" cx="377.68" cy="450.19" rx="16.05" ry="1.51"/><ellipse class="cls-1" cx="236.64" cy="450.19" rx="26.42" ry="1.51"/><ellipse class="cls-1" cx="69.43" cy="450.19" rx="22.99" ry="1.51"/><path class="cls-29" d="m48.05,394.31c-.85.13-1.89.22-1.92-.07-.04-.42,3.39-.78,3.22-.88-.17-.1-3.05.46-2.87-.02.19-.48,3.25-.75,3.25-.75-.98-.42-.79-1.36-.79-1.36-.12-.21,1.15.47,1.68.75.15.08.31.12.47.14,1.09.12,1.78.89,1.78.89h0c.85.89.3,2.38-.93,2.49l-.75.07c-.39.17-2.51.09-3.01.07-.5-.01-.32-.4-.32-.4,2.17-.3,2.05-.38,2.05-.38,0,0-3.12.32-3.23-.06-.05-.18.69-.37,1.38-.51Z"/><g><path class="cls-82" d="m57.7,430.15h131.72v20H57.7c-1.86,0-3.37-1.51-3.37-3.37v-13.25c0-1.86,1.51-3.37,3.37-3.37Z"/><path class="cls-51" d="m186.76,432.48h112.44v14.94h-112.44c-2.07,0-3.76-1.68-3.76-3.76v-7.42c0-2.07,1.68-3.76,3.76-3.76Z"/><path class="cls-82" d="m186.6,433.49h114.39v-2.29h0v-1.14h-114.07c-3.72,0-6.74,2.8-6.74,6.25v7.58c0,3.45,3.02,6.25,6.74,6.25h114.07v-1.15h0v-2.29h-114.39c-1.69,0-3.06-1.4-3.06-3.13v-6.96c0-1.72,1.37-3.13,3.06-3.13Z"/></g><g><path class="cls-2" d="m87.4,410.57h119.08v19.58h-119.08c-1.84,0-3.34-1.5-3.34-3.34v-12.9c0-1.84,1.5-3.34,3.34-3.34Z"/><path class="cls-51" d="m203.82,412.9h67.3v14.94h-67.3c-2.07,0-3.76-1.68-3.76-3.76v-7.42c0-2.07,1.68-3.76,3.76-3.76Z"/><path class="cls-87" d="m203.66,413.84h69.24v-2.24h0v-1.12h-68.92c-3.72,0-6.74,2.75-6.74,6.12v7.42c0,3.38,3.02,6.12,6.74,6.12h68.92v-1.12h0v-2.24h-69.24c-1.69,0-3.06-1.37-3.06-3.06v-6.82c0-1.69,1.37-3.06,3.06-3.06Z"/></g><g><path class="cls-40" d="m232.73,356.8c-.36,1.88-3,4.85-4.88,4.46l-8.59-3.78h0c-1.67-.36-2.76-1.98-2.44-3.67s1.93-2.8,3.61-2.51h0s9.49,1.48,9.49,1.48c1.89.32,3.16,2.13,2.8,4.02h0Z"/><rect class="cls-76" x="210.36" y="346.42" width="2.48" height="6.5" rx="1.24" ry="1.24" transform="translate(-193.99 299.25) rotate(-51.73)"/><path class="cls-76" d="m212.11,348.6s-.92-.8-.92-1.01-.14-1.04-.83-1.63-1.11-1.67-1.11-1.67c0,0-.49.15-.28.71s.59,1.02.59,1.02c0,0-.18.22-.79-.01s-1-.25-1.55-.42-1.4-.59-1.57-.28,1.04.78,1.23.88c0,0-1.37-.66-1.51-.51s.25.58.97.95c.22.11-.42-.29-.52-.03-.15.41,1.08,1.05,1.2,1.23.09.14.24.29.52.44.92.5,2,1.64,2.46,1.47.23-.08,1.86-.17,2.1-1.13Z"/><path class="cls-40" d="m219.73,351c1.45.9,1.93,2.8,1.05,4.27-.87,1.48-2.77,1.97-4.25,1.13h0s-5.86-4.34-5.86-4.34l2.5-3.87,6.56,2.8h0Z"/><polygon class="cls-68" points="214.75 348.75 212.68 353.51 210.52 352.09 213.11 348.04 214.75 348.75"/></g><g><path class="cls-76" d="m255.83,355.06l1.02,1.11.11-.11c.16-.16-.29-.95-.45-1.11h0c-.16-.16-.42-.16-.57,0l-.11.11Z"/><path class="cls-76" d="m255.38,354.35h.81v.15c0,.22-.18.41-.41.41h0c-.22,0-.41-.18-.41-.41v-.15h0Z" transform="translate(187.75 786.55) rotate(-135.25)"/><path class="cls-76" d="m254.85,353.83h.81v.15c0,.22-.18.41-.41.41h0c-.22,0-.41-.18-.41-.41v-.15h0Z" transform="translate(187.22 785.28) rotate(-135.25)"/><path class="cls-76" d="m254.32,353.3h.81v.15c0,.22-.18.41-.41.41h0c-.22,0-.41-.18-.41-.41v-.15h0Z" transform="translate(186.68 784.02) rotate(-135.25)"/></g><g><g><path class="cls-78" d="m201.97,345.93c-1.25-.6-4.41.5-4.98,1.76l-3.98,11.05h0c-.47,1.03-.03,2.25.99,2.74s2.25.07,2.75-.94h0s5.4-10.41,5.4-10.41c.63-1.23.84-3.77-.41-4.37l.21.18Z"/><polygon class="cls-59" points="198.04 358.94 196.04 357.93 197.81 350.55 198.04 358.94"/><g><circle class="cls-23" cx="212.17" cy="350.5" r="1.37"/><circle class="cls-23" cx="200.05" cy="348.55" r="1.37"/></g><path class="cls-78" d="m212.23,348.45c1.38-.06,2.54,1.03,2.56,2.41l.13,11.73h0c.03,1.13-.85,2.08-1.99,2.13-1.13.05-2.09-.82-2.16-1.95h0s-.89-11.69-.89-11.69c-.1-1.38.96-2.57,2.35-2.63h0Z"/><rect class="cls-35" x="221.41" y="358.28" width="2.48" height="6.5" rx="1.24" ry="1.24" transform="translate(-94.47 643.87) rotate(-100.05)"/><path class="cls-35" d="m222.71,360.35s1.19-.27,1.29-.46.61-.85,1.5-1.05c.89-.2,1.77-.95,1.77-.95,0,0,.36.37-.09.76-.45.39-1.01.62-1.01.62,0,0,.05.28.7.36s1.01.25,1.57.36,1.51.14,1.52.49-1.28.2-1.5.2c0,0,1.52.06,1.58.26s-.49.39-1.3.38c-.25,0,.51-.06.47.21-.06.43-1.45.41-1.64.52-.15.08-.35.14-.66.14-1.05,0-2.54.5-2.87.13-.17-.18-1.56-1.03-1.32-1.99Z"/><path class="cls-78" d="m212.39,360.59h0s11.57-1.22,11.57-1.22l-.04,4.07-10.86,1.26h0c-1.12.15-2.16-.61-2.35-1.73-.18-1.12.57-2.18,1.68-2.38Z"/><g><circle class="cls-23" cx="199.78" cy="371.74" r="2.26"/><circle class="cls-23" cx="206.84" cy="371.77" r="2.26"/></g><path class="cls-31" d="m199.93,367.84c2.3.02,4.09,2.01,3.86,4.3l-1.24,14.78c-.06,1.51-1.33,2.69-2.84,2.65-1.52-.04-2.71-1.3-2.68-2.81l-1.03-14.66c-.2-2.3,1.63-4.28,3.94-4.25h0Z"/><path class="cls-31" d="m206.83,367.87c2.29-.17,4.24,1.66,4.21,3.96v14.83c.06,1.51-1.1,2.8-2.61,2.88-1.51.08-2.81-1.07-2.91-2.58l-2.26-14.52c-.39-2.28,1.27-4.4,3.57-4.57h0Z"/><g><path class="cls-31" d="m210.14,361.55l.85,8.18c.06.58.06,1.18-.05,1.75-.42,2.11-1.94,4.78-3.76,4.78l-5.89.03v-14.74h8.85Z"/><path class="cls-31" d="m196.85,361.55l-.85,8.18c-.06.58-.06,1.18.05,1.75.42,2.11,1.94,4.78,3.76,4.78l5.89.03v-14.74s-8.85,0-8.85,0Z"/></g><path class="cls-35" d="m206.66,407.25v-.02c.88,0,1.6-.68,1.61-1.56l.06-5.91c0-.88-.69-1.6-1.57-1.61h0c-.88,0-1.6.69-1.61,1.57l-.06,5.91c0,.88.69,1.6,1.57,1.61Z"/><path class="cls-58" d="m204.53,408.79l.57-1.48v-3.95h3.27v3.95s0,0,0,0l.48,2.27v.99s-5.01,0-5.01,0h-.15c0-.64.21-1.33.84-1.78Z"/><path class="cls-35" d="m200.81,407.4v-.02c.88,0,1.59-.69,1.59-1.57v-5.91c0-.88-.71-1.59-1.59-1.59h0c-.88,0-1.59.71-1.59,1.59v5.91c0,.88.71,1.59,1.59,1.59Z"/><path class="cls-58" d="m194.15,410.53c0-.58.4-1.09.96-1.25.61-.18,1.4-.5,2.06-1.02,1.31-1.04,1.56-3.83,1.6-4.76h3.86v7.05h-2.18v-1.7c-.4.02-2.02,1.71-2.02,1.71h-4.28v-.02Z"/><g><path class="cls-17" d="m204.24,344.15s.01,0,.02,0c0,0-.01,0-.02,0Z"/><path class="cls-17" d="m204.27,344.16s0,0,0,0c0,0,0,0,0,0Z"/></g><path class="cls-31" d="m205.57,386.48c.21-1.47,1.55-2.52,3.04-2.36s2.58,1.47,2.47,2.95l-2,16.13-4.71-.55,1.2-16.18Z"/><path class="cls-31" d="m197.04,387.28c-.03-1.48,1.13-2.73,2.62-2.81,1.49-.08,2.78,1.04,2.91,2.51l.54,15.99-4.73.22-1.34-15.91Z"/><path class="cls-78" d="m199.13,346.13c2.33-.66,5.64-.9,7.16-1.11l.77.12c1.37.67,4.44,1.94,6.44,3.3,1.86,1.27-2.55,12.13-2.96,15.28,0,0-.46.15-1.22.35-4.12,1.1-8.5.32-12.03-2.07l-.82-.55c.6-3.12.49-14.71,2.66-15.33Z"/><path class="cls-35" d="m206.5,344.06l2.55,2.19c1.34,1.13-3.67,5.24-3.67,5.24,0,0-3.28-5.15-2.01-5.81l3.13-1.62Z"/><path class="cls-35" d="m203.62,347.03l4.68.72,1.15-7.11c.17-1.05-.74-2.06-2.03-2.27h0c-1.29-.21-2.47.47-2.64,1.52l-1.15,7.14Z"/><path class="cls-62" d="m205.4,351.6c.44-1.21,1.82-2.07,1.82-2.07-.48-.46-.12-1.17-.12-1.17,1.65-1.62,1.74-2.61,1.74-2.61.81.05.37.93.37.93l.41.15c-.5,1.56-1.66,3.91-4.21,4.77Z"/><path class="cls-62" d="m205.4,351.6c-.03-1.29-1.07-2.54-1.07-2.54.6-.28.49-1.07.49-1.07-1.05-2.05-.82-3.02-.82-3.02-.79-.21-.65.76-.65.76l-.43.02c-.02,1.64.34,4.23,2.49,5.85Z"/></g><g><path class="cls-40" d="m229.37,355.12c.79-1.75,4.77-2.57,6.5-1.76l8.66,4.18h0c1.54.74,2.23,2.57,1.52,4.14s-2.53,2.27-4.1,1.6h0s-8.88-3.66-8.88-3.66c-1.77-.75-2.08-2.54-1.29-4.29l-2.41-.21Z"/><path class="cls-76" d="m254.22,353.81l.03-.02c.57.78.63,1.45-.16,2.02l-4.91,3.96c-.78.57-1.88.4-2.45-.38h0c-.57-.78-.4-1.88.38-2.45l5.18-3.23c.78-.57,1.35-.68,1.92.1Z"/><path class="cls-76" d="m253.82,354.42c.78.49,1.64.87,1.92,1.85.12.42.12.86.09,1.3-.31.11-.64.15-.98.12l-2.47.7-1.57-1.56s1.64-1.77,3.01-2.41Z"/><path class="cls-40" d="m242.39,358.08c-1.44.92-1.88,2.83-.98,4.29.9,1.46,2.8,1.92,4.27,1.06h0s5.78-4.45,5.78-4.45l-2.57-3.82-6.51,2.91h0Z"/><polygon class="cls-79" points="251.74 359.29 248.95 354.97 246.96 356.63 250 360.36 251.74 359.29"/><polygon class="cls-69" points="231.85 403.57 231.6 398.85 234.9 400.09 234.51 404.36 231.85 403.57"/><polygon class="cls-69" points="224.18 403.63 224.04 398.86 227.31 397.6 227.13 405.42 224.18 403.63"/><path class="cls-20" d="m231.24,409.28l.42-2.6c.05-.31.08-.62.08-.94v-3.53h3v5.39s0-1.39,0-1.39l.44,3.47v.91s-4.6,0-4.6,0h-.27c.08-.76.43-1.17.92-1.31Z"/><g><path class="cls-70" d="m233.95,380.71c-2.38,0-4.44-1.71-4.83-4.07-.15-.94-.24-1.95-.24-2.99,0-5.43,2.27-9.83,5.07-9.83,2.8,0,5.07,4.4,5.07,9.83,0,1.04-.08,2.04-.24,2.99-.39,2.35-2.44,4.07-4.83,4.07h0Z"/><path class="cls-70" d="m223.63,380.71c-2.38,0-3.72-1.71-4.1-4.07-.15-.94-.24-1.95-.24-2.99,0-5.43,1.54-9.83,4.34-9.83,2.8,0,5.07,4.4,5.07,9.83,0,1.04-.08,2.04-.24,2.99-.39,2.35-2.44,4.07-4.83,4.07h0Z"/><rect class="cls-82" x="223.48" y="363.83" width="10.52" height="16.88" transform="translate(457.47 744.54) rotate(-180)"/></g><g><circle class="cls-19" cx="223.48" cy="375.35" r="2.06"/><circle class="cls-19" cx="233.97" cy="375.35" r="2.06"/></g><path class="cls-82" d="m233.5,370.43c3.19,0,5.68,2.75,5.34,5.92l-1.71,14.49c-.03,2.17-1.79,3.92-3.97,3.92s-3.94-1.75-3.97-3.92l-1.04-14.71c-.19-3.08,2.25-5.69,5.34-5.7h0Z"/><path class="cls-82" d="m224.01,370.43c3.19,0,5.68,2.75,5.34,5.92l-1.71,14.49c-.03,2.17-1.79,3.92-3.97,3.92s-3.94-1.75-3.97-3.92l-.31-14.71c-.19-3.08,1.52-5.69,4.61-5.7h0Z"/><path class="cls-56" d="m225.95,348.43c0-.16.08-.3.15-.43.04-.08.09-.17.09-.22,0-.05-.05-.14-.09-.22-.07-.12-.15-.26-.15-.43,0-.16.08-.3.15-.43.04-.08.1-.16.1-.21,0-.05-.05-.14-.09-.22-.07-.12-.14-.27-.14-.43,0-.17.09-.31.17-.43.05-.07.1-.16.1-.21,0-.07-.03-.17-.07-.26-.06-.15-.12-.32-.08-.5.05-.19.19-.32.31-.43.07-.06.14-.13.16-.18.03-.06.04-.16.04-.26.01-.16.02-.35.14-.5.12-.15.3-.21.46-.26.09-.03.18-.06.23-.1.05-.04.1-.13.14-.21.08-.14.17-.31.33-.4.17-.09.12-.03.28-.01.1,0,.2.02.26,0,.06-.02.13-.08.21-.14.12-.1.27-.22.45-.25.18-.02.43.17.58.24.09.04.33-.07.39-.07.06,0,.15-.03.24-.07.15-.06.15.13.34.17.18.04.48-.09.59.02.07.07.14.14.21.16.06.02.16.02.25.01.16,0,.34-.02.51.08.16.09.24.25.31.39.05.09.1.18.15.22.05.04.14.06.24.09.16.04.33.09.46.22.15.16.19.37.23.55.03.12.05.24.1.33.04.08.13.15.22.24.14.13.3.27.37.48.07.18.04.37.02.56-.02.13-.03.26,0,.36.02.09.09.19.16.3.1.15.21.31.24.51.03.19-.03.38-.08.54-.04.13-.08.25-.07.35,0,.1.06.21.12.33.08.15.16.33.17.52,0,.19-.07.37-.13.53-.05.12-.1.24-.1.34,0,.1.05.22.1.35.06.16.13.33.13.52,0,.19-.09.37-.17.52-.06.12-.12.23-.12.33,0,.11.03.23.08.37.05.16.11.33.09.51-.02.2-.12.38-.21.53-.06.11-.12.22-.13.3-.02.13.02.27.06.41.04.15.09.32.06.47-.02.14-.02.25-.02.33,0,.29-.06.4-.41.55-.08.03-.13.06-.17.09-.11.07-.2.11-.37.11-.03,0-.07,0-.1,0-.22-.02-.33-.13-.41-.21-.06-.06-.08-.08-.15-.09-.07,0-.1.01-.17.06-.09.06-.22.15-.44.13-.22-.02-.33-.13-.41-.21-.06-.06-.08-.08-.15-.09-.07,0-.1.01-.16.06-.09.06-.22.15-.44.13-.22-.02-.33-.13-.41-.21-.06-.06-.08-.08-.15-.09-.07,0-.1.01-.16.06-.09.06-.22.15-.44.13-.22-.02-.33-.13-.41-.21-.06-.06-.08-.08-.15-.09-.07,0-.1.01-.16.06-.09.06-.22.15-.44.13-.22-.02-.33-.13-.41-.21-.06-.06-.08-.08-.15-.09-.07,0-.1.01-.16.06-.09.06-.22.15-.44.13-.22-.02-.33-.13-.41-.21-.06-.06-.08-.08-.15-.09-.05,0-.09.02-.17.08-.11.08-.29.21-.54.08-.11-.05-.18-.12-.2-.22-.04-.15.03-.28.1-.39.06-.1.13-.21.12-.33,0-.03-.05-.11-.09-.17-.08-.12-.18-.28-.19-.46,0-.15.06-.29.13-.41.05-.09.09-.18.09-.25,0-.04-.06-.13-.1-.2-.08-.12-.17-.26-.17-.44,0-.16.07-.3.13-.42.05-.09.09-.17.09-.23,0-.05-.05-.13-.1-.21-.08-.12-.16-.26-.16-.43,0-.16.07-.3.14-.42.04-.08.09-.17.09-.22,0-.05-.05-.14-.1-.21-.07-.12-.16-.26-.16-.43Z"/><path class="cls-56" d="m224.74,351.64c-.35-.79.3-1.96.56-2.4-.1-.59-.13-2.45.07-3.39.06-.31.2-.6.31-1.03s.19-1,1-1.37c.52-.36,2.79-1.88,3.98-1.34l-1.83.78c-.21.02-.4,2.1-2.15,3.01.04.46-.09,1.52.18,2.38.3.96,1.47,1.68,1.24,2.68.85.78.09,1.6-.83,2.41-1.12.98-3.02,1.61-3.37.58-.22-.66.55-1.52.83-2.3Z"/><path class="cls-56" d="m223.62,353.04c.03-.19.39-.34.43-.56.04-.2-.25-.47-.22-.67.04-.21.4-.36.44-.55.04-.23-.24-.5-.21-.67.07-.35.44-.5.44-.52.02-.06-.08-.44.19-.73,0,0,0,0,.01,0,.04-.09.1-.2.12-.33.03-.18-.27-.44-.23-.66.03-.19.39-.34.43-.56.04-.2-.25-.47-.22-.67.04-.21.4-.36.44-.55.01-.07,0-.15-.04-.23-.05-.07-.09-.15-.12-.25-.03-.06-.04-.11-.05-.16-.08-.32-.1-.67-.05-.77.08-.2.47-.26.55-.44.09-.21-.13-.54-.06-.7.14-.33.53-.4.54-.41.03-.05-.03-.51.53-.81.19-.1.5.08.61.02.2-.11.23-.54.45-.66.09-.05.65-.16.95-.05.13.1.16.19.17.28.22-.2.36-.5.49-.48l.07,1.08c.13.1.25.2.37.31.12.1.23.2.36.29l-.06.36c-.29.25-.34.74-.59.99-.01.01-.03.02-.04.03-.15.3-.12.71-.29.98-.19.29-.59.45-.79.7l.18,2.9c-.23.3-.17.8-.36,1.09-.21.32-.68.48-.85.78-.19.34-.06.83-.22,1.13-.18.36-.64.53-.8.82-.21.37-.13,1.09-.37,1.29-.57.5-.72-.11-1.13-.17-.29-.04-.29.75-.9,0-.27-.33.01-.45.06-.81.03-.18-.27-.44-.23-.66Z"/><g><circle class="cls-23" cx="234.79" cy="355.66" r="1.22"/><circle class="cls-23" cx="226.5" cy="355.66" r="1.22"/></g><g><polygon class="cls-76" points="230 349.24 236.11 354.41 235.2 360.56 224.88 360.88 224.03 353.99 230 349.24"/><path class="cls-82" d="m232.68,354.56c0,1.96-1.82,3.4-4.12,3.33-3.01-.09-4.39-5.75-4.27-3.8,0,.1.05,13.02.05,13.02h0c2.58-.63,5.27-.66,7.85-.07l.31.07.18-12.55Z"/><path class="cls-40" d="m232.69,351.39c6.99,3.99,6.58,6.7,6.4,12.86-.19,6.63.42,12.77.42,12.77l-7.05.15c-2.3-15.8.23-25.78.23-25.78Z"/><path class="cls-51" d="m232.29,357.41l2.57,4.7-3.07,9.09c-.99-12.4.89-19.79.89-19.79l2.88,3.48-3.27,2.53Z"/><path class="cls-76" d="m228.09,352.58l3.83-.04v-7.19c0-1.06-.86-1.92-1.92-1.92h0c-1.06,0-1.92.86-1.92,1.92v7.23Z"/></g><path class="cls-40" d="m226.82,351.6c-4.96,1.66-7.24,8.49-7.76,14.82-.48,5.91-.96,10.5-.96,10.5l5.78.15c2.24-15.37,2.94-25.47,2.94-25.47Z"/><path class="cls-51" d="m225.63,358.53l-2.88-2.96,4.1-3.96s.09-.04.14-.05c0,.03,0,.06.01.1.03.99-.87,9-2.4,20.32l-2.18-9.15,3.21-4.3Z"/><g><path class="cls-76" d="m227.38,343.06s-1.77,1.17-1.63,3.6c0,0-.59.71-.19,1.55,0,0,.84,2.5.9,2.56.36.35,2.71.7,4.74-1.02.11-.09.29-.27.35-.39.67-1.26,1.25-5.12-.13-6.07-2.49-1.71-4.05-.24-4.05-.24Z"/><path class="cls-56" d="m226.69,343.71c.36-.44.69-.65.69-.65,0,0,1.55-1.47,4.05.24.9.62,1.38,2.3,1.13,3.9-.02,0-.04,0-.06.01-1.37.23-1.98-1.84-1.98-1.84-1.29-3.31-3.82-1.66-3.82-1.66h0Z"/><path class="cls-76" d="m231.21,347.63c-.07.59-.04,1.22.36,1.28.76.12,1.16-1.27,1.13-1.88s-.17-.71-.57-.78-.85.79-.92,1.38Z"/></g><rect class="cls-38" x="231.79" y="348.45" width=".37" height="1.82" transform="translate(463.95 698.72) rotate(-180)"/><circle class="cls-38" cx="231.98" cy="348.43" r=".33"/><path class="cls-20" d="m223.13,409.28l.7-1.81c.32-.83.31-1.57.31-2.46l-.04-2.65,3.22-.16v5.39s0-1.39,0-1.39l.33,1.69-.03,2.69h-.44l-.06-1.72s-.9.44-1.1,1.48c-.02.08-.03.16-.05.24h-3.51s-.27,0-.27,0c.08-.76.43-1.17.92-1.31Z"/><path class="cls-82" d="m229.22,390.85c.14-2.1,1.93-3.73,4.06-3.67,2.12.07,3.81,1.81,3.82,3.91l-1.8,10.5-5,.05-1.07-10.8Z"/><path class="cls-82" d="m219.86,391.78c-.33-2.08,1.06-4.07,3.15-4.47s4.11.92,4.59,2.98l.55,10.64-5.08,1.5-3.21-10.65Z"/></g><g><path class="cls-23" d="m198.5,352.98l2.93-.28c.28-.03.52.19.52.46l.19,6.07s0,0,0,0c0,0,0,0,0,.01h0c0,.33-.67.64-1.51.7s-1.55-.16-1.59-.49h0s0-.02,0-.02h0s-.96-5.92-.96-5.92c-.04-.27.15-.53.43-.55Z"/><path class="cls-78" d="m197.73,358.39l-.3,4.96-3.46-1.87c-.84-.46-1.27-1.43-1.02-2.36h0c.3-1.17,1.54-1.83,2.68-1.45l2.11.71Z"/><ellipse class="cls-59" cx="197.83" cy="360.91" rx="1.47" ry="2.54"/><path class="cls-35" d="m199.17,360.69s-1.03.46-1.51.49c0,0-.34-2.05-.17-3.08s1.07-1.59,1.07-1.59c0,0,1.29-.39,1.69.27,0,0,.15.56-1.07.51l-.54.2,2,.53c.17.04.27.21.23.38h0c-.03.15-.17.26-.32.26l-1.74-.02,2.37.41c.16.03.27.18.24.35h0c-.03.14-.15.24-.29.24l-1.95.02,1.59.3c.18.03.3.22.25.4h0c-.04.14-.15.23-.29.24l-1.55.08Z"/></g><g><path class="cls-64" d="m202.55,347.41c-.15-1.55.08-.87.74-1.44s1.08-1.17.68-3.65c-.4-2.48-.12-5.34-.12-5.34,0,0-1.2,1.47-1.42,3.28-.22,1.81-.83.58-1.17,3.27-.34,2.69-1.3,1.46-.95,3.72.22,1.39-.01,1.84-.22,1.98-.08.06-.05.19.05.2.76.1,2.57-.56,2.42-2.04Z"/><path class="cls-64" d="m209.46,348.35c.56-1.46-.14-1.01-.62-1.73s-.44-1.27.61-3.55c1.05-2.28,1.54-5.11,1.54-5.11,0,0,.76,1.74.49,3.54s.65.78.26,3.47c-.39,2.69.87,1.75-.07,3.84-.58,1.28-.48,1.77-.31,1.97.07.08,0,.2-.1.18-.76-.1-2.32-1.22-1.79-2.61Z"/><path class="cls-35" d="m204.61,336.89c.18-.16,1.3-1.15,2.91-1.03h0s0,0,0,0h0s0,0,0,0,0,0,0,0h0s.03,0,.04,0h0s0,0,0,0c0,0,0,0,0,0h0s0,0,0,0c0,0,0,0,0,0h0s0,0,0,0h0s0,0,.01,0c0,0,0,0,.01,0h0s0,0,0,0c0,0,0,0,0,0h0s0,0,0,0c0,0,0,0,0,0h0s0,0,0,0c0,0,0,0,0,0h0s0,0,.01,0c0,0,0,0,.01,0h0s0,0,0,0h0s0,0,0,0c0,0,0,0,0,0h0s0,0,0,0h0s0,0,0,0c.01,0,.03,0,.04,0h0s0,0,0,0,0,0,0,0h0s0,0,0,0h0c1.59.31,2.4,1.56,2.53,1.77.59.94.12,2.62-.27,4.03-.2.74-.35,1.68-.91,2.46-.74,1.03-1.52,1.62-2.28,1.67-.04,0-1.03-.13-1.07-.14-.72-.26-1.3-1.03-1.74-2.22-.33-.9-.25-1.85-.25-2.62,0-1.46,0-3.2.83-3.95Z"/><path class="cls-64" d="m203.43,337.6c.22-.81.65-1.41,1.15-1.87,1.85-1.68,4.74-1.27,6.06.85.35.57.59,1.26.59,2.08,0,3.08-1.23,3.41-1.23,3.41,0,0,.46-2.61-.22-3.6-.55-.8-1.77-1.18-2.29-1.5-.59.18-1.87.21-2.61.84-.92.78-1.18,3.41-1.18,3.41,0,0-1.1-.64-.27-3.61Z"/><path class="cls-35" d="m203.6,339.27s.09,0,.13.03c-.1.69.1,1.26.07,1.98,0,.1-.02.5-.02.6-.27.02-.49-.25-.55-.75-.07-.53-.15-1.82.38-1.86Z"/><path class="cls-35" d="m210.62,340.23s-.09-.01-.13,0c-.09.7-.43,1.19-.59,1.89-.02.1-.11.49-.14.59.26.09.54-.11.74-.58.21-.49.63-1.72.13-1.89Z"/><path class="cls-85" d="m203.77,341.54c0,.61.02,1.29.26,1.94.44,1.19,1.02,1.96,1.74,2.22.04.01,1.02.15,1.07.14.76-.06,1.54-.65,2.28-1.67.34-.47.53-1,.67-1.52.03-.11.05-.21.08-.31l-.12.03s-1.06,1.76-1.38,1.66c0,0,.33-1.1-.72-.82,0,0-.48-.69-.67-.58-.03.02-.41-.04-.43-.06-.16-.16-.8.38-.8.38-.99-.43-.92.6-.92.6-.34.01-.95-1.99-.95-1.99l-.1-.02Zm1.42,1.7l1.11-.21.37.23h0s.42-.12.42-.12l1.01.45s-.94.73-1.44.7c-.04,0-.08,0-.13,0h0s-.09-.02-.12-.03c-.49-.11-1.22-1.01-1.22-1.01Z"/></g><g><g><path class="cls-41" d="m246.96,407.36v-.02c-.8,0-1.45-.63-1.45-1.44v-5.4c0-.8.65-1.45,1.45-1.45h0c.8,0,1.45.65,1.45,1.45v5.4c0,.8-.65,1.45-1.45,1.45Z"/><path class="cls-39" d="m245.51,405.4v.51c0,.8.65,1.44,1.45,1.44v.02c.8,0,1.45-.65,1.45-1.45v-.51h-2.91Z"/><path class="cls-43" d="m246.98,407.84c-.81,0-1.47.66-1.47,1.47h2.94c0-.81-.66-1.47-1.47-1.47Z"/><rect class="cls-9" x="253.85" y="406.1" width="1.96" height="5.13" rx=".98" ry=".98" transform="translate(-226.77 410.78) rotate(-58.31)"/><path class="cls-9" d="m252.33,409.39h0c-.76-.25-1.18-1.07-.93-1.83l2.39-9.57c.25-.76,1.76-.95,2.52-.7l.02-.06c.76.25,1.84,1.36,1.59,2.12l-3.76,9.12c-.25.76-1.07,1.18-1.83.93Z"/><g><circle class="cls-23" cx="253.76" cy="374.37" r="2.06"/><circle class="cls-23" cx="246.16" cy="374.4" r="2.06"/></g><g><path class="cls-62" d="m246.18,377.66c1.74,0,3.24-1.25,3.53-2.97.11-.69.17-1.42.17-2.18,0-3.96-1.66-7.18-3.7-7.18-2.04,0-3.7,3.21-3.7,7.18,0,.76.06,1.49.17,2.18.28,1.72,1.78,2.97,3.53,2.97h0Z"/><path class="cls-62" d="m253.72,377.66c1.74,0,3.24-1.25,3.53-2.97.11-.69.17-1.42.17-2.18,0-3.96-1.66-7.18-3.7-7.18s-3.7,3.21-3.7,7.18c0,.76.06,1.49.17,2.18.28,1.72,1.78,2.97,3.53,2.97h0Z"/><rect class="cls-62" x="246.15" y="365.34" width="7.68" height="12.32"/></g><path class="cls-55" d="m258.73,409.63c-.58-.25-1.89-.85-1.89-.85h0c.15.16.36.38.04.45-1.64.28-5.55-1.48-5.55-1.48l-.34,2.73h2.1v-.29s1.91.23,1.91.23c.32.04.64.06.96.06h2.59c.24,0,.44-.19.44-.43,0-.18-.1-.34-.26-.41Z"/><path class="cls-55" d="m248.72,408.38c-.48.4-1.09.66-1.76.66s-1.28-.25-1.76-.66c-.6.5-.98,1.25-.98,2.09h5.49c0-.84-.39-1.59-.98-2.09Z"/><path class="cls-62" d="m251.31,374.37c.04-2.08-3.03-3.77-5.11-3.73h0c-2.07.04-3.69,1.79-3.58,3.85l.78,15.49c.06,1.71,1.48,3.07,3.2,3.04,1.72-.03,3.09-1.44,3.08-3.16l1.64-15.49Z"/><path class="cls-62" d="m249.66,390.24c-.06-1.68-1.45-3.03-3.14-3.03s-3.09,1.35-3.15,3.03l.42,10.74,5.38-.05.49-10.7Z"/><path class="cls-62" d="m257.15,374.68c-.56-2-2.67-3.13-4.65-2.49h0c-1.97.64-4.34,2.78-3.64,4.72l6.56,14.6c.55,1.62,2.3,2.51,3.94,1.98,1.64-.53,2.54-2.28,2.03-3.92l-4.24-14.9Z"/><path class="cls-62" d="m261.31,391.85c.47-1.62-.43-3.33-2.04-3.86-1.61-.53-3.35.31-3.93,1.89l-2.96,10.34,5.12,1.64,3.81-10.01Z"/><rect class="cls-41" x="245.98" y="407.24" width="1.98" height=".75" rx=".37" ry=".37"/></g><g><path class="cls-9" d="m251.56,355.27c-.58.98-.24,2.25.76,2.81l8.66,4.78h0c.81.46,1.85.19,2.33-.62s.22-1.84-.57-2.34h0s-8.35-5.31-8.35-5.31c-.97-.61-2.25-.3-2.83.68h0Z"/><path class="cls-71" d="m258.98,357.32l-4.37-3.47s.21.36-.47,1.54c-.67,1.18-2.18,1.99-.98,2.63l3.27,2.32,2.55-3.03Z"/><path class="cls-9" d="m269.66,357.74l-8.12,1.91h0c-.89.29-1.39,1.24-1.12,2.14.27.9,1.21,1.41,2.11,1.16h0s7.68-3.38,7.68-3.38l.56-1.16c-.14-.47-.63-.76-1.11-.66Z"/><path class="cls-81" d="m256.65,357.79l-.83-1.51c-.6-1.22-1.74-1.63-2.94-1-1.2.64-1.59,1.67-.92,2.86l.9,1.56,3.8-1.92Z"/></g><path class="cls-56" d="m249,347.85c.41,0,.8.11,1.13.31.13.58.6,1.17,1.04,1.3.04.16.07.33.07.5.01,1.18-1,2.16-2.18,2.17-1.18.01-2.15-.93-2.16-2.11-.01-1.18.93-2.15,2.11-2.16Z"/><path class="cls-9" d="m253.36,354.82l-3.92-.67,1.08-6.71c.16-.99,1.17-1.65,2.25-1.47h0c1.08.17,1.83,1.12,1.67,2.1l-1.08,6.74Z"/><path class="cls-9" d="m251.66,351.31l-4.6,1.9c-2.06.97-2.29,3.76-.79,5.47l4.08,4.64,4.6-3.22c1.78-1.24,2.08-3.86.5-5.35l-3.8-3.44Z"/><g><path class="cls-56" d="m257.45,350.1c-.3-.53-.74-1.11-.34-3.36.22-1.26-.32-2.19-1.1-2.86,0,0,0,0,0,0,0,0-.02-.01-.02-.02-.08-.07-.9-.59-.99-.65l-.52,1.44c1.06.12,1.63,1.12,1.82,1.52.02.15.01.31-.02.48-.32,1.52.26,2.97.72,3.66s-.11.74-.11.74c.54.17.85-.41.55-.94Z"/><g><path class="cls-9" d="m249.4,346.54c.54-2.31,2.12-3.49,4.09-3.02.79.19,1.31.53,1.96,1.21,0,0,1.63,1.4.69,3.8-.11.29.16.42.05.98-.12.61-.79,1.31-1.01,1.85-.01.04-.02.06-.02.06,0,0,0,0,0,0,0,0,0,0,0,0-.6,1.67-1.13,1.31-1.85,1.08-.25-.08-1.43-.61-2.3-1.25-.56-.35-1.72-4.22-1.61-4.71Z"/><path class="cls-9" d="m249.49,346.48c.94-.51,1.2.7,1.2.7l.05,2.06c-1.13.64-2.29-2.19-1.25-2.76Z"/><g><path class="cls-56" d="m250.67,349.73s0-.02-.01-.02c0,.02,0,.04,0,.06v-.03Z"/><path class="cls-56" d="m252.85,342.37s-.04,0-.04,0h0c-.78-.04-1.57.15-2.46.57-1.27.6-2.31,2.66-2.16,5.02l1.32.77c-.37-.6-.5-1.7-.03-1.99.77-.48,1.13.36,1.13.36v.05c-.53,1.11-.27,1.83.05,2.56-.09-1.02.02-1.81,1.52-2.64.83-.26,1.92-1.83,2.3-2.41h0c.57.06,1.09.33,1.46.77l.21.25-.17-.81c-.18-.87-.73-1.63-1.53-2.02-.54-.27-1.07-.42-1.6-.46Z"/></g></g></g><g><circle class="cls-23" cx="246.13" cy="356.01" r="1.22"/><circle class="cls-23" cx="255.09" cy="357.46" r="1.22"/></g><path class="cls-71" d="m257.37,358.89c.03-2.62-3.01-5.46-3.02-5.18-.03.96-.89,2.14-2.31,1.91-1.76-.28-3.16-1.45-3.84-2.97-1.22.24-2.72,1.32-3.31,2.15-1.93,2.69,1.42,8.99.29,10.36l10.87,1.81c-.86-2.12,1.27-4.02,1.31-8.07Z"/><path class="cls-75" d="m245.83,365.27l1.24-5.54s-1.71-.5-2.35-.67c.36,2.63,1.12,5.31.46,6.1l.65.11Z"/><g><path class="cls-9" d="m246.85,354.79c-1.12-.19-2.19.58-2.35,1.71l-1.36,9.78h0c-.14.92.48,1.79,1.4,1.95s1.8-.45,1.97-1.37h0s1.97-9.67,1.97-9.67c.22-1.12-.52-2.2-1.65-2.39h0Z"/><path class="cls-9" d="m251.35,375.96c.41-.28.53-.83.28-1.26l-5.3-8.95h0c-.55-.75-1.6-.93-2.37-.4-.77.53-.96,1.58-.45,2.36h0s6.56,8.08,6.56,8.08c.32.38.87.46,1.28.17h0Z"/><path class="cls-9" d="m250.23,372.39s1.3,1.08,2.27,2.12,1.78,1.67,1.78,1.67c0,0-.32.92-1.74-.41,0,0,.14.67.69,1.05,0,0,.5.38.91.35,0,0,.24.27-.04.39s-1.08.11-1.08.11l-.45.33-.34-.1-.33.24-.42-.25-.29-.09c-.61-.19-1.1-.64-1.35-1.23l-1.11-2.62,1.49-1.57Z"/><path class="cls-71" d="m248.97,360.12l.16-3.16c.17-1.35-.8-2.57-2.16-2.71-1.35-.14-2.55.87-2.65,2.23l-.12,1.79,4.76,1.85Z"/></g></g></g><g><g><g><path class="cls-28" d="m21.42,446.16h0c0-.78.63-1.41,1.41-1.41h.35c.7,0,1.29.51,1.4,1.2l.33,2.15c.58.41.77,1.04.77,1.62h-.14s-4.48,0-4.48,0l.36-3.57Z"/><rect class="cls-28" x="21.45" y="439.2" width="2.95" height="8.92" rx="1.47" ry="1.47"/><rect class="cls-82" x="20.57" y="449.35" width="5.43" height=".77"/></g><path class="cls-82" d="m21.59,449.84l.19-2.03c.34-.54.77-.77,1.41-.76.6,0,1.22.19,1.2,1.43,0,.25.2.46.45.47.26,0,.46-.2.47-.45.02-1.5-.73-2.34-2.11-2.37-1-.02-1.75.41-2.27,1.29l-.05.09-.22,2.36s0,0,0,0c.31-.04.62-.06.93-.05Z"/><path class="cls-82" d="m21.68,449.85c.04-.73.68-1.17,1.73-1.17,1.05,0,1.56.41,1.56,1.24,0,0,0,.01,0,.02.25,0,.5,0,.76-.01.05,0,.11,0,.16,0,0-1.35-.93-2.16-2.48-2.16-1.94,0-2.64,1.13-2.66,2.12.31-.04.62-.04.93-.03Z"/><rect class="cls-28" x="28.96" y="441.06" width="2.97" height="7.77" rx="1.48" ry="1.48"/><g><path class="cls-23" d="m32.43,412.95c0,1.16-.94,2.11-2.11,2.11-1.16,0-2.11-.94-2.11-2.11s.94-2.11,2.11-2.11,2.11.94,2.11,2.11Z"/><circle class="cls-23" cx="22.57" cy="412.98" r="2.11"/></g><g><path class="cls-40" d="m22.59,416.3c1.78,0,3.31-1.37,3.6-3.26.12-.76.18-1.56.18-2.39,0-4.35-1.69-7.88-3.78-7.88s-3.78,3.53-3.78,7.88c0,.84.06,1.64.18,2.39.29,1.89,1.82,3.26,3.6,3.26h0Z"/><path class="cls-40" d="m30.28,416.3c1.78,0,3.59-1.35,3.6-3.26.02-5.29-1.79-8.77-3.6-10.28-1.6-1.34-3.78,3.53-3.78,7.88,0,.84.06,1.64.18,2.39.29,1.89,1.82,3.26,3.6,3.26h0Z"/><rect class="cls-40" x="22.55" y="402.77" width="7.84" height="13.53"/></g><path class="cls-40" d="m26.78,412.95c.04-2.12-2.05-3.85-4.17-3.81h0c-2.11.04-3.77,1.82-3.66,3.93l.79,15.81c.06,1.75,1.51,3.13,3.26,3.1s3.15-1.47,3.14-3.22l.63-15.81Z"/><path class="cls-40" d="m26.13,429.15c-.06-1.72-1.48-3.09-3.21-3.09s-3.15,1.37-3.21,3.09l.06,15.2,6.23-.05.13-15.16Z"/><path class="cls-40" d="m33.9,412.95c.04-2.12-1.68-3.85-3.8-3.81h0c-2.11.04-4.14,1.82-4.03,3.93l1.16,15.81c.06,1.75,1.51,3.13,3.26,3.1s3.15-1.47,3.14-3.22l.26-15.81Z"/><path class="cls-40" d="m33.62,429.15c-.06-1.72-1.48-3.09-3.21-3.09-1.73,0-3.15,1.37-3.21,3.09l.06,15.2,6.23-.05.13-15.16Z"/><g><path class="cls-28" d="m28.85,446.16h0c0-.78.63-1.41,1.41-1.41h.35c.7,0,1.29.51,1.4,1.2l.69,1.64c.66.9,3.01.29,3.03,2.14h-2.76s-4.48,0-4.48,0l.36-3.57Z"/><rect class="cls-82" x="28" y="449.35" width="7.78" height=".77"/></g><path class="cls-82" d="m32.3,446.63c-1.1-.03-2.55.58-2.95,1.27l-.05.08-.18,1.55c-.03.25.15.48.41.51.02,0,.04,0,.05,0,.23,0,.43-.17.46-.41l.1-.83c.05-.4.27-.76.61-.96.59-.35,1.43-.63,1.88-.49.07.02-.32-.73-.32-.73Z"/><path class="cls-82" d="m34.31,448.26c.06-.2-.37-.35-.61-.43-.33-.1-.67-.3-.96-.22-.13.06-.26.14-.38.23-.57.41-.91.97-.91,1.5,0,.17.1.31.23.39h.46c.14-.08.23-.22.23-.39,0-.22.22-.52.53-.75.71-.55,1.3-.25,1.42-.32Z"/><rect class="cls-51" x="19.67" y="441.54" width="6.41" height="2.76"/><rect class="cls-51" x="27.15" y="441.58" width="6.41" height="2.76"/><rect class="cls-37" x="19.17" y="407.98" width="5.95" height="1.45" transform="translate(-334.17 207.29) rotate(-57.42)"/><path class="cls-37" d="m33.63,409.9c-1.1-.97-1.91-2.24-2.3-3.68l-.11-.39-1.07.29.11.39c.55,2.02,1.8,3.75,3.53,4.92l-.16-1.52Z"/></g><g><g><path class="cls-28" d="m26.31,388.13l-3.61,3.04c-1.66,1.46-1.27,4.08.59,5.27l5.05,3.22,3.41-4.24c1.32-1.64.7-3.65-1.17-4.61l-4.27-2.68Z"/><path class="cls-74" d="m32.74,394.05c.01-3.68-4.39-5.22-4.56-4.99-.81,1.09-3.21,1.57-4.3.27-1.13.58-3.7,1.89-4.05,2.86-.9,2.52-.39,9.53.51,12.01l11.46.46c-.25-1.66.93-7.48.94-10.62Z"/><path class="cls-74" d="m20.67,391.19c-3.65,2.01-1.63,9.21-1.63,9.21l5.1-.44-.58-6.15c.2-1.33-1.71-3.27-2.89-2.61Z"/><path class="cls-74" d="m35.39,397.15s-2.75-6.27-3.9-5.91l-.26.07c-1.16.36-1.11,2.48-.72,3.62l1.34,4.23c.7-.41,3.25-1.8,3.55-2.02Z"/><path class="cls-86" d="m32.54,390.3c.28-.92-.59-2.13-.95-2.58.03-.66.3-1.97-.29-2.94-.87-1.43-1.16-3.79-3.06-4.4-.63-.33-2.31-.57-3.55.18l2.13.61c.23,0,.72,2.26,2.79,3.04.01.51.31,1.66.12,2.65-.2,1.1-1.39,2.06-1,3.13-.83.98.11,1.79,1.24,2.55,1.37.93,3.56,1.36,3.8.19.16-.76-.81-1.61-1.23-2.43Z"/><path class="cls-28" d="m28.58,391.18h0c-.67.87-1.95.99-2.77.26l-1.53-1.37,1.57-5.89c.26-.93,1.23-1.48,2.16-1.22h0c.93.26,1.48,1.23,1.22,2.16l-.65,6.07Z"/><g><path class="cls-28" d="m28.82,381.97c-.14-.13-.71-.75-1.84-.51-.95.04-4.99,2.74-1.52,6.64.4.46,3.3,1.64,4.18.63.19-.22.13-.75.3-1.15.35-.81.35-1.57-.12-2.71-.06-.15.11-.35.08-.5-.21-1.06-.59-1.95-1.09-2.39Z"/><g><g><path class="cls-14" d="m28.54,384.91l-.41-.26c.23-.35.66-.3.85-.23l-.17.46s-.21-.07-.28.04Z"/><path class="cls-14" d="m27.3,386.34c-.66,0-1.23-.49-1.31-1.15-.07-.58.32-1.08.86-1.15l.64-.08c.55-.08,1.04.32,1.11.86v.03c.09.72-.42,1.38-1.15,1.46-.05,0-.11.01-.16.01Zm.32-1.9s-.04,0-.06,0l-.64.08c-.28.04-.48.29-.45.57.06.49.48.81.94.75.46-.06.78-.47.73-.92l.24-.06-.24.03c-.03-.26-.25-.45-.51-.45Z"/></g><path class="cls-14" d="m29.78,386.02c-.54,0-1.02-.5-1.11-1.18v-.03c-.07-.55.23-1.03.68-1.09l.49-.06c.44-.06.86.33.93.88.09.76-.31,1.4-.89,1.47-.04,0-.07,0-.1,0Zm-.63-1.27v.03c.06.44.37.78.68.75.31-.04.52-.45.47-.89-.04-.31-.23-.54-.39-.5l-.49.06c-.17.02-.3.28-.26.55Z"/><rect class="cls-14" x="23.73" y="384.83" width="2.51" height=".48" transform="translate(-19.35 1.75) rotate(-2.89)"/></g><path class="cls-15" d="m28.64,381.08c.08-.07.44-.23.52-.3-1.5-1.22-3.99-1.14-5.51.16-.39.34-.7.79-.92,1.28-.54,1.21-.45,2.62.21,3.77.63,1.1.6-.21.53-1.06.05-2.44,1.94-3.44,1.94-3.44l1.38.04s1.51-.12,1.84-.45Z"/><path class="cls-90" d="m27.92,380.24c-6.17-.67-6.09,3.61-5.65,5.71.19.91-1.7,3.17-.36,4.94-.21.9-.92,2.25.02,3.67,1.35,2.03,3.34,1.26,4.44.03.91-1.01-.07-3.51-1.12-4.26.12-1.13.48-1.83.02-2.85-.22-.49-.39-.95-.52-1.34-.16-.51-.01-1.06.38-1.42.6-.55,1.26-1.24,1.43-2.14.1-.54,1.12-1.1,1.34-1.16,0,0,.84-1.12.02-1.19Z"/></g></g><g><path class="cls-28" d="m36.75,402.77l-1.92-5.32c-.17.12-.34.23-.52.34-.84.48-1.81.52-2.64,1.03l1.59,5.03h0c.31.94,1.32,1.46,2.27,1.17.95-.29,1.49-1.29,1.21-2.24h0Z"/><path class="cls-28" d="m25.55,402.98l-2.36-3.93c-.16.13-2.77.34-3.56.91l1.96,4.9h0c.38.91,1.42,1.36,2.35,1,.93-.36,1.39-1.4,1.05-2.33l.57-.55Z"/><polygon class="cls-23" points="33.92 408.66 25.46 410.83 23.81 397.42 32.27 395.25 33.92 408.66"/></g><path class="cls-28" d="m27.88,405.9l-2.51-.77-2.64,1.47s.37.43,1.11.28c0,0-.17.69.41,1.03,0,0-.28.32.23.61,0,0-.26.48.21.64l1.24.29,2.44-1.57s1.55-.79-.5-1.97Z"/><path class="cls-28" d="m27.66,408.03l8.22-3.13h0c.78-.44,1.01-1.54.51-2.48s-2.95-.21-2.95-.21l-6.79,3.91c-.39.26-.5.85-.23,1.34,0,0,.8.74,1.24.57Z"/><path class="cls-28" d="m31.7,401.33l-6.94.86-3.16,1.64c.19.58-.31.01.99,1.95.59.88,9.43-2.32,9.43-2.32.46-.12.75-.63.67-1.19,0,0-.51-.97-.98-.95Z"/><path class="cls-28" d="m30.54,401.87s-.39-.46.01-.87,1.24-1.84,1.24-1.84c0,0,.46-.56.71-.11s-.06,1.47-.06,1.47c0,0,.99.05,1.09.42s-.12.81-.12.81c0,0,.3.44.24.81s.09.54-.18.86-2.7.55-2.7.55c0,0-2.15-.5-.24-2.11Z"/></g></g><g><g><g><circle class="cls-24" cx="338.51" cy="409.14" r="2.41"/><circle class="cls-24" cx="346.18" cy="409.14" r="2.41"/></g><line class="cls-11" x1="340.73" y1="449.66" x2="332.88" y2="449.66"/><g><path class="cls-82" d="m347.89,402.03l1.55,6.31c.06.44.06.89-.05,1.32-.39,1.59-1.83,3.62-3.54,3.62l-5.55.02v-11.15s7.6-.12,7.6-.12Z"/><path class="cls-82" d="m335.84,402.25l-1.37,6.1c-.06.44-.06.89.05,1.32.39,1.59,1.83,3.62,3.54,3.62l5.55.02v-11.15s-7.77.09-7.77.09Z"/><rect class="cls-21" x="343.71" y="439.82" width="3.39" height="8.87" rx="1.69" ry="1.69" transform="translate(690.81 888.52) rotate(180)"/><path class="cls-62" d="m341.17,448.54l.38-.06,1.31-2.06s1.61-1.63,3.6.53h.54c.3,0,.55.24.55.55v2.3h-7.33v-.19c.02-.54.42-.99.95-1.07Z"/><path class="cls-82" d="m345.45,405.43c2.32.02,4.14,1.99,3.98,4.3l-1.13,16.27c-.04,1.57-1.33,2.83-2.91,2.81s-2.84-1.3-2.85-2.87l-2.67-16.2c-.17-2.34,3.22-4.33,5.57-4.31h0Z"/><path class="cls-82" d="m342.54,425.68c.12-1.55,1.45-2.73,3.01-2.67s2.79,1.36,2.78,2.91l.2,20.32-5.93-.06-.06-20.5Z"/><rect class="cls-21" x="331.42" y="439.81" width="3.39" height="8.87" rx="1.69" ry="1.69" transform="translate(617.82 920.96) rotate(-173.98)"/><path class="cls-62" d="m326.07,448.33l1.4-.15,2.6-1.53s.89-2.21,2.14.34h2.22c.29,0,.52.23.52.52v2.31h-10.29s0,0,0,0c.04-.78.64-1.41,1.41-1.49Z"/><path class="cls-82" d="m331.9,425.59c.19-1.54,1.58-2.66,3.14-2.52s2.72,1.49,2.64,3.04l-1.93,21.25-5.69-1.47,1.85-20.3Z"/><path class="cls-82" d="m339.33,405.72c2.26.53,5.12,2.86,4.45,5.08l-6.24,15.61c-.39,1.52-1.92,2.46-3.46,2.1s-2.48-1.9-2.14-3.43l2.48-16.05c.36-2.32,2.62-3.84,4.9-3.3h0Z"/></g></g><g><g><path class="cls-71" d="m334.91,405.46h0c4.15,2.26,9.12,2.44,13.41.47l.51-.23-.43-2.09c-.74-3.59-.71-7.29.06-10.87l.43-1.98h-12.93s.12.78.12.78c.55,3.6.16,9.39-.87,12.88l-.31,1.04Z"/><path class="cls-71" d="m335.63,387.44c.11-.1.23-.18.35-.25l5.07-2.13s0-.04.04-.04l2.15.48,2.19-.25s0,.02.04.05l3.98,2.84c.12.08.23.18.33.29.82.9,1.73,2.83,1.42,3.02-1.51.95-5.61,2.46-7.92,2.5-.13,0-.27,0-.42,0-.03,0-.45-.03-.57-.06-2.29-.29-6.2-2.23-7.6-3.35-.28-.22.02-2.31.93-3.12Z"/><g><path class="cls-16" d="m343.93,387.49l-.74.6c-.8-.48-2.26-1.32-2.42-2.62l-.58-4.91c-.13-1.07.84-2.06,2.15-2.21h0c1.32-.16,2.49.58,2.61,1.65l.64,5.4c.12,1.04-.62,1.98-1.67,2.1Z"/><path class="cls-84" d="m345.45,386.16c-.06-.33-.03-.97-.04-1.33,2.58,1.31,2.21,3.5,2.21,3.5l-2.16-1.43c-.19.06-2.34,1.34-2.37,1.34,0,0,.25-1.38,2.37-2.09Z"/><g><path class="cls-16" d="m347.04,378.91c0-2.26-1.81-3.78-4.07-3.78-1.49,0-2.8.67-3.52,1.77l-.28.22s-.9,1.11-.29,2.06c0,.07.01.14.02.21-.13.28-.47,1-.62,1.17-.19.21-.55.63-.02.89,0,0,.31.09.41.08,0,0-.01.81.11.88,0,0-.19.23,0,.41,0,0,0,.33-.03.68-.03.3,1.22,1.07,1.96.93l3.18-1.5-.02-.04c1.82-.41,3.18-2.04,3.18-3.98Z"/><path class="cls-36" d="m340.83,375.52s0,0,.01,0c.97-.49,2.14-.65,3.29-.51,1.69.2,2.86,1.73,3.2,3.5.13.13.29.18.42.47.12.25.13.47.13.57.01.52-.26.71-.37,1.1-.22.78.59,1.2.47,1.91-.06.34-.37.79-1.29,1.2,0,.02.01.04.02.07.25.57.57,1.03-.22,1.84-.54.55-1.49.61-2.46.26-.58-.21-.93-2-.14-4.19h0c.47-.91-.15-1.62-.56-1.97,0,0,0,0,0,0-2.27-.21-3.72-2.4-3.72-2.4-1.1.2-.65,2.12-.73,2.01-1.67-2.28.44-4.03,1.94-3.85Z"/></g><circle class="cls-66" cx="343.19" cy="381.35" r=".3" transform="translate(-17.9 16.91) rotate(-2.75)"/></g><path class="cls-71" d="m338.03,387.21c-1.25-.43-3.12,1.13-3.47,2.25l-1.83,9.29c-.29.91.44,2.08,1.47,2.44,1.03.36,2.24-1.22,2.24-1.22l3.12-9.97c.42-1.1-.28-2.36-1.53-2.79h0Z"/><path class="cls-84" d="m341.47,386.58c-.58-.39-.69-.93-.8-1.9,0,0,0,0,0-.01-2.71,1.02-2.05,3.17-2.05,3.17l2.3-1.18c.18.08,2.12,1.58,2.16,1.59,0,0-.43-.86-1.62-1.66Z"/></g><path class="cls-71" d="m348.03,388.57c1.29-.3,2.99,1.45,3.22,2.6l.86,9.43c.2.94-.65,2.03-1.71,2.28-1.06.25-2.1-1.45-2.1-1.45l-2.08-10.24c-.3-1.13.52-2.32,1.81-2.62h0Z"/><polygon class="cls-23" points="342.74 400.79 339.96 400.79 339.28 395.83 343.42 395.83 342.74 400.79"/><path class="cls-71" d="m351.3,399.71c.79.41,1.05,1.51.58,2.49s-1.5,1.46-2.31,1.09h0s-4.29-1.48-4.29-1.48c-.81-.39-1.08-1.52-.6-2.51.48-.99,1.53-1.48,2.34-1.08l4.29,1.48h0Z"/><path class="cls-16" d="m345.6,398.58l-2.44-1.11-.07.38h-1.87c-.12,0-.22.09-.24.21h0c-.02.12.06.23.18.26l1.69.42-.96.02s-.08,0-.12,0l-1.07-.16c-.18-.03-.35.1-.38.28h0c-.02.15.06.3.2.36l.95.41c.08.04.17.06.27.06l.92.12-.47.24c-.05.02-.11.02-.16.02l-1.3-.03c-.15,0-.28.11-.29.26h0c-.02.14.08.27.22.31l1.47.36v.06c-.01.13.07.24.19.28h0c.2.06.41.07.62,0l1.97-.57s1.99-.8.71-2.17Z"/><path class="cls-16" d="m343.14,399.21c-.11.58.25,1.15.83,1.29l1.34.32c.49.1.97-.22,1.07-.72l.08-.38c.1-.49-.22-.97-.72-1.07l-1.25-.3c-.61-.14-1.22.25-1.34.86h0Z"/><path class="cls-71" d="m332.52,401.25c.47.98,1.45,1.5,2.26,1.14l.05-.04,4.21-.95c.81-.39,1.08-1.52.6-2.51s-1.53-1.48-2.34-1.08l-4.5.97s-.76,1.49-.29,2.47Z"/><path class="cls-16" d="m337.58,399.4l2.08-.99.07.38,2.23-.12c.12,0,.22.09.24.21h0c.02.12-.06.23-.18.26l-1.69.42.96.02s.08,0,.12,0l1.07-.16c.18-.03.35.1.38.28h0c.02.15-.06.3-.2.36l-.95.41c-.08.04-.17.06-.27.06l-.92.12.47.24c.05.02.11.02.16.02l1.3-.03c.15,0,.28.11.29.26h0c.02.14-.08.27-.22.31l-1.47.36v.06c.01.13-.07.24-.19.28h0c-.2.06-.41.07-.62,0l-1.97-.57s-1.99-.8-.71-2.17Z"/><path class="cls-16" d="m340.1,399.97c.11.58-.25,1.15-.83,1.29l-1.34.32c-.49.1-.97-.22-1.07-.72l-.08-.38c-.1-.49.22-.97.72-1.07l1.25-.3c.61-.14,1.22.25,1.34.86h0Z"/></g></g><g><path class="cls-10" d="m123.98,382.59h0c-.77-1.11-2.29-1.4-3.43-.65s-1.44,2.27-.71,3.41h0s6.11,6.69,6.12,6.7c.88,1.15,2.55.48,1.94-.83-.03-.07-3.92-8.63-3.92-8.63Z"/><path class="cls-82" d="m115.64,372.26c-1.64.8-2.31,2.79-1.48,4.43l4.24,8.14h0c.74,1.45,3.73-2.38,5.58-2.25l-.18-.38-3.75-8.37c-.77-1.66-2.76-2.37-4.4-1.57h0Z"/><path class="cls-10" d="m129.11,396.11c-.38.29-.64-.13-.64-.13l.1-.56c-.31.04-.39-.26-.39-.26l-.08-1.06c-.21-.35-1.25-.61-1.25-.61.36,1.7-.07,1.66-.07,1.66-.45-.08-.62-1.55-.62-1.55-.59-1.29-.1-2.13-.1-2.13l.1-.27c.24-.65,1.06-.86,1.57-.39h0s1.9,3.95,1.9,3.95l.14,1.1c.02.16-.22.48-.22.48-.29.25-.44-.23-.44-.23Z"/><rect class="cls-12" x="108.58" y="420.1" width="2.93" height="8.8" rx="1.46" ry="1.46"/><g><circle class="cls-23" cx="108.29" cy="374.91" r="1.23"/><circle class="cls-23" cx="116.65" cy="374.91" r="1.23"/></g><path class="cls-20" d="m112.07,428.1l-.48-1.25c-1.28,1.76-3.11,0-3.11,0l-.41,1.92v1.39s4.23,0,4.23,0h.48c0-.54-.18-1.68-.71-2.06Z"/><g><rect class="cls-12" x="116.15" y="418.71" width="2.93" height="7.67" rx="1.46" ry="1.46" transform="translate(109.86 -16) rotate(14.54)"/><path class="cls-12" d="m120.21,429h0c-.47.22-1.03.02-1.26-.45l-1.86-3.91c-.22-.47-.02-1.03.45-1.26,0,0,1.03-.02,1.26.45l1.86,3.91c.22.47.02,1.03-.45,1.26Z"/><path class="cls-20" d="m122.08,429.51l-1.41-1.84s-1.88.19-2.37-.94c-.49-1.13-1.15-2.06-2.8-2.55l-1.07,4.13,1.2.31,1.02-1.91,1.14,2.47,3.84,1c.39.1.69-.35.44-.67Z"/></g><g><path class="cls-50" d="m118.43,370.86c.35-.8-.3-1.98-.57-2.42.1-.59.13-2.47-.07-3.42-.13-.63.31-1.67-1.33-2.43-.53-.36-2.82-1.89-4.01-1.35l1.84.79c.21.02.4,2.11,2.17,3.04-.04.46.09,1.53-.18,2.4-.31.97-1.48,1.69-1.25,2.7-.86.79-.09,1.62.83,2.43,1.13.98,3.05,1.62,3.4.59.22-.66-.55-1.53-.84-2.32Z"/><polygon class="cls-10" points="113.12 368.44 106.12 373.23 113.69 379.47 119.14 373.23 113.12 368.44"/><path class="cls-10" d="m115.05,371.81l-3.86-.04v-7.25c0-1.07.86-1.93,1.93-1.93h0c1.07,0,1.93.86,1.93,1.93v7.29Z"/><path class="cls-83" d="m117.56,413.29h0c-.04-.33-.07-.67-.11-1l.11,1Z"/></g><g><path class="cls-71" d="m108.9,400.16c2.29,0,4.27-1.73,4.64-4.1.15-.95.23-1.96.23-3.01,0-5.47-2.18-9.91-4.87-9.91s-4.87,4.44-4.87,9.91c0,1.05.08,2.06.23,3.01.37,2.37,2.35,4.1,4.64,4.1h0Z"/><path class="cls-71" d="m118.82,400.16c2.29,0,4.27-1.73,4.64-4.1.15-.95.23-1.96.23-3.01,0-5.47-2.18-9.91-4.87-9.91s-4.87,4.44-4.87,9.91c0,1.05.08,2.06.23,3.01.37,2.37,2.35,4.1,4.64,4.1h0Z"/><rect class="cls-71" x="108.86" y="383.15" width="10.11" height="17.01"/></g><g><path class="cls-25" d="m121.77,394.76c0,1.15-.93,2.08-2.08,2.08-1.15,0-2.08-.93-2.08-2.08s.93-2.08,2.08-2.08,2.08.93,2.08,2.08Z"/><circle class="cls-25" cx="109.12" cy="394.76" r="2.08"/></g><path class="cls-71" d="m109.6,389.81c-3.21,0-5.72,2.77-5.39,5.97l1.72,14.6c.03,2.19,1.81,3.95,4,3.95s3.97-1.76,4-3.95l1.05-14.83c.2-3.11-2.27-5.74-5.38-5.74h0Z"/><path class="cls-71" d="m113.91,410.08c-.08-2.12-1.83-3.82-3.97-3.82-2.14,0-3.9,1.7-3.97,3.82l1.23,15.33,5.4-.06,1.32-15.28Z"/><path class="cls-71" d="m116.71,386.99c-3.12.75-4.9,4.05-3.82,7.07l5.13,13.78c.55,2.12,2.69,3.41,4.82,2.89,2.13-.52,3.44-2.65,2.95-4.78l-2.49-14.66c-.55-3.06-3.56-5.04-6.59-4.31h0Z"/><path class="cls-71" d="m125.74,407.86c.38-2.09-.97-4.13-3.06-4.58-2.09-.46-4.17.83-4.7,2.88l-2.4,16.7,5.28,1.1,4.88-16.1Z"/><path class="cls-82" d="m116.67,371.12h-.2s-7.67,0-7.67,0h0c-2,.08-3.7,1.63-4.03,3.76-.13.87-.21,1.8-.21,2.76,0,4.69-.18,8.77.68,9.03.15.04,3.53.05,3.69.05.05,0,.1,0,.15,0h1.84s.03,0,.05,0c.6,0,11.31.4,11.47-.27,2.08-8.61-3.72-15.32-5.78-15.32Z"/><g><path class="cls-82" d="m109.33,371.72c-1.83-.63-3.81.36-4.41,2.2l-2.91,9.25h0c-.53,1.64.35,3.41,1.98,3.97s3.34-.45,3.94-2.07l.07.16,3.44-9.05c.67-1.82-.29-3.83-2.12-4.46h0Z"/><path class="cls-10" d="m103.65,382.3h0c-1.25.78-1.66,2.42-.91,3.69.75,1.27,2.39,1.7,3.67.98h0s7.64-6.26,7.65-6.26c1.3-.89.68-2.74-.79-2.16-.08.03-9.62,3.75-9.62,3.75Z"/></g><g><path class="cls-10" d="m117.41,365.36c.4-2.15-1.39-3.72-3.12-3.94-2-.26-3.86,1.25-4.14,3.38-.14,1.03.12,2.01.65,2.78,1.07,1.77,2.71,2.52,4,2.72,1.05.17,2.41-1.72,2.61-3.3.11-.86-.11-1.06,0-1.64Z"/><path class="cls-50" d="m117.76,365.02s-3.17-1.34-3.73-3.72c0-.5,3.86-1.19,3.73,3.72Z"/><path class="cls-50" d="m115.33,361.07c-5.7-1.56-5.27,3.36-6.32,4.53-1.27,1.42-.85,3.88-.48,4.7-.83.77-1.89,2.26-1.18,3.69,1.03,2.06,4.32,1.66,5.25.41.79-1.08,0-3.42-.89-4.24.24-1.05.66-1.65.34-2.66-.29-.91-.4-1.67-.45-2.15.67-.5,1.46-1.41,1.81-2.53.15-.49,1.22-.38,1.44-.4,0,0,1.43-.99.48-1.36Z"/></g><polygon class="cls-67" points="115.28 378.55 118.08 378.28 121.46 373.93 121.34 373.7 118.59 373.94 115.28 378.55"/><polygon class="cls-73" points="115.39 378.78 118.19 378.52 121.45 373.94 118.7 374.18 115.39 378.78"/><path class="cls-10" d="m112.86,379.31l1.02-1.12s.43-.88,1.03-1.17,2.1-1.1,2.23-.96-.28.91-1.02,1.14c0,0,1.35-.13,2.75-.75,0,0,.62.24.48.47s-.65.47-.65.47c0,0,.12.27-.02.5s-1.61,1.99-1.61,1.99l-3.62.82s-1.72.11-.57-1.4Z"/></g><g><g><g><g><circle class="cls-23" cx="147.87" cy="393.56" r="1.32"/><circle class="cls-23" cx="136.28" cy="394.1" r="1.32"/></g><path class="cls-30" d="m138.17,391.44l4.68-.04v-7.11c0-1.05-1.05-1.89-2.34-1.89h0c-1.29,0-2.34.85-2.34,1.89v7.15Z"/><rect class="cls-23" x="131.44" y="440.47" width="3.06" height="8.01" rx="1.53" ry="1.53" transform="translate(265.93 888.95) rotate(180)"/><path class="cls-55" d="m127.91,450.26c0-.5.23-1.38.87-1.5,1.57-.3,2.39-4.37,2.39-4.37.94-.57,3.6.89,3.6.95v5.09h-6.86s0-.17,0-.17Z"/><path class="cls-62" d="m134.77,450.42h-3.09s-3.77,0-3.77,0v-.15c0-.22.04-.51.15-.78h6.71v.93Z"/><g><circle class="cls-23" cx="136.41" cy="414.8" r="2.17"/><circle class="cls-23" cx="143.97" cy="414.84" r="2.17"/></g><path class="cls-22" d="m132.63,414.22c.49-2.13,2.65-3.43,4.76-2.86h0c2.1.57,3.98,3.36,3.34,5.44l-4.74,12.32c-.49,1.74-2.29,2.76-4.04,2.28s-2.78-2.26-2.33-4.01l3.01-13.18Z"/><path class="cls-22" d="m138.94,415.19c-.05-2.18,2.98-4.01,5.16-3.97h0c2.18.04,3.88,1.88,3.77,4.05l-.82,13.52c-.06,1.8-1.55,3.23-3.36,3.2-1.81-.03-3.25-1.52-3.24-3.32l-1.52-13.47Z"/><g><path class="cls-22" d="m146.93,404.88l.86,7.86c.06.56.06,1.13-.05,1.68-.42,2.02-1.96,4.6-3.8,4.6l-5.96.03v-14.17h8.95Z"/><path class="cls-22" d="m133.48,404.88l-.86,7.86c-.06.56-.06,1.13.05,1.68.42,2.02,1.96,4.6,3.8,4.6l5.96.03v-14.17s-8.95,0-8.95,0Z"/></g><path class="cls-30" d="m140.86,387.6l4.88,2.52c1.86,1.29.97,4.15-.78,5.6l-4.71,3.93-3.99-3.91c-1.54-1.51-1.32-4.06.45-5.28l4.15-2.86Z"/><path class="cls-31" d="m133.78,394.23c.44-3.56,2.97-3.84,3.75-4.35,0,0,3.79.12,5.16-.47l.75-.55c1.75.5,4.82,1.73,5.23,2.64,1.49,3.31-.39,22.47-.39,22.47-7.55,3.51-16.81.96-16.81.96l2.31-20.69Z"/><path class="cls-30" d="m139.15,379.81c.2-.14,1.51-1.04,2.97-.55h0s0,0,0,0,0,0,0,0h0c1.45.53,1.92,2.04,1.99,2.28.48,1.63-.97,4.78-1.93,5.89-.52.61-3.98,1.52-5.06.36-.43-.46-.31-.89-.28-1.69.07-1.8.03-2.07.77-2.93.14-.16-.15-.44-.09-.63.43-1.36.91-2.23,1.62-2.74Z"/><path class="cls-45" d="m142.82,387.89c-.14.29-2.75.2-2.16-2.96.18-.96-.46-1.75-1.37-.64l-.2-.06s.3-.91.57-1.41c.43-.8,1.16-1.34-1.28-2.18-.72-.25.55-1.07,1.27-1.33.95-.34,1.51-.36,2.67-.02,3.15.93,3.7,4.13,2.35,6.28s-1.85,2.33-1.85,2.33Z"/><path class="cls-22" d="m129.51,428.49c.06-1.77,1.52-3.18,3.31-3.18s3.25,1.42,3.31,3.18l-.26,14.48c-.02.75-.64,1.36-1.39,1.35l-2.96-.03c-.74,0-1.35-.6-1.37-1.34l-.63-14.46Z"/><rect class="cls-23" x="142.37" y="440.47" width="3.06" height="8.01" rx="1.53" ry="1.53" transform="translate(287.8 888.95) rotate(-180)"/><path class="cls-55" d="m138.85,450.26c0-.5.23-1.38.87-1.5,1.57-.3,2.39-4.37,2.39-4.37.94-.57,3.6.89,3.6.95v5.09h-6.86s0-.17,0-.17Z"/><path class="cls-62" d="m145.71,450.42h-3.09s-3.77,0-3.77,0v-.15c0-.22.04-.51.15-.78h6.71v.93Z"/><path class="cls-22" d="m140.45,428.49c.06-1.77,1.52-3.18,3.31-3.18s3.25,1.42,3.31,3.18l-.26,14.48c-.02.75-.64,1.36-1.39,1.35l-2.96-.03c-.74,0-1.35-.6-1.37-1.34l-.63-14.46Z"/></g><g><path class="cls-32" d="m139.9,385.37c.46.1.91-.21,1.03-.7s-.17-.97-.62-1.07"/><path class="cls-30" d="m138.95,384.81c-.25.55-.41,1.18-.03,1.36.71.35,1.49-.99,1.65-1.6s.14-.77-.23-.95-1.13.64-1.38,1.19Z"/></g><g><ellipse class="cls-32" cx="142.29" cy="383.32" rx=".57" ry=".53" transform="translate(-263.12 436.47) rotate(-77.1)"/><path class="cls-32" d="m142.48,383.68v.02s.09.57-.2.55c0,0-.02,0-.03,0-.11,0-.19-.1-.18-.2l.02-.39.39.02Z"/><path class="cls-3" d="m142.18,384.75c.05.09-.18.8-.74.33"/><path class="cls-32" d="m142.51,384.03l-.48-.04s-.05.2.09.32l.02.47h.1s.14-.43.14-.43c0,0,.14-.13.14-.32Z"/><path class="cls-6" d="m140.91,384.55s.44-.08.51.54"/><path class="cls-6" d="m139.23,384.75c.12.02.31.02.38-.21.02-.07,0-.14-.03-.2-.05-.08-.09-.23.02-.45.18-.35.71-.34.98,0"/></g></g><g><g><path class="cls-30" d="m133.81,395.41c.87-3.28,3.87-2.67,4.19-.86.33,1.81-3.1,12.15-3.1,12.15l-4.48.2s2.51-8.22,3.38-11.49Z"/><path class="cls-30" d="m133.54,408.93c-3.92.5-10.21-7.07-10.21-7.07-.29-.81.43-1.3,1.25-1.04,0,0,7,3.11,10.34,5.79,0,0-.58,2.22-1.39,2.33Z"/></g><path class="cls-30" d="m120.66,397.9c.21.04.35.22.35.22h0c.32.06.48.62.48.62l.56.33.92.27h0c.01-.16-.5-.61-.79-.94-.12-.14-.15-.26-.15-.37,0-.16.16-.26.31-.22.56.17,1.03.94,1.03.94l.66.57s1.16.66,1.29,1.26c.13.6.24.97.24.97l-1.42,1.07-.92-.68c-.61-.23-1.25-.98-1.38-1.13-.01-.02-.02-.04-.03-.06l-.07-.22h0l-.61-.64v-.11s-.03,0-.03,0l-.21-.34-.03-.45h0l-.34-.93c-.03-.08.04-.17.12-.15Z"/><path class="cls-31" d="m139.27,389.93s-4.58,1.17-5.27,2.83c0,0-3.09,8.21-3.19,10.56l5.31,2.98,2.01-5.99,1.15-10.39Z"/></g></g><g><g><rect class="cls-71" x="308.9" y="426.34" width="3.39" height="8.88" rx="1.69" ry="1.69" transform="translate(782.33 674.7) rotate(153.13)"/><path class="cls-59" d="m299.72,401.15c-.55-2.36,1.52-5.13,3.9-5.59h.03c2.37-.46,4.86,1.54,5.23,3.93l1.11,12.72c.35,1.97-.95,3.86-2.92,4.24-1.97.38-3.87-.9-4.27-2.86l-3.07-12.43Z"/><path class="cls-59" d="m302.73,413.36c-.39-1.92.81-3.83,2.74-4.29,1.92-.46,3.87.68,4.4,2.57l4.3,19.89-6.11,1.42-5.32-19.58Z"/><g><path class="cls-55" d="m304.49,438.96h-.04c.05.06,5.41-5.85,5.41-5.85l.37.57c1.15.21,2.33-.24,3.04-1.18l.21-.28,1.01,2.26-10,4.47Z"/><rect class="cls-55" x="304.27" y="436.66" width="10.98" height="1.37" transform="translate(771.09 710.12) rotate(155.9)"/></g></g><g><rect class="cls-71" x="296.29" y="420.1" width="3.39" height="8.88" rx="1.69" ry="1.69" transform="translate(678.19 777.33) rotate(167.92)"/><g><path class="cls-55" d="m289.59,428.74h-.03c.02.06,7.33-3.14,7.33-3.14l.1.67c.97.67,2.22.73,3.25.17l.3-.17v2.47h-10.95Z"/><rect class="cls-55" x="289.57" y="428.74" width="10.98" height="1.37" transform="translate(590.12 858.84) rotate(-180)"/></g><path class="cls-59" d="m298.45,395.09c2.01-1.36,5.34-.42,6.61,1.64v.02c1.28,2.05.31,5.09-1.79,6.29l-11.48,5.59c-1.71,1.03-3.94.5-5-1.21s-.54-3.94,1.14-5.02l10.51-7.32Z"/><path class="cls-59" d="m286.51,406.88c-.72-1.83.14-3.91,1.96-4.7,1.81-.79,3.93,0,4.77,1.78l7.66,18.85-5.77,2.45-8.61-18.38Z"/><path class="cls-59" d="m303.24,391.05c-1.47,0-5.03,1.03-6.08,1.9l.8,6.06c.45,4.09,2.17,4.06,5.24,4.08.02,0,.03,0,.04,0,3.76-.96,6.02-2.69,6.02-6.02,0-3.32-2.69-6.02-6.02-6.02Z"/></g><path class="cls-23" d="m303.04,372.91c0-.81.66-1.47,1.47-1.47s1.47.66,1.47,1.47-.66,1.47-1.47,1.47-1.47-.66-1.47-1.47Z"/><path class="cls-49" d="m306.13,375.61l-4.72,1.78-2.77-7.16c-.41-1.05.32-2.31,1.62-2.82h0c1.3-.5,2.68-.06,3.09,1l2.78,7.19Z"/><path class="cls-16" d="m303.9,373.64c1.25.79,1.6,2.45.78,3.67l-7.02,10.35h0c-.66,1-2.01,1.3-3.03.65s-1.33-1.99-.71-3.02h0s6.34-10.77,6.34-10.77c.75-1.27,2.41-1.66,3.65-.87h0Z"/><path class="cls-16" d="m285.2,379.61l11.27,5.17h0c1.05.59,1.45,1.91.89,2.98s-1.88,1.48-2.96.94h0s-10.39-6.99-10.39-6.99c-.52-.31-.72-.66-.62-1.11.07-.33.22-.8.5-.98.33-.2.89-.21,1.32-.01Z"/><path class="cls-16" d="m280.79,378.56c-.8-.3-1.76-.73-1.64-1,.17-.38,3.34.97,3.24.8-.1-.17-2.89-1.08-2.5-1.42.4-.33,3.2.93,3.2.93-.65-.85-.03-1.57-.03-1.57,0-.24.78.97,1.1,1.47.09.14.21.25.35.35.89.64,1.12,1.65,1.12,1.65h0c.31,1.2-.9,2.22-2.03,1.72l-.69-.31c-.42-.04-2.23-1.15-2.67-1.4-.43-.25-.08-.51-.08-.51,2.04.79,1.97.67,1.97.67,0,0-2.88-1.24-2.79-1.62.04-.18.79.02,1.45.23Z"/><path class="cls-13" d="m293.97,383.73l5.16-8.76c.9-1.52,2.88-1.99,4.37-1.04,1.49.94,1.91,2.93.93,4.4l-5.67,8.36-4.79-2.95Z"/><path class="cls-13" d="m296.15,397.45s-1.03-14.66,1.06-20.53,5.06-5.95,7.14-5.67c4.25.57,4.65,22.69,4.84,24.89v.03c-3.62,2.19-9,2.99-12.89,1.34l-.15-.06Z"/><path class="cls-16" d="m303.21,372.04c1.25-.78,2.8-.13,3.54,1.14l6.39,10.56h0c.62,1.04.3,2.38-.73,3.02s-2.37.34-3.03-.67h0s-6.96-10.38-6.96-10.38c-.81-1.23-.45-2.89.8-3.67h0Z"/><path class="cls-16" d="m309.78,397.29l-.77-12.37h0c.02-1.2.99-2.18,2.2-2.19,1.21,0,2.2.96,2.23,2.16h0s-1.25,12.46-1.25,12.46c-.03.6-.24.94-.69,1.08-.32.1-.81.19-1.1.02-.33-.2-.6-.68-.63-1.16Z"/><path class="cls-13" d="m307.8,385.67l-6.18-9.8c-.97-1.47-.57-3.5.95-4.39,3.73-2.18,9.51,8.06,10.18,11.05l-4.96,3.15Z"/><g><path class="cls-49" d="m304.15,362.65c-1.78-1.25-3.77-1.24-5.05-.21h0s-2.32,1.41-1.8,2.56c0,0-.86,1.11-1.24,1.42,0,0-.41.41.42.85,0,0-.22,1.58-.42,1.88-.12.19,0,.67.47,1.13.54.53,1.31.74,2.06.66,1.54-.18,3.55-.34,4.35-.85,3.09-1.98,3.17-6.07,1.21-7.44Z"/><g><path class="cls-88" d="m304.15,362.65s0,0,0,0c-.15-.11-.31-.2-.46-.29-.04-.02-.07-.04-.11-.06-.15-.08-.31-.16-.46-.23-.02,0-.03-.01-.05-.02-.14-.06-.28-.11-.42-.15-.04-.01-.08-.02-.12-.04-.15-.04-.3-.08-.45-.11-.03,0-.06,0-.09-.01-.12-.02-.25-.03-.37-.04-.04,0-.08,0-.12,0-.14,0-.28,0-.41,0-.04,0-.08,0-.13.01-.1,0-.21.02-.31.04-.04,0-.09.01-.13.02-.12.03-.24.06-.36.1-.02,0-.03.01-.05.02,6.75,1.18.25,4.66,1.25,4.6.97-.06,2.38.18,1.39,2-.23.43.05,1.01.34,1.5,2.95-2.02,2.99-5.99,1.07-7.34Z"/><path class="cls-89" d="m301.14,367.03l-.28-.12c-1.18,3-3.04,1.9-3.04,1.9.31-.07.74-.88-.05-.98-.79-.09-1.29-.57-1.29-.57-.08.1-.63,1.74-.67,2.03s-.1.69.42,1.13c.23.2.52.32.81.4l.74.19c2.88.34,3.14-2.9,3.37-3.98Z"/></g></g><path class="cls-16" d="m309.77,396.47l-1.1,3.27.05,1.74s.01.1.04.14l.68,1.34c.11.21.37.3.58.19h0c.2-.1.29-.35.19-.56l-.46-1c-.03-.06-.04-.12-.03-.18l.16-1.16.04,1.35.53.97c.1.18.31.25.49.16h0c.19-.09.28-.31.19-.5l-.35-.78.07-1.12.26,1.16.21.37c.09.16.29.23.46.15h0c.18-.09.26-.31.16-.49l-.26-.46.05-1.2.24,1.06.11.31c.07.18.26.28.45.22h0c.15-.05.26-.19.25-.35l-.02-.61v-2.69s-.48-1.36-.48-1.36c0,0-.74-1.28-2.52.03Z"/><path class="cls-13" d="m298.63,373.84s1.49-2.79,5.16-3.18l1.92.89s-3.85.33-7.08,2.29Z"/></g><g><g><rect class="cls-10" x="369.7" y="442.13" width="2.85" height="7.69" rx="1.43" ry="1.43" transform="translate(696.14 926.6) rotate(-174.3)"/><rect class="cls-10" x="369.18" y="443.38" width="2.18" height="5.89" rx="1.09" ry="1.09" transform="translate(630.55 964.55) rotate(-166.99)"/><path class="cls-55" d="m364.72,448.72c1.21-.63,4.2-1.48,4.21-1.49l.73,1.96h2.65v.86h-2.81s-5.39,0-5.39,0v-.32c0-.43.23-.82.6-1.01Z"/><rect class="cls-10" x="386.68" y="441.83" width="2.85" height="7.47" rx="1.43" ry="1.43" transform="translate(915.51 711.99) rotate(157.86)"/><path class="cls-10" d="m371.57,426.01c.44-1.59,2.07-2.57,3.69-2.18,1.62.38,2.64,1.98,2.32,3.6l-5.13,19.36-3.26-.55,2.39-20.22Z"/><path class="cls-10" d="m379.55,432.5c-.46-1.59.42-3.27,2.01-3.79,1.58-.52,3.29.31,3.87,1.86l3.87,14.21-2.53,1.25-7.21-13.53Z"/><path class="cls-55" d="m384.44,448.64c1.22-.85,2.63-1.99,2.64-2l1.42,1.75,2.58-.63.2.84-2.73.66h0s-3.65.89-3.65.89h-1.58s.02-.04.02-.04c-.31-1.26.81-1.27,1.11-1.48Z"/></g><g><g><path class="cls-10" d="m372.11,387.87c.31.72-.13,1.61-1,2.01s-1.83.15-2.18-.55h0s-3.17-8.6-3.17-8.6c-.33-.72-.6-1.25.28-1.65s1.22-.08,1.62.75l4.44,8.04h0Z"/><path class="cls-40" d="m379.22,392.62l-7.04-5.18-4.32,2.25,7.33,7.55c1.21,1.24,3.2,1.24,4.41,0h0c1.29-1.34,1.11-3.51-.39-4.61Z"/><path class="cls-10" d="m367.43,380.04l.87-3.26-.19-2.05.05-1.42s-.84.58-.67,1.7l-.55,1.53-.92.97s.46-1.58-.22-1.81c0,0-.39,1.44-.55,1.79-.12.25,0,1.51.07,2.22.04.33.22.63.5.8.58.34,1.32.81,1.61-.47Z"/></g><g><g><circle class="cls-23" cx="379.82" cy="393.6" r="1.26"/><path class="cls-10" d="m381.13,391.34l-4.19,1.15-1.79-6.36c-.26-.94.46-1.96,1.61-2.28h0c1.15-.33,2.3.17,2.57,1.1l1.8,6.39Z"/><path class="cls-10" d="m375.18,394.17s1.79-4.35,1.79-4.35l2.1.1-2.16,4.66-1.73-.41Z"/><path class="cls-40" d="m372.43,400.29c-.46-.6-.75-1.61-.15-3.02.47-1.11,4.11-6.17,4.24-6.32.02-.02-.71,1.8-.68,1.85,1.12-1.38,3.45-3.43,4.59-3.47,2.74-.11,3.34,8.49,2.45,12.16-.64,2.66-.61,4.32-.61,4.32-3.11,1.89-9.48.5-9.48.5l-.35-6.02Z"/></g><g><path class="cls-10" d="m373.51,386.39c-.01-.28.88-.93.85-1.48s-.14-1.81.5-2.47c.64-.65,3-1.42,3-1.42l.39,4.8-.24,1.51s-1.09,2.26-3.64,1.81c0,0-.41-.24-.2-.97l-.13-1.38s-.53-.13-.54-.4Z"/><path class="cls-63" d="m377.53,384.87l.21.19c.17.13.34.26.51.39.06.04.12.1.12.17,0,.06-.05.11-.09.16l-.36.37c-.05.05-.13.03-.16-.03-.13-.31-.26-.92-.24-1.25Z"/><path class="cls-63" d="m374.52,382.99s-.53-2.79,4.14-2.74,4.68,5.62,3.37,6.96c-.31.32.54,2.3.39,2.71-.45,1.29-1.74,1.23-1.74,1.23,0,0-1.69-2.55-1.57-3.85s-.78-1.47-.78-1.47c0,0-.57.06-.69-.44s-.19-.69-.31-1.69-2.32-1.37-2.32-1.37l-.48.67Z"/><path class="cls-10" d="m378.25,385.82s.69-.87,1.17-.29c.48.58-.3,2.03-1.41,1.8l.24-1.51Z"/><circle class="cls-62" cx="378.23" cy="387.17" r=".2"/><path class="cls-63" d="m381.96,385.72c.74-.01,1.43.47,1.65,1.21.27.9-.24,1.85-1.14,2.12l-.63-2.12c.13-.39.15-.88.12-1.21Z"/><path class="cls-63" d="m380.86,389.84c-.69.27-1.5.06-1.97-.57-.56-.75-.41-1.82.34-2.38l1.33,1.77c.01.41.16.88.3,1.18Z"/><path class="cls-63" d="m382.03,391.88c-.69.27-1.5.06-1.97-.57-.56-.75-.41-1.82.34-2.38l1.33,1.77c.01.41.16.88.3,1.18Z"/><path class="cls-63" d="m381.49,383.8c.74-.01,1.43.47,1.65,1.21.27.9-.24,1.85-1.14,2.12l-.63-2.12c.13-.39.15-.88.12-1.21Z"/><path class="cls-63" d="m380.46,392.96c-.11-.47.07-.94.43-1.22-.04-.08-.07-.16-.1-.25-.1-.42.03-.84.32-1.12-.15-.18-.26-.4-.32-.64-.14-.57.04-1.14.43-1.53-.17-.19-.3-.43-.37-.7-.18-.72.16-1.45.78-1.8.13.29.39.68.69.94l.27,1.12c.49.08.94.39,1.19.87.12.24.17.49.17.73.08.1.16.2.22.32.19.38.22.8.11,1.18.34.24.6.59.71,1.03.2.82-.21,1.64-.94,2-.03.51-.38.95-.9,1.08-.63.15-1.27-.23-1.43-.87-.02-.08-.03-.17-.03-.25-.56.04-1.08-.33-1.22-.9Z"/></g></g><g><g><circle class="cls-23" cx="373.42" cy="414.89" r="2.11"/><circle class="cls-23" cx="381.91" cy="414.89" r="2.11"/></g><g><path class="cls-44" d="m381.87,419.67c-1.92,0-3.57-.97-3.88-2.31-.12-.53-.19-1.1-.19-1.69,0-3.08,1.83-5.58,4.08-5.58,2.25,0,4.08,2.5,4.08,5.58,0,.59-.07,1.16-.19,1.69-.31,1.33-1.97,2.31-3.88,2.31h0Z"/><path class="cls-44" d="m373.57,419.67c-1.92,0-3.57-.97-3.88-2.31-.12-.53-.19-1.1-.19-1.69,0-3.08,1.83-5.58,4.08-5.58s4.08,2.5,4.08,5.58c0,.59-.07,1.16-.19,1.69-.31,1.33-1.97,2.31-3.88,2.31h0Z"/><rect class="cls-44" x="373.45" y="410.1" width="8.46" height="9.57" transform="translate(755.35 829.77) rotate(-180)"/></g><path class="cls-44" d="m378.46,430.37l-.96-14.08c-.17-2.41,1.75-4.46,4.17-4.46h0c2.41,0,4.32,2.04,4.17,4.45l-.92,14.08c-.11,1.7-1.52,3.02-3.23,3.02h0c-1.7,0-3.11-1.32-3.23-3.01Z"/><path class="cls-77" d="m370.51,430.37l-.96-14.08c-.17-2.41,1.75-4.46,4.17-4.46h0c2.41,0,4.32,2.04,4.17,4.45l-.92,14.08c-.11,1.7-1.52,3.02-3.23,3.02h0c-1.7,0-3.11-1.32-3.23-3.01Z"/><path class="cls-40" d="m372.75,406.17h.13l9.3-.13h.13s5.59,6.67,3.62,20.11c-.67,4.56,3.1,9.85,3.25,16.06l-20.21,1.77c-3.9-30.99,3.77-37.81,3.77-37.81Z"/></g><g><path class="cls-10" d="m380.43,404.84c.76-.16,1.55.45,1.77,1.38.22.93-.22,1.83-.98,2.02h0s-9.06,1.37-9.06,1.37c-.77.18-1.34.34-1.56-.61s.16-1.22,1.07-1.44l8.77-2.72h0Z"/><g><rect class="cls-10" x="371.04" y="405.62" width="2.23" height="5.84" rx="1.12" ry="1.12" transform="translate(54.48 860.74) rotate(-102.58)"/><rect class="cls-72" x="363.18" y="408.62" width="5.94" height="3.07" transform="translate(478.17 948.44) rotate(-150)"/><path class="cls-10" d="m369.14,408.01l-2.04.21-1.16.47s-.06.03-.09.06l-.73.8c-.12.13-.11.32.02.44h0c.12.11.31.1.42-.01l.56-.56s.07-.05.12-.06l.82-.18-.9.37-.52.6c-.09.11-.09.27.02.37h0c.11.11.28.11.39,0l.44-.43.77-.23-.72.47-.2.23c-.09.1-.08.25.02.35h0c.11.1.28.09.37-.02l.25-.29.82-.27-.65.43-.18.15c-.1.09-.12.25-.03.36h0c.07.09.19.12.3.08l.41-.17,2.02-.68.21-.08c.86-.34,1.05-1.48.33-2.06-.02-.02-.05-.04-.07-.06-.28-.22-.63-.31-.98-.27Z"/></g></g><path class="cls-40" d="m377.35,397.37l.76,7.71,4.57,2.74.8-10.49c.13-1.73-1.19-3.22-2.92-3.3h0c-1.86-.08-3.37,1.49-3.2,3.34Z"/></g></g><g><path class="cls-16" d="m50.88,393.96c-.08-.75.43-.84,1.18-.97l11.51-2.41h0c1.13-.09,2.12.74,2.24,1.87.11,1.13-.7,2.14-1.82,2.27h0s-11.62.52-11.62.52c-.76.03-1.41-.53-1.48-1.29h0Z"/><g><path class="cls-16" d="m77.4,386.26c-1-.96-2.59-.91-3.52.11l-7.87,8.7h0c-.77.83-.74,2.13.08,2.91.82.79,2.11.77,2.91-.02h0s8.41-8.17,8.41-8.17c.99-.97.98-2.56-.02-3.52h0Z"/><path class="cls-62" d="m71.8,396.04l6.92-3.22c1.37-.44.79-4.5.31-5.86-.48-1.36-4-1.46-5.35-.94l-4.84,4.04,2.96,5.98Z"/></g><g><g><circle class="cls-23" cx="87.25" cy="388.26" r="1.37"/><circle class="cls-23" cx="74.98" cy="388.26" r="1.37"/></g><path class="cls-16" d="m86.98,386.23c1.35-.28,2.67.61,2.92,1.97l2,11.56h0c.21,1.11-.51,2.19-1.62,2.42s-2.2-.48-2.45-1.58h0s-2.74-11.4-2.74-11.4c-.32-1.35.54-2.69,1.9-2.97h0Z"/><path class="cls-62" d="m86.87,398.8l-1.91-9.74c-.33-1.4.57-2.8,1.98-3.09,1.41-.29,2.79.64,3.04,2.06l1.66,9.6-4.76,1.17Z"/><g><circle class="cls-23" cx="77.42" cy="411.03" r="2.26"/><circle class="cls-23" cx="84.49" cy="411.06" r="2.26"/></g><path class="cls-60" d="m77.58,407.13c2.3.02,4.09,2.01,3.86,4.3l-1.24,14.78c-.06,1.51-1.33,2.69-2.84,2.65-1.52-.04-2.71-1.3-2.68-2.81l-1.03-14.66c-.2-2.3,1.63-4.28,3.94-4.25h0Z"/><path class="cls-60" d="m84.47,407.16c2.29-.17,4.24,1.66,4.21,3.96v14.83c.06,1.51-1.1,2.8-2.61,2.88-1.51.08-2.81-1.07-2.91-2.58l-2.26-14.52c-.39-2.28,1.27-4.4,3.57-4.57h0Z"/><g><path class="cls-60" d="m87.79,400.84l.85,8.18c.06.58.06,1.18-.05,1.75-.42,2.11-1.94,4.78-3.76,4.78l-5.89.03v-14.74h8.85Z"/><path class="cls-60" d="m74.5,400.84l-.85,8.18c-.06.58-.06,1.18.05,1.75.42,2.11,1.94,4.78,3.76,4.78l5.89.03v-14.74s-8.85,0-8.85,0Z"/></g><path class="cls-23" d="m83.09,448.6v-.02c.87.16,1.69-.39,1.85-1.26l1.08-5.81c.16-.86-.41-1.69-1.27-1.85h0c-.86-.16-1.69.41-1.85,1.27l-1.08,5.81c-.16.86.41,1.69,1.27,1.85Z"/><path class="cls-23" d="m78.46,448.29v-.02c.88,0,1.59-.69,1.59-1.57v-5.91c0-.88-.71-1.59-1.59-1.59h0c-.88,0-1.59.71-1.59,1.59v5.91c0,.88.71,1.59,1.59,1.59Z"/><g><path class="cls-17" d="m78.41,383.26s.01,0,.02,0c0,0-.01,0-.02,0Z"/><path class="cls-17" d="m78.44,383.26s0,0,0,0c0,0,0,0,0,0Z"/></g><path class="cls-60" d="m83.21,425.77c.21-1.47,1.55-2.52,3.04-2.36s2.58,1.47,2.47,2.95l-2.41,18.88-4.71-.55,1.6-18.92Z"/><path class="cls-60" d="m74.69,426.57c-.03-1.48,1.13-2.73,2.62-2.81s2.78,1.04,2.91,2.51l.66,19.02-4.73.22-1.46-18.94Z"/><path class="cls-62" d="m73.69,386.03c2.2-1.03,5.43-1.79,6.89-2.23h.78c1.46.45,4.69,1.21,6.89,2.23,2.04.95-.25,14.29-.15,17.47,0,0-2.92,1.32-6.74,1.42h0c-.13,0-.25,0-.38,0-.13,0-.25,0-.38,0h0c-3.83-.1-6.74-1.43-6.74-1.43.1-3.18-2.19-16.51-.15-17.47Z"/><path class="cls-29" d="m80.63,382.81l2.87,1.75c1.5.9-2.86,3.08-2.86,3.08,0,0-3.98-1.88-2.84-2.74l2.83-2.09Z"/><path class="cls-29" d="m78.26,386.2l4.73-.04v-7.2c0-1.06-1.06-1.92-2.37-1.92h0c-1.31,0-2.37.86-2.37,1.92v7.24Z"/><path class="cls-59" d="m78.26,383.86v1.57c.95,1.35,2.36,2.24,2.36,2.24l-4.5-2.55s.93-.75,2.14-1.26Z"/><path class="cls-59" d="m82.96,383.86v1.57c-.95,1.35-2.3,2.24-2.3,2.24l4.44-2.55s-.93-.75-2.14-1.26Z"/><g><path class="cls-71" d="m81.27,449.14l.48-2.3h3.32s.58,1.5.58,1.5c.64.45.85,1.15.85,1.81h-.15s-5.08,0-5.08,0v-1.01Z"/><circle class="cls-71" cx="83.4" cy="447.19" r="1.45"/></g><g><path class="cls-71" d="m80.55,449.13l-.48-2.3h-3.32s-.58,1.5-.58,1.5c-.64.45-.85,1.15-.85,1.81h5.23v-1.01Z"/><circle class="cls-71" cx="78.42" cy="447.18" r="1.45"/></g><path class="cls-29" d="m83.7,377.85c-.16-.05-.33,0-.5.12,0,.93-.08,1.89-.21,2.69.87.19,1.15-1.16,1.24-1.82.09-.65-.03-.82-.53-.99Z"/><path class="cls-29" d="m77.47,374.85c.15-.22,1.1-1.56,2.66-1.58h0s0,0,0,0,0,0,0,0h0c1.56.02,2.51,1.37,2.66,1.58,1,1.46.67,5.12.12,6.57-.3.79-3.3,2.91-4.72,2.13-.57-.31-.6-.78-.83-1.59-.54-1.83-.66-2.08-.24-3.2.08-.21-.29-.39-.3-.6-.04-1.51.12-2.55.64-3.31Z"/><path class="cls-48" d="m76.84,377.57s-.37-1.61.37-2.11c0,0-.53-1.38,1.04-1.95s4.66-.53,5.79,2.73c0,0,.26,1-.09,1.8,0,0-1.11.13-1.15.97h-.23s-.1-1.3-.6-1.46.13-.96-.42-1.51c-.18-.18-.75-.88-1.78-.37s-1.65.45-2.3-.05c0,0-.62,1.06-.63,1.96Z"/><g><path class="cls-48" d="m77.95,381.08c.66-.65,1.45-.66,2.29-.27.19.14.28.49.39.73,0,.17-.31-.11-.4-.11-.1-.02-.3-.21-.27-.15-.08,0-.33.02-.54.09-.48.2-1.01.14-1.47-.19-.03-.02-.03-.06,0-.09h0Z"/><path class="cls-48" d="m79.05,381.09c-.2.2-.39.26-.56.3-.29.1-.61-.15-.86-.14-.02-.02-.24-.04-.3.11,0,.04-.06.06-.08.03-.34-.55.39-.8.81-.85.39-.13.73.08,1,.48.02.02.01.05,0,.07h0Z"/></g></g><g><path class="cls-23" d="m81.69,394.68l2.94.04c.28,0,.49.24.47.52l-.48,6.06s0,0,0,0c0,0,0,0,0,.01h0c-.04.33-.74.57-1.58.53s-1.52-.33-1.53-.66h0s0-.02,0-.02h0s-.3-5.99-.3-5.99c-.01-.28.21-.51.49-.5Z"/><path class="cls-16" d="m86.18,401.62l.29-1.61-.92-1.93-1.29-.39-.56.19c-.23.08-.35.32-.27.55h0c.06.19.24.31.43.3l.83-.05.11.31-1.79.44c-.21.05-.35.24-.33.45h0c.01.23.2.41.42.41l.8.03-1.42.19c-.2.03-.34.2-.34.4h0c0,.21.17.37.38.38l1.42.03-1.01.14c-.2.03-.35.21-.33.42h0c.02.19.18.34.37.35.39.01,1.03.02,1.34-.06,0,0,1.03.79,1.68.44s.17-.98.17-.98Z"/><path class="cls-16" d="m85.7,400.22s5.02-2.02,6.11-1.25c0,0,.95,2.62-.44,3.53,0,0-4.83,1.11-6.22.12s.55-2.4.55-2.4Z"/></g><g><rect class="cls-33" x="55.76" y="439.62" width="2.71" height="8.98"/><path class="cls-57" d="m54.98,448.42l.56-1.47v-1.11c0-.9.73-1.62,1.62-1.62h0c.9,0,1.62.73,1.62,1.62v1.11s0,0,0,0l.47,2.25v.98s-4.97,0-4.97,0h-.15c0-.64.21-1.32.83-1.77Z"/><rect class="cls-33" x="63.62" y="439.62" width="2.71" height="8.98" transform="translate(129.95 888.22) rotate(-180)"/><path class="cls-57" d="m67.11,448.42l-.56-1.47v-1.11c0-.9-.73-1.62-1.62-1.62h0c-.9,0-1.62.73-1.62,1.62v1.11s0,0,0,0l-.47,2.25v.98s4.97,0,4.97,0h.15c0-.64-.21-1.32-.83-1.77Z"/><path class="cls-33" d="m68.21,388.87c1.56.03,2.42,1.29,2.35,2.85l-.28,10.8h0c-.05,1.27-1.11,2.27-2.38,2.25s-2.07-1.2-2.07-2.47l-.36-10.65c-.01-1.56,1.26-2.81,2.82-2.78h-.07Z"/><path class="cls-33" d="m69.74,414.28l.47-11.27s.43-3.14-2.3-2.98c-2.29.13-2.11,2.55-2.11,2.55l1.56,12.14,2.39-.44Z"/><path class="cls-84" d="m59.52,414.36c-.37-2.17,1.15-4.21,3.33-4.49h0c2.17-.28,4.14,1.3,4.35,3.48l1.17,13.59c.21,1.8-1.08,3.45-2.88,3.68-1.81.23-3.46-1.04-3.71-2.84l-2.25-13.43Z"/><path class="cls-84" d="m61.7,427.91c.06-1.78,1.53-3.21,3.33-3.21s3.27,1.43,3.33,3.21l-.45,18.47-5.7-.05-.52-18.42Z"/><path class="cls-84" d="m60.48,414.39c.25-2.19-1.38-4.14-3.57-4.3h0c-2.19-.16-4.07,1.53-4.15,3.72l-.43,13.63c-.11,1.81,1.26,3.38,3.08,3.51,1.82.13,3.4-1.22,3.55-3.03l1.52-13.53Z"/><path class="cls-84" d="m59.02,427.8c-.2-1.77-1.77-3.08-3.56-2.94-1.79.14-3.15,1.67-3.08,3.45l1.85,18.38,5.68-.48-.89-18.41Z"/><g><path class="cls-84" d="m53.46,403.9l-.83,7.92c-.06.56-.06,1.14.05,1.69.4,2.04,1.88,4.63,3.65,4.63l5.71.03v-14.27h-8.59Z"/><path class="cls-84" d="m66.35,403.9l.83,7.92c.06.56.06,1.14-.05,1.69-.4,2.04-1.88,4.63-3.65,4.63l-5.71.03v-14.27h8.59Z"/></g><path class="cls-59" d="m61.92,388.83l-2.54-2.97-5.09,2.07c-.94.49-1.19,1.56-1.15,2.62.23,5.12-1.08,19.47-.64,22.61l2.13.59c4.69,1.55,7.91,1.7,12.59.12,0,0,2.41-18.01,2.64-23.1.05-1.05.34-1.36-.59-1.86l-4.87-3.28-2.49,3.19Z"/><path class="cls-33" d="m55.29,389.11c-1.5-.41-2.69.56-3.05,2.08l-2.74,10.45h0c-.31,1.24.43,2.49,1.66,2.83s2.32-.58,2.68-1.8l3.32-10.12c.45-1.49-.43-3.06-1.93-3.46l.06.03Z"/><path class="cls-59" d="m55.18,399.93l3.5-7.6c.69-1.76-.18-3.75-1.95-4.43h0c-1.79-.69-3.8.23-4.44,2.03l-2.57,8.21c.64.32,4.3,1.48,5.47,1.79Z"/><path class="cls-59" d="m70.51,400.24l.65-8.34c0-.11,0-.23,0-.34-.21-2.86-3.78-3.97-5.72-1.85-.62.68-1.11,1.44-1.1,2.16l.43,8.59c.71.08,4.55-.1,5.75-.22Z"/><path class="cls-33" d="m53.87,414.23l.02-11.27s.31-3.15-2.42-2.89c-2.29.22-2,2.63-2,2.63l2.04,12.06,2.37-.53Z"/><g><line class="cls-7" x1="52.21" y1="416.85" x2="50.98" y2="447.96"/><path class="cls-55" d="m55.44,415.49l-3.87-.62-.17-1.28s-.41.03-.47.7-.55,2.88.73,3.32l3.79.24v-2.36"/><g><polygon class="cls-55" points="52 450.1 49.82 450.05 50.24 447.57 51.71 447.61 52 450.1"/><rect class="cls-55" x="49.59" y="449.44" width="2.55" height=".69"/></g><rect class="cls-55" x="54.88" y="415.49" width="1.12" height="2.36" rx=".56" ry=".56"/></g><g><line class="cls-7" x1="69.76" y1="416.85" x2="70.99" y2="447.96"/><path class="cls-55" d="m70.4,414.87l-1.64.33-.35.13.35,2.22,1.55.05c1.28-.44.09-2.74.09-2.74Z"/><g><polygon class="cls-55" points="69.97 450.1 72.15 450.05 71.73 447.57 70.26 447.61 69.97 450.1"/><rect class="cls-55" x="69.82" y="449.44" width="2.55" height=".69" transform="translate(142.2 899.56) rotate(-180)"/></g><rect class="cls-55" x="67.75" y="415.33" width="1.12" height="2.36" rx=".56" ry=".56" transform="translate(189.93 820.69) rotate(172.57)"/></g><path class="cls-33" d="m51.54,413.88l-.56,2.2.08,1.69,2.37.93,1.44-.45.2-.51s-1.18.11-1.24-.73.79-1.61,1.52-1.44l.22-.06-.19-.59-2.17-1.47h0c-.51-.45-1.31-.3-1.61.32l-.05.11Z"/><path class="cls-33" d="m67.77,416.16v1.05s-.32.51-.71.27-.27-2.38-.27-2.38l.91-1.22,1.86-.02,1.18,1.21c.27.27.41.64.41,1.03v.92s-1.17,1.2-1.17,1.2l-1.2.07s-.76-.44-.81-.81l.84-.07c.23-.02.42-.2.44-.43.03-.3.05-.72-.03-1.02-.15-.54-.96-.64-1.2-.49s-.24.69-.24.69Z"/><g><path class="cls-55" d="m51.46,402.28c-.59.05-1.25.18-1.99.41,0,0,0,0,0,0l.37,2.2c.4-.16,1.04-.37,1.8-.47l-.18-2.15Z"/><path class="cls-55" d="m53.9,402.48c-.21-.06-.48-.13-.81-.17l.17,2.11c.21.03.42.07.63.12v-1.58s.02-.19,0-.48Z"/></g><path class="cls-55" d="m68.93,402.82v2.1s1.19,0,1.19,0l.08-1.9s0-.08.02-.2h-1.29Z"/><g><path class="cls-33" d="m62.22,388.85h-.58c-1.07,0-1.93-2.09-1.93-2.39v-2.14h4.44v2.14c0,.27-.86,2.39-1.93,2.39Z"/><path class="cls-33" d="m63.92,386.29l-4.15.09-.57-5.7c-.03-.88,1.28-1.9,2.43-1.93h0c1.15-.03,2.1.65,2.12,1.53l.17,6.01Z"/><path class="cls-33" d="m58.93,380.21c.36-.02.72.55.78.57,0,.7-.07,1.22-.05,1.32-.26.17-.49.68-.85-.12-.22-.5-.61-1.72.12-1.77Z"/><g><path class="cls-78" d="m59.7,384.99s-2.42.89-2.1,3.02l1.82-1.04s.58,1.06,1.7,1.75c1.11.69.67-.14.67-.14,0,0-2.16-1.79-2.09-3.6Z"/><path class="cls-78" d="m64.15,385.02s1.82.71,2.1,2.98l-1.82-1.04s-.58,1.06-1.7,1.75c-1.11.69-.67-.14-.67-.14,0,0,2.16-1.75,2.09-3.56Z"/><path class="cls-33" d="m65.53,380.7c0-.47-.06-.94-.17-1.4-.38-1.56-1.43-2.63-3.01-2.78-1.49-.15-3.02.24-3.72,1.72-.69,1.45-.07,3.39,1.33,4.18.05.62.43,1.18.9,1.59s1.04.69,1.6.96c.56.27,1.2.55,1.78.33.73-.29.95-1.2,1.06-1.98.13-.86.25-1.74.24-2.61Z"/><path class="cls-61" d="m62.19,375.64c-.57.02-1.1.18-1.55.46-.76.23-1.49.64-1.95,1.29-.89,1.26-.21,3.24-.21,3.24.23.15.41-.74,1.43.25.02.02.35-.02.35-.05.03-.32.07-1.14-.09-1.64-.35-1.13.46-1.88.46-1.88l.21.13c.16.1.36.11.53.03.34-.16.95-.4,1.58-.45.56,0,1.03.28,1.37.44.01.01.02.02.04.03.39.34.72.76.83,1.14.08-1.93-1.34-3.05-3-3Z"/><path class="cls-78" d="m61.97,389.02c-.39,0-.61-.18-.63-.19l.18-.42s.41.31.84-.02l.21.42c-.18.11-.42.21-.61.21Z"/></g></g></g></g><g><path class="cls-8" d="m270.97,358.99c.02,1.49-1.17,1.5-1.15,2.99s1.21,1.47,1.23,2.96-1.17,1.51-1.15,2.99c.02,1.49,1.21,1.47,1.23,2.96s-1.17,1.51-1.15,3"/><path class="cls-8" d="m270.97,357.98c-.02,1.04.82,1.06.8,2.1-.02,1.04-.85,1.03-.87,2.07s.82,1.06.8,2.1-.85,1.03-.87,2.08.82,1.06.8,2.1"/><line class="cls-8" x1="272.59" y1="294.15" x2="270.96" y2="354.68"/><polyline class="cls-8" points="263.18 303.04 270.73 353.99 270.73 357.98 270.73 353.99 261.7 323.07"/><g><polygon class="cls-62" points="261.58 322.47 262.67 323.88 261.23 324.21 261.58 322.47"/><path class="cls-62" d="m250.89,313.67c1.11,4.35,6.45,10.51,10.81,9.4,4.35-1.11,6.08-9.08,4.96-13.44-1.11-4.35-5.55-6.98-9.9-5.87s-6.98,5.55-5.87,9.9Z"/></g><polyline class="cls-8" points="279.42 310.36 270.96 354.68 270.96 359.3"/><g><polygon class="cls-18" points="272.67 293.55 273.28 295.22 271.81 295.1 272.67 293.55"/><path class="cls-18" d="m265.1,281.94c-.24,4.49,3.01,11.97,7.49,12.21,4.49.24,8.52-6.85,8.76-11.33.24-4.49-3.2-8.32-7.69-8.56s-8.32,3.2-8.56,7.69Z"/></g><g><polygon class="cls-40" points="279.53 309.76 280.03 311.47 278.57 311.25 279.53 309.76"/><path class="cls-40" d="m272.8,297.65c-.56,4.46,2.16,12.15,6.62,12.7,4.46.56,8.98-6.23,9.53-10.69.56-4.46-2.61-8.53-7.07-9.08-4.46-.56-8.53,2.61-9.08,7.07Z"/></g><g><polygon class="cls-82" points="263.11 302.44 264.09 303.92 262.64 304.16 263.11 302.44"/><path class="cls-82" d="m253.04,292.93c.82,4.42,5.72,10.93,10.14,10.11,4.42-.82,6.68-8.65,5.86-13.07s-5.06-7.34-9.48-6.53c-4.42.82-7.34,5.06-6.53,9.48Z"/><path class="cls-71" d="m260.59,305.9c.1,4.49,3.92,11.7,8.41,11.59,4.49-.1,7.97-7.48,7.86-11.97-.1-4.49-3.83-8.05-8.33-7.95-4.49.1-8.05,3.83-7.95,8.33Z"/></g><line class="cls-8" x1="269" y1="317.49" x2="270.96" y2="356.48"/><polygon class="cls-71" points="269.02 316.89 269.76 318.5 268.28 318.5 269.02 316.89"/><path class="cls-9" d="m268.23,359.58s.53-.82.62-1.18c.03-.13.1-.33.18-.54.19-.51.5-.96.88-1.34.61-.61,1.51-1.55,1.6-1.89,0,0,.35.25.16.85,0,0,.84-.11.83.42,0,0-.25.43-.3.47s.55.16.53.48-.38.43-.38.43c0,0,.26.36.09.73,0,0,.23.67-.15,1.15s-2.27.94-2.75.88-1.32-.46-1.32-.46Z"/></g><g><g><rect class="cls-34" x="172.04" y="408.24" width="2.66" height="6.98" rx="1.33" ry="1.33" transform="translate(-179.57 137.84) rotate(-29.35)"/><path class="cls-74" d="m172.77,389.17c-1.32-.47-2.77.25-3.2,1.58l-3.44,10.87h0c-.36,1.09.21,2.27,1.3,2.65s2.27-.17,2.68-1.25h0s4.16-10.61,4.16-10.61c.5-1.31-.17-2.77-1.49-3.24h0Z"/><path class="cls-74" d="m169.95,401.75c-.58-.99-1.84-1.34-2.85-.78s-1.37,1.82-.83,2.83h0s5.17,9.27,5.17,9.27c.57,1.02,1.85,1.38,2.87.82,1.02-.57,1.38-1.85.82-2.87l-5.17-9.27h0Z"/></g><rect class="cls-34" x="170.66" y="439.99" width="3.42" height="8.97" rx="1.71" ry="1.71"/><g><path class="cls-57" d="m170.44,446.69c-.24.78-.6,2.25-.25,3.19h6.93s.64-.34.43-1.19l-2.55-1.37-1.14-1.56s-.66.54-.4,1.14h0c-.8.1-1.62-.05-2.33-.42l-.05-.03c-.24-.15-.55-.03-.63.24Z"/><path class="cls-62" d="m173.07,449.06c-.62-.74-2.48-.86-2.96-.87-.05.36-.07.73-.04,1.07,0,.06.01.13.02.19,0,0,0,0,0,.01,0,0,0,0,0,0,.02.15.05.29.1.42h6.93s.31-.16.42-.55c-1.7-.09-2.67-.18-4.47-.28Z"/><rect class="cls-57" x="170.44" y="448.89" width="2.14" height=".49" rx=".21" ry=".21"/></g><path class="cls-40" d="m178.08,427.71l2.44-14.85c.23-2.53-3.11-4.65-5.49-4.71h0c-2.38-.06-5.06,2.02-4.96,4.55l1.28,14.83c.07,1.79,1.42,3.21,3.1,3.25h0c1.68.04,3.47-1.3,3.63-3.08Z"/><path class="cls-40" d="m178.02,427.95c.25-1.8-1.25-3.54-2.94-3.83-1.69-.3-3.33.89-3.7,2.67l-1.71,17.26,5.18.06,3.17-16.16Z"/><rect class="cls-34" x="176.66" y="439.99" width="3.42" height="8.97" rx="1.71" ry="1.71"/><g><path class="cls-57" d="m176.45,446.69c-.24.78-.6,2.25-.25,3.19h6.93s.64-.34.43-1.19l-2.55-1.37-1.14-1.56s-.66.54-.4,1.14h0c-.8.1-1.62-.05-2.33-.42l-.05-.03c-.24-.15-.55-.03-.63.24Z"/><path class="cls-58" d="m179.07,449.06c-.62-.74-2.48-.86-2.96-.87-.05.36-.07.73-.04,1.07,0,.06.01.13.02.19,0,0,0,0,0,.01,0,0,0,0,0,0,.02.15.05.29.1.42h6.93s.31-.16.42-.55c-1.7-.09-2.67-.18-4.47-.28Z"/><rect class="cls-57" x="176.44" y="448.89" width="2.14" height=".49" rx=".21" ry=".21"/></g><path class="cls-40" d="m184.08,427.71l2.44-14.85c.23-2.53-3.11-4.65-5.49-4.71h0c-2.38-.06-5.06,2.02-4.96,4.55l1.28,14.83c.07,1.79,1.42,3.21,3.1,3.25h0c1.68.04,3.47-1.3,3.63-3.08Z"/><path class="cls-40" d="m184.02,427.95c.25-1.8-1.25-3.54-2.94-3.83-1.69-.3-3.33.89-3.7,2.67l-1.71,17.26,5.18.06,3.17-16.16Z"/><g><circle class="cls-23" cx="182.86" cy="412.35" r="2.22"/><circle class="cls-23" cx="173.94" cy="412.35" r="2.22"/></g><g><circle class="cls-23" cx="171.61" cy="391.37" r="1.31"/><circle class="cls-23" cx="181.05" cy="391.37" r="1.31"/></g><path class="cls-34" d="m179.27,388.57l-4.08-.04v-6.97c0-1.03.91-1.86,2.04-1.86h0c1.13,0,2.04.83,2.04,1.86v7.01Z"/><path class="cls-34" d="m176.98,385.29l-4.35,2.67c-1.93,1.32-1.71,4.18.1,5.67l4.89,4.03,4.13-4.01c1.6-1.55,1.48-4.25-.36-5.5l-4.41-2.86Z"/><g><path class="cls-40" d="m174.14,417.38c1.89,0,3.52-1.02,3.83-2.42.12-.56.19-1.16.19-1.78,0-3.24-1.8-5.86-4.02-5.86s-4.02,2.62-4.02,5.86c0,.62.07,1.22.19,1.78.31,1.4,1.94,2.42,3.83,2.42h0Z"/><path class="cls-40" d="m182.33,417.38c1.89,0,3.52-1.02,3.83-2.42.12-.56.19-1.16.19-1.78,0-3.24-1.8-5.86-4.02-5.86s-4.02,2.62-4.02,5.86c0,.62.07,1.22.19,1.78.31,1.4,1.94,2.42,3.83,2.42h0Z"/><rect class="cls-40" x="174.11" y="407.32" width="8.34" height="10.06"/></g><path class="cls-71" d="m185.64,395.57c-.55-2.27-1.53-4.43-3-6.24-.88-1.09-1.82-1.94-2.69-2.14h.01s-6.48.16-6.48.16c-1.63.47-3.49,1.24-4.02,2.43-1.13,2.54.5,24.77.5,24.77,7.04,3.27,16.48.19,16.48.19,0,0,.56-13.5-.81-19.16Z"/><path class="cls-74" d="m169.82,412.33c.09,1.37.15,2.21.15,2.21,7.04,3.27,16.48.19,16.48.19,0,0,.04-.96.07-2.47-3.45.82-10.46,1.99-16.7.07Z"/><g><path class="cls-34" d="m194.92,384.15l.27-2.18.53-1.23s.04-.07.07-.09l.87-.77c.14-.12.35-.11.47.03h0c.11.13.1.33-.02.45l-.61.58s-.06.08-.07.12l-.22.88.42-.96.66-.54c.12-.1.29-.09.4.02h0c.11.12.11.3,0,.41l-.47.46-.27.82.52-.76.25-.21c.11-.09.27-.08.37.03h0c.11.12.09.3-.03.4l-.32.26-.31.87.47-.69.17-.19c.1-.11.27-.12.38-.03h0c.1.08.13.21.08.32l-.19.43-.78,2.15-.09.22c-.38.91-1.61,1.09-2.22.31-.02-.03-.04-.05-.06-.08-.23-.3-.32-.68-.27-1.06Z"/><path class="cls-71" d="m176.58,392.51c-.15,1.39,1.94,5.93,3.34,6.04,0,0,11.38-2,12.06-2.92,1.59-2.16-.17-3.61-1.31-3.76h0s-10.58-3.26-10.58-3.26c-1.39-.18-3.37,2.5-3.51,3.9h0Z"/><path class="cls-74" d="m177.56,392.4c-1.04.98-4.53,2.24-6.54-.38-.94-1.22-.9-3.06-.58-4.67-.55,1.83-1.04,4.53.21,6.15,2.02,2.62,5.51,1.36,6.54.38,1.04-.98,3.48-4.94,3.48-4.94-.92,1.07-2.41,2.8-3.11,3.46Z"/><path class="cls-71" d="m187.1,391.83c-.55,1.01.26,3.75,1.26,4.32,1,.57,3.03.46,3.62-.53l5.31-8.53c.58-1.01.22-2.3-.79-2.88s-2.3-.22-2.88.79l-6.52,6.82Z"/></g><path class="cls-34" d="m179.85,380.83c-.11-.12-.38-.78-.46-.91-.53-.97-2.24-2.87-5.06-1.25-1.75,1-2.55,2.79-1.34,4.82.84,1.4,2.31,1.67,3.76,2.59,1.36.46,3.67.06,4.02-1.13.13-.45-.18-1.14-.16-1.6.04-.92.13-1.57-.76-2.51Z"/><path class="cls-55" d="m174.94,377.18c-2.98,1.04-3.12,3.63-3.17,4.04-.36,3.18,1.22,6.92,1.63,6.85,3.94-.6,7.61-.19,3.71-5.78-.34-.48,1.34.78.48-1.3,1.79-.45,1.97-1.14,1.97-1.14-.87-1.95-2.88-3.27-4.63-2.66Z"/><path class="cls-34" d="m178.44,382c.34.46.6,1.02.24,1.31-.7.56-1.62-.51-1.87-1.05s-.37-.69,0-.99,1.29.26,1.63.72Z"/><path class="cls-71" d="m181.43,388.04l-1.69-2.51s-6.82-2.13-8.23-1.58c0,0-2.51,5.45-.49,8.07,2.02,2.62,5.51,1.36,6.54.38s3.87-4.36,3.87-4.36Z"/></g><g><path class="cls-35" d="m240.48,405.22c-.53-.68-1.7-.98-2.53-.74l-3.48.75c-2.06.64-2.07,3.28-.9,5.09l3.17,4.9,4.73-2.42c1.83-.94,2.35-3.31,1.08-4.92l-2.08-2.65Z"/><g><path class="cls-35" d="m239.64,399.45h0c1.24,0,2.24,1,2.24,2.24v5.98h-4.48v-5.98c0-1.24,1-2.24,2.24-2.24Z" transform="translate(53.65 -27.37) rotate(7.36)"/><g><path class="cls-35" d="m242.81,398.38c-.14-.2-.96-.81-2.56-.88l-.49.05c-3.31.36-2.62,3.87-1.92,5.82.26.73,3,3.48,4.55,3.06.52-.14.49-.92.85-1.62.59-1.14.61-1.93.21-2.95-.07-.18.39-.7.26-1.09-.02-.06-.03-.12-.04-.17-.05-.32-.45-1.66-.86-2.22Z"/><path class="cls-80" d="m237.15,400.86c-.09-.02-.17-.02-.25,0,.02-1.88.67-3.36,2.79-3.59l.49-.05c1.59.07,2.7.81,2.84,1.01.02.02.03.05.04.08.06.14-.07.28-.21.24-2.81-.72-3.61.08-3.61.08-1.18.66-.33,1.36-.73,1.62-.62.41-.22,1.53-.18,2.08.01.16-.27.09-.4.06-.01-.28-.51-1.48-.8-1.53Z"/><path class="cls-35" d="m237.15,400.86c.08.02.16.05.24.1.34.21.55.6.55,1,0,.56.02.91.16,1.53-1.02.24-1.37-1.12-1.5-1.78-.13-.66.12-.93.55-.85Z"/></g></g><path class="cls-35" d="m238.36,450.17v-.02c-.88.05-1.63-.61-1.68-1.49l-.32-5.94c-.05-.88.63-1.63,1.51-1.68h0c.88-.05,1.63.63,1.68,1.51l.32,5.94c.05.88-.63,1.63-1.51,1.68Z"/><path class="cls-55" d="m236.64,448.36v2.48h7.03s.51-1.92-1.63-1.81l-1.01-.53-.53-1.41s-2.1-.75-2.58.51c0,0-1.28-.24-1.28.77Z"/><path class="cls-40" d="m248.35,430.08s-9.29,0-11.93-.68c-2.64-.68-3.41-2.85-2.73-4,.68-1.15,3.09-3.33,3.09-3.33l11.73.27s5.28.28,4.98,5.37l-5.15,2.37Z"/><path class="cls-40" d="m243.05,427.82c.34-1.99-.96-3.91-2.95-4.33s-3.96.83-4.44,2.79l-.18,21.01,5.45-1.32,2.12-18.15Z"/><path class="cls-40" d="m237.49,430.09s-7.66.75-10.29.07-3.41-4.07-2.73-5.22c.68-1.15,3.09-3.33,3.09-3.33l11.73.27s5.28.28,4.98,5.37l-6.78,2.83Z"/><path class="cls-74" d="m244.31,410.84c.18-1.48-2.05-3.62-2.66-4.14-.02-.02.25,3.64-1.33,2.07l-3.91-4.03c-1.73-.04-4.69.52-4.87.78-6.74,9.86-7.73,20.77-7.73,20.77,7.08-4.91,16.47-3.75,16.47-3.75,0,0,2.54.35,4.02-11.69Z"/><path class="cls-74" d="m251.16,423.66c.64-.12.5-2.61-2.26-5.08-.67-.6-2.83-8.89-3.75-9.42-1.8-1.05-2.72,6.54-2.49,6.99l2.76,5.73,1.64,1.98c.37.5,4.33.37,4.09-.2Z"/><g><path class="cls-35" d="m249.15,449v-.02c-.81,0-1.46-.6-1.46-1.37v-5.13c0-.76.65-1.38,1.46-1.38h0c.81,0,1.46.62,1.46,1.38v5.13c0,.76-.65,1.38-1.46,1.38Z"/><path class="cls-40" d="m253.55,427.72c.34-1.99-.96-3.91-2.95-4.33s-3.96.83-4.44,2.79l-.14,19.06,6.52-.63,1.01-16.88Z"/><path class="cls-35" d="m250.68,449.09h0c-.39.1-.78-.13-.89-.51l-.7-2.61c-.1-.39.13-.79.51-.89h0c.39-.1.79.13.89.51l.7,2.61c.1.39-.13.79-.51.89Z"/><g><path class="cls-55" d="m246.49,448.8l5.7,2.13,1.69-.15c.19-.02.39-.19.48-.43,0,0,0-.01,0-.02.11-.31-.02-.62-.25-.68-.59-.15-1.97-.71-2.78-2.73,0,0-.72.51-.43,1.4l-3.3-2.55s-1.38,2.37-1.12,3.03Z"/><path class="cls-55" d="m253.88,450.78c.19-.02.39-.19.48-.43,0,0,0-.01,0-.02.02-.06.03-.11.03-.16l-2.19.05-5.67-2.12c-.08.29-.11.54-.05.7l5.7,2.13,1.69-.15Z"/></g></g><path class="cls-35" d="m249.11,423.93l-1.68,1.82s-.61,2.06-.82,2.24c0,0-.03.57.42.18s1.07-1.46,1.07-1.46c0,0,.24,1.91-.24,2.6,0,0-.27.91.21.89s.75-1.39.75-1.39c0,0-.71,1.95-.49,2.02s1.14-1.12,1.14-1.12c0,0-.21.52.12.5s1.28-1.42,1.28-1.42c0,0,.42-1.4.33-2.12s.01-2.71.01-2.71c0,0-1.44-1.16-2.1,0Z"/><path class="cls-35" d="m248.75,424.95l-1.13-.99s.41-2.56,2.17-1.98,1.46,2.5,1.46,2.5l-2.5.47Z"/><path class="cls-74" d="m232.12,408.05c-1.71.85-2.4,2.93-1.52,4.63l4.47,8.47h0c.78,1.51,2.63,2.12,4.17,1.36,1.53-.76,2.17-2.6,1.44-4.14h0s-3.96-8.71-3.96-8.71c-.81-1.73-2.89-2.46-4.61-1.61h0Z"/><g><path class="cls-71" d="m240.89,409.18s.43-1.17.76-2.49c0,0,1.17,2.26-.76,2.49Z"/><path class="cls-42" d="m240.96,413.04l1.69-3.37s-.99-1.25-.84-2.02.02-1.47-.16-2.02,1.03-.51,1,1.54l.96-.99v-1.17s.7-.04.81.29.17.62.17.62l.45-.37s.37.48.37.77l.18.66s.26-.07.37.11,0,.59,0,.59c0,0,.65.22.47.55s-.83,1.76-1.2,2.02-1.98,5.53-2.31,6.16-1.94-3.37-1.94-3.37Z"/><path class="cls-74" d="m243.85,410.78c-1.18-.7-2.67-.43-3.39.62l-4.95,7.23h0c-.78,1.38-.25,3.19,1.22,4.06s3.31.49,4.15-.85h0s4.02-7.79,4.02-7.79c.59-1.14.12-2.58-1.06-3.28h0Z"/><path class="cls-71" d="m236.41,404.73s-.17-1.03.28-1.48c0,0,3.8,3.71,4.21,5.92,0,0-2.31-1.14-4.49-4.44Z"/></g></g><g><g><g><path class="cls-54" d="m220.55,408.58s-7.04,2.08-11.11-.54l3.03-1.6,4.04.32,4.04,1.81Z"/><path class="cls-54" d="m215.89,410.46l-3.89-.7,1.24-7.31c.18-1.08,1.2-1.8,2.28-1.62h0c1.08.18,1.8,1.2,1.62,2.28l-1.24,7.35Z"/><path class="cls-46" d="m219.87,418.55s-1.8-4.8-2.21-7.73c-.2-1.45,1.64-3.7,3.47-1.8,1.84,1.9,2.46,9.99,2.46,9.99,0,0-.78.65-1.78.9-.9.23-1.28-.25-1.94-1.36Z"/><path class="cls-27" d="m222.91,424.98l-8.61-4.64,5.18-.87,1.57.52c1.05,1.5,1.64,3.15,1.86,4.99Z"/><path class="cls-62" d="m216.73,419.67l2.67,4.77-9.3,6.14c-2.37-1.02-.54-9.13.28-10.17l6.35-.74Z"/><path class="cls-54" d="m224.12,419.33s-1.62,1.33-3.1.67l-.39-1.94,2.83-.1.67,1.37Z"/><path class="cls-22" d="m209.32,408.5c3.34.75,7.87.44,10.01.23.47.54.89,1.12,1.13,1.71,2.07,5.04.55,9.57.55,9.57,0,0-3.53,2.18-10.62.41,0,0-4.23-7.19-1.07-11.91Z"/><path class="cls-22" d="m219.65,408.17l-2.3,1.03c-1.16,3.16.26,4.61.26,4.61,2.04.64,5.1-.91,5.1-.91-.24-4.14-3.06-4.73-3.06-4.73Z"/><path class="cls-54" d="m207.79,418.29s-.7-4.37-.5-7.33c.1-1.46,2.27-3.97,3.68-1.74,1.41,2.23.37,10.28.37,10.28,0,0-.9.48-1.92.52-.92.04-1.21-.5-1.63-1.73Z"/><path class="cls-54" d="m218.57,417.2s-6.72,3.19-8.28,3.19-3.24-1.51-1.41-2.61c2.39-1.43,9.02-2.4,9.02-2.4,0,0,2.65,1.09.66,1.81Z"/><line class="cls-5" x1="216.02" y1="411.44" x2="219.39" y2="415.12"/><path class="cls-54" d="m220.42,413.84s-.28-.59-1.96-.27c0,0-.57.03-.73.49s-.48,1.88-2.51,2.15c0,0-.87,1.28,0,1.98,0,0,1.12.18,2.05-.4l3.14-3.96Z"/><polygon class="cls-23" points="216.15 419.22 221.51 412.47 228.84 411.07 223.06 418.01 216.15 419.22"/><path class="cls-54" d="m222.9,418.41s.16.96.9,1.01c.74.04,2.04-2.1,2.04-2.1,0,0,.04-1.52-.65-1.68s-1.48,0-1.48,0c0,0-.14.53.96.72l-.07.34s-2.15-.36-2.42.2c0,0-.09.15.05.25,0,0-.35.08-.2.36,0,0-.12.2.26.31s1.1.39,1.1.39l-.48.22Z"/><path class="cls-22" d="m209.67,407.82l2.35,1.07c1.16,3.16-.03,6-.03,6-2.04.64-4.63-.33-4.63-.33-1.43-4.87,2.32-6.73,2.32-6.73Z"/></g><g><g><path class="cls-56" d="m219.25,402.42s.74-3.95-3.27-5.05c-.83-.23-1.72-.11-2.48.29-1.31.69-3.02,3.24-2.04,7.57,0,0,.54.23,1.64.19l-.1-1.74s3.8-2.37,6.25-1.25Z"/><path class="cls-54" d="m213.32,402.4l-.04,1.85s-1-.51-.92-2c.08-1.49.95.15.95.15Z"/><path class="cls-54" d="m213.19,402.85c.15-1.74,1.75-3.41,3.46-3.23,1.47.16,2.5,1.05,1.96,3.2-.07.26.13.6.1,1.09-.04.56-.46.85-.75,1.51-.62,1.42-.82,1.29-1.47,1.19-1.5-.22-3.49-1.72-3.31-3.77Z"/><path class="cls-4" d="m217.66,402.43s-.12.45.02.76c.06.12.13.24.22.33.09.09.2.14.31.18.11.04.23.05.34.05.11,0,.23-.02.34-.06.11-.04.22-.1.31-.19.19-.17.33-.41.4-.67,0,0,0-.01,0-.02l.04-.18s0,0,0,0c0-.03.01-.07.02-.1v-.05s0-.02,0-.03c0-.01,0-.02,0-.04,0-.1-.05-.19-.13-.23-.02-.01-.04-.02-.06-.02h-.01s-.01,0-.01,0h-.02s-.08-.02-.08-.02c-.22-.03-.44-.05-.66-.05-.22,0-.45,0-.67.08-.11.04-.22.1-.31.21-.02.02-.03.05-.05.07-.23-.07-.47,0-.58.05-.02-.04-.05-.07-.08-.1-.11-.11-.25-.16-.38-.19-.27-.06-.54-.05-.81-.03-.26.02-.53.05-.79.1l-.1.02h-.02s-.01,0-.01,0h-.02s-.05.02-.07.03c-.03.02-.06.05-.09.08l-1.47-.34m1.66.25c-.2.74.14,1.15.38,1.3.12.08.25.13.38.16.14.03.27.04.41.04.14,0,.27-.03.41-.07.13-.04.26-.11.36-.2.11-.09.2-.21.25-.34.1-.34,0-.72,0-.72"/></g><path class="cls-56" d="m212.31,399.12s-.92,2.08-.67,3.76l1.64-.94s-.43-.87-.24-1.69l.68,1.6s1.84.09,3.63.61l-.15-3.66-2.66-1.02-2.23,1.33Z"/></g><g><g><rect class="cls-47" x="226.61" y="438.26" width="1.97" height="5.17" rx=".99" ry=".99" transform="translate(-268.53 437.83) rotate(-62.35)"/><rect class="cls-47" x="223.71" y="434.12" width="2.93" height="7.67" rx="1.46" ry="1.46" transform="translate(-97.63 66.06) rotate(-13.75)"/><path class="cls-62" d="m229.65,440.8l-.02.02c.17.13.14.78-.17.9-1.6.51-5.31-1.26-5.31-1.26l.14,1.87,2.14.37-.03-.29s4.9,1,5.22.96c0,0,1.82-.21-.12-1.51-.15-.1-1.85-1.06-1.85-1.06Z"/></g><rect class="cls-54" x="215.65" y="441.59" width="3.12" height="8.18" rx="1.56" ry="1.56"/><path class="cls-62" d="m215.11,430.54h-5s-.64-5.15,2.8-7.88c3.45-2.72,8.37-4.63,10.57-2.1l.16,3.68-8.53,6.3Z"/><path class="cls-62" d="m220.47,427.96c-.06-1.75-1.51-3.16-3.28-3.16s-2.42,1.4-2.48,3.15l-.2,17.63,5.61-.05.36-17.58Z"/><path class="cls-62" d="m218.39,423.9c-.36-1.72.71-3.43,2.42-3.85s3.46.59,3.94,2.28l3.07,14.16-5.45,1.3-3.98-13.88Z"/></g></g><path class="cls-62" d="m218.87,448.34c-.43.37-.99.6-1.6.6s-1.17-.23-1.6-.6c-.54.46-.9,1.14-.9,1.9h5c0-.77-.35-1.44-.9-1.9Z"/></g><rect class="cls-52" x="253.12" y="392.92" width="56.93" height="56.93"/></g></g></svg>