<?xml version="1.0" encoding="UTF-8"?><svg xmlns="http://www.w3.org/2000/svg" xmlns:xlink="http://www.w3.org/1999/xlink" viewBox="0 0 540 450"><defs><style>.cls-1{fill:#0e1f40;opacity:.1;}.cls-2{fill:url(#linear-gradient);}.cls-3{fill:#f3b150;}.cls-4{fill:#f3ad3d;}.cls-5{fill:#04173f;}.cls-6{fill:#0052cc;}.cls-7{fill:#ec6240;}.cls-8{fill:#f5d1bc;}.cls-9{fill:#f6c556;}.cls-10{fill:#e7b696;}.cls-11{fill:#ed50b4;}.cls-12{fill:#ffe380;}.cls-13{fill:#fff;}.cls-14{fill:#f5c145;}.cls-15{fill:#f5c143;}.cls-16{fill:#ffc400;}.cls-17{fill:#edbc9f;}.cls-18{fill:#ff95de;}.cls-19{fill:#fdf9e6;}.cls-20{fill:#6c462a;}.cls-21{fill:#c3875d;}.cls-22{fill:#c1c6ce;}.cls-23{fill:#bb7e4e;}.cls-24{fill:#313b56;}.cls-25{fill:#304662;}.cls-26{fill:#b7d3fa;}.cls-27{fill:#b2d4ff;}.cls-28{fill:#b28056;}.cls-29{fill:#af351a;}.cls-30{fill:#be794a;}.cls-31{fill:#d0ab8b;}.cls-32{fill:#c78867;}.cls-33{fill:#c78f72;}.cls-34{fill:#d48a5c;}.cls-35,.cls-36,.cls-37,.cls-38{fill:#deebff;}.cls-39,.cls-40{fill:#d6895b;}.cls-41{fill:#253858;}.cls-42{fill:#102647;}.cls-43{fill:#172b4d;}.cls-44{fill:#164aab;}.cls-45{fill:#2369f5;}.cls-46{fill:#1648a6;}.cls-47{fill:#203453;}.cls-48{fill:#42291f;}.cls-49{fill:#4085f6;}.cls-50{fill:#0747a6;}.cls-51{fill:#1b2b4b;}.cls-52{fill:#0a274a;}.cls-53{fill:#0e1d42;}.cls-54{fill:#1b55c4;}.cls-55{fill:#374561;}.cls-56{fill:#0b264a;}.cls-57{fill:#1a52c0;}.cls-58{fill:#3d94f1;}.cls-59{fill:#1a54c7;}.cls-60{fill:#975831;}.cls-61{fill:#45526c;}.cls-62{fill:#53382a;}.cls-63{fill:#8692a2;}.cls-64{fill:#57d9a3;}.cls-65{fill:#2a6443;}.cls-66{fill:#2d4361;}.cls-67{fill:#293856;}.cls-68{fill:#3484f6;}.cls-69{fill:#3a835b;}.cls-70{fill:#31425f;}.cls-71{fill:#36b37e;}.cls-72{fill:#3381f0;}.cls-73{fill:#5942ac;}.cls-74{fill:#512f1c;}.cls-75{fill:#2684ff;}.cls-76{fill:#274364;}.cls-77{fill:#4d97f1;}.cls-36{opacity:.2;}.cls-36,.cls-37,.cls-38,.cls-78{mix-blend-mode:soft-light;}.cls-37{opacity:.5;}.cls-79{stroke-linecap:round;stroke-linejoin:round;}.cls-79,.cls-80{fill:none;stroke:#ef8834;stroke-width:.47px;}.cls-81{fill:url(#linear-gradient-8);}.cls-82{fill:url(#linear-gradient-9);}.cls-83{fill:url(#linear-gradient-3);}.cls-84{fill:url(#linear-gradient-4);}.cls-85{fill:url(#linear-gradient-2);}.cls-86{fill:url(#linear-gradient-6);}.cls-87{fill:url(#linear-gradient-7);}.cls-88{fill:url(#linear-gradient-5);}.cls-40{fill-rule:evenodd;}.cls-89{fill:url(#linear-gradient-14);}.cls-90{fill:url(#linear-gradient-18);}.cls-91{fill:url(#linear-gradient-22);}.cls-92{fill:url(#linear-gradient-20);}.cls-93{fill:url(#linear-gradient-21);}.cls-94{fill:url(#linear-gradient-23);}.cls-95{fill:url(#linear-gradient-15);}.cls-96{fill:url(#linear-gradient-19);}.cls-97{fill:url(#linear-gradient-16);}.cls-98{fill:url(#linear-gradient-17);}.cls-99{fill:url(#linear-gradient-13);}.cls-100{fill:url(#linear-gradient-12);}.cls-101{fill:url(#linear-gradient-10);}.cls-102{fill:url(#linear-gradient-11);}.cls-103{fill:url(#linear-gradient-24);}.cls-104{isolation:isolate;}.cls-80{stroke-miterlimit:10;}</style><linearGradient id="linear-gradient" x1="-6944.13" y1="476.92" x2="-6939.88" y2="410.97" gradientTransform="translate(7333.03 877.61) scale(1 -1)" gradientUnits="userSpaceOnUse"><stop offset="0" stop-color="#004aa5"/><stop offset=".18" stop-color="#004dad"/><stop offset=".46" stop-color="#0055c3"/><stop offset=".82" stop-color="#0062e8"/><stop offset="1" stop-color="#006bff"/></linearGradient><linearGradient id="linear-gradient-2" x1="272.04" y1="457.4" x2="273.21" y2="411.3" gradientTransform="matrix(1, 0, 0, 1, 0, 0)" xlink:href="#linear-gradient"/><linearGradient id="linear-gradient-3" x1="362.16" y1="443.32" x2="341.88" y2="402.09" gradientUnits="userSpaceOnUse"><stop offset=".33" stop-color="#f3ac3d"/><stop offset=".39" stop-color="#f6c444"/><stop offset=".9" stop-color="#fae28d"/></linearGradient><linearGradient id="linear-gradient-4" x1="287.14" y1="347.96" x2="287.33" y2="341.46" gradientUnits="userSpaceOnUse"><stop offset="0" stop-color="#42291f"/><stop offset=".93" stop-color="#c78867" stop-opacity="0"/></linearGradient><linearGradient id="linear-gradient-5" x1="304.27" y1="396.82" x2="341.04" y2="426.94" gradientUnits="userSpaceOnUse"><stop offset=".06" stop-color="#ff9cde"/><stop offset=".32" stop-color="#f083cb"/><stop offset=".68" stop-color="#e068b7"/><stop offset=".89" stop-color="#db5fb0"/></linearGradient><linearGradient id="linear-gradient-6" x1="299.17" y1="406.15" x2="332.23" y2="433.24" xlink:href="#linear-gradient-5"/><linearGradient id="linear-gradient-7" x1="296.75" y1="401.05" x2="386.78" y2="440.2" xlink:href="#linear-gradient-5"/><linearGradient id="linear-gradient-8" x1="299.43" y1="402.73" x2="336.2" y2="432.85" xlink:href="#linear-gradient-5"/><linearGradient id="linear-gradient-9" x1="309.15" y1="397.31" x2="346.6" y2="433.13" xlink:href="#linear-gradient-5"/><linearGradient id="linear-gradient-10" x1="302.26" y1="404.52" x2="339.71" y2="440.34" xlink:href="#linear-gradient-5"/><linearGradient id="linear-gradient-11" x1="309.06" y1="390.98" x2="345.83" y2="421.11" xlink:href="#linear-gradient-5"/><linearGradient id="linear-gradient-12" x1="300.92" y1="391.45" x2="390.96" y2="430.6" xlink:href="#linear-gradient-5"/><linearGradient id="linear-gradient-13" x1="256.12" y1="364.77" x2="222.46" y2="394.03" xlink:href="#linear-gradient-5"/><linearGradient id="linear-gradient-14" x1="253.56" y1="361.93" x2="219.98" y2="391.13" xlink:href="#linear-gradient-5"/><linearGradient id="linear-gradient-15" x1="-16643.53" y1="-1547.09" x2="-16641.33" y2="-1563.99" gradientTransform="translate(-16089.43 -1838.62) rotate(-166.97) scale(1 -1)" gradientUnits="userSpaceOnUse"><stop offset=".06" stop-color="#ff9cde"/><stop offset=".2" stop-color="#d083be"/><stop offset=".41" stop-color="#8c6091"/><stop offset=".61" stop-color="#57446d"/><stop offset=".78" stop-color="#312f53"/><stop offset=".92" stop-color="#192343"/><stop offset="1" stop-color="#111f3e"/></linearGradient><linearGradient id="linear-gradient-16" x1="-16643.6" y1="-1547.1" x2="-16641.41" y2="-1564" xlink:href="#linear-gradient-15"/><linearGradient id="linear-gradient-17" x1="-16646.72" y1="-1547.51" x2="-16644.52" y2="-1564.4" xlink:href="#linear-gradient-15"/><linearGradient id="linear-gradient-18" x1="-16646.59" y1="-1547.49" x2="-16644.39" y2="-1564.38" xlink:href="#linear-gradient-15"/><linearGradient id="linear-gradient-19" x1="-16646.33" y1="-1547.46" x2="-16644.13" y2="-1564.35" xlink:href="#linear-gradient-15"/><linearGradient id="linear-gradient-20" x1="-16645.85" y1="-1547.4" x2="-16643.66" y2="-1564.29" xlink:href="#linear-gradient-15"/><linearGradient id="linear-gradient-21" x1="-16640.22" y1="-1546.67" x2="-16638.03" y2="-1563.56" xlink:href="#linear-gradient-15"/><linearGradient id="linear-gradient-22" x1="-16644.55" y1="-1547.23" x2="-16642.36" y2="-1564.12" xlink:href="#linear-gradient-15"/><linearGradient id="linear-gradient-23" x1="-16641.65" y1="-1546.85" x2="-16639.46" y2="-1563.74" xlink:href="#linear-gradient-15"/><linearGradient id="linear-gradient-24" x1="652.68" y1="-492.2" x2="653.08" y2="-503.07" gradientTransform="translate(-606.03 691.25) rotate(15.1)" gradientUnits="userSpaceOnUse"><stop offset=".03" stop-color="#4b536b"/><stop offset=".94" stop-color="#af886d" stop-opacity="0"/></linearGradient></defs><g class="cls-104"><g id="illos"><rect class="cls-37" x="480.82" y="183.32" width="56.93" height="56.93" transform="translate(297.5 721.06) rotate(-90)"/><rect class="cls-36" x="186.99" y="274.37" width="56.93" height="56.93" transform="translate(-87.38 518.28) rotate(-90)"/><rect class="cls-36" x="130.12" y="331.22" width="56.93" height="56.93" transform="translate(-201.1 518.27) rotate(-90)"/><g class="cls-78"><rect class="cls-38" x="424.13" y="240.08" width="56.93" height="56.93" transform="translate(721.14 -184.06) rotate(90)"/><rect class="cls-38" x="481.06" y="297" width="56.93" height="56.93" transform="translate(834.99 -184.06) rotate(90)"/><rect class="cls-36" x="243.51" y="331.05" width="56.93" height="56.93" transform="translate(631.48 87.54) rotate(90)"/></g><rect class="cls-75" x="378.14" y="292.21" width="14.24" height="14.24"/><path class="cls-75" d="m378.14,279.34v12.24h-12.24v-12.24h12.24m1-1h-14.24v14.24h14.24v-14.24h0Z"/><ellipse class="cls-1" cx="142.29" cy="448.85" rx="18.77" ry="1.51"/><ellipse class="cls-1" cx="267.08" cy="448.85" rx="14.99" ry="1.21"/><ellipse class="cls-1" cx="305.03" cy="448.85" rx="14.99" ry="1.21"/><ellipse class="cls-1" cx="409.82" cy="448.85" rx="17.56" ry="1.41"/><ellipse class="cls-1" cx="444.95" cy="448.85" rx="12.54" ry="1.01"/><ellipse class="cls-1" cx="472.33" cy="448.85" rx="12.54" ry="1.01"/><ellipse class="cls-1" cx="509.24" cy="448.85" rx="13.98" ry="1.01"/><ellipse class="cls-1" cx="186.76" cy="448.86" rx="21.11" ry="1"/><g><g><path class="cls-8" d="m409.17,349.91c-1.28.37-2,1.73-1.59,2.99l3.57,10.96h0c.32,1.04,1.42,1.63,2.47,1.32,1.05-.31,1.66-1.39,1.37-2.44h0s-2.87-11.16-2.87-11.16c-.34-1.29-1.67-2.04-2.95-1.67h0Z"/><path class="cls-8" d="m429.21,369.92c.29-.5.19-.96-.28-1.29l-10.06-7.04h0c-.95-.52-2.15-.2-2.7.75-.55.94-.24,2.15.69,2.72h0s11.49,5.37,11.49,5.37c.52.25.57,0,.86-.5h0Z"/><path class="cls-73" d="m414.7,360.86l-4.38,1.9-3.22-9.19c-.5-1.41.26-3.14,1.63-3.76l.27-.12c1.51-.69,2.86.69,3.46,2.24l2.24,8.93Z"/><path class="cls-17" d="m419.4,391.11c.83-1.53.95-3.07-.55-3.97-1.51-.9-3.45-.43-4.39,1.03l-6.2,14.23,2.55,1.46,8.6-12.75Z"/><path class="cls-64" d="m412.54,409.44c.32-.5.39-.98-.25-1.4-.54-.36-.9-1.19-1.2-1.99-.73-1.9,1.82-5.02,3.06-6.55,0,0,.01-.01.02-.02.32-.4.23-.98-.2-1.26l-2.32-1.54c-.4-.26-.93-.16-1.2.24h0s-5.31,7.99-5.31,7.99l1.85,1.23.62-.93c.33.25.58.59.72.98l.38,1.1,2.55,1.69,1.27.46Z"/><path class="cls-17" d="m414.18,372.5c-.76-2.01-3.04-2.98-5.02-2.14h0c-1.97.84-2.85,3.14-1.94,5.08l7.43,14.27c.72,1.62,1.91,2.65,3.55,1.95s2.4-2.58,1.73-4.22l-5.75-14.95Z"/><path class="cls-8" d="m415.58,387.6c-.07-1.74-.76-3.13-2.52-3.12-1.75,0-3.18,1.41-3.24,3.15l2.01,15.39,2.94-.06.81-15.36Z"/><path class="cls-8" d="m414.53,395.27c0,3.13-.95,5.66-2.12,5.66-1.17,0-2.12-2.53-2.12-5.66s.95-5.66,2.12-5.66,2.12,2.53,2.12,5.66Z"/><circle class="cls-13" cx="409.76" cy="351.74" r="1.26"/><path class="cls-8" d="m418.63,354.51s-.02-.13-.08-.34c-.4-1.58-4.23-4.37-4.23-4.37,0,0-1.13-1.45-2.76-1.2-2,.31-4.24,3.54-5.13,4.37,1.76,1.93,3.77,2.62,6.59,2.62,2.39,0,3.93.36,5.61-1.08Z"/><g><path class="cls-13" d="m419.52,371.72c0,1.18-.96,2.13-2.13,2.13-1.18,0-2.13-.96-2.13-2.13s.96-2.13,2.13-2.13,2.13.96,2.13,2.13Z"/><circle class="cls-13" cx="409.53" cy="371.75" r="2.13"/></g><g><path class="cls-8" d="m409.15,375.11c1.8,0,3.35-1.29,3.65-3.07.12-.71.18-1.47.18-2.25,0-4.1-1.71-7.42-3.83-7.42-2.11,0-3.83,3.32-3.83,7.42,0,.79.06,1.54.18,2.25.29,1.78,1.84,3.07,3.65,3.07h0Z"/><path class="cls-8" d="m416.94,375.11c1.8,0,3.35-1.29,3.65-3.07.12-.71.18-1.47.18-2.25,0-4.1-1.71-7.42-3.83-7.42-2.11,0-3.83,3.32-3.83,7.42,0,.79.06,1.54.18,2.25.29,1.78,1.84,3.07,3.65,3.07h0Z"/><rect class="cls-8" x="409.12" y="362.38" width="7.94" height="12.74"/></g><path class="cls-8" d="m414.43,351.65l-3.84-.03v-6.67c0-.98.86-1.78,1.92-1.78h0c1.06,0,1.92.8,1.92,1.78v6.71Z"/><path class="cls-8" d="m415.89,371.72c.04-2.15-1.71-3.9-3.85-3.86h0c-2.14.04-3.82,1.85-3.7,3.98l1.55,16.01c.06,1.77.78,3.17,2.56,3.14s3.19-1.49,3.18-3.27l.27-16.01Z"/><path class="cls-75" d="m421.2,387.44l-13.38.42-2.02-18.11c0-4.27,3.46-7.74,7.74-7.74h0c4.27,0,7.74,3.46,7.74,7.74l-.08,17.69Z"/><path class="cls-6" d="m422.4,367.54l-.33,12.15s-3.04.96-7.21-3.33h0c-1.9,2.26-4.56,3.77-7.48,4.25l-1.82.3s-1.22-13.19.49-18.87l9.48-2.02,6.87,7.52Z"/><path class="cls-6" d="m419.33,359.56s3.13-7.07-8.74-10.61c0,0-3.93,0-4.95,6.03-.2,1.16-.23,2.33-.15,3.5.23,3.36.9,13.09,1.14,14.74l.19,1.32c1-.24,2.01-.41,3.03-.54,3.26-.4,6.54-.29,9.8-.56.64-.05,1.71.77,2.35.71,1.87-11.82-2.68-14.6-2.68-14.6Z"/><path class="cls-74" d="m411.52,339.55s-.62-2.7-3.06-1.64c-2.44,1.07-2,10.01-2,10.01,0,0,2.39-1.07,2.86-4.27.47-3.19,2.2-4.11,2.2-4.11Z"/><path class="cls-64" d="m419.36,408.89c0-.61-.22-1.05-1-1.05-.67,0-1.44-.51-2.15-1.01-1.69-1.2-1.29-5.3-1.1-7.3l.07-.75c.01-.13-.09-.24-.22-.24h-4.23c-.12,0-.22.1-.22.22v.66s0,9.8,0,9.8h2.27v-1.14c.42.03.83.18,1.16.43l.95.72h3.12l1.34-.33Z"/><g><path class="cls-8" d="m410.47,349.78c-1.2-.57-2.64-.04-3.18,1.18l-4.62,10.56h0c-.45.99-.02,2.16.96,2.63.99.47,2.16.06,2.65-.91h0s5.28-10.24,5.28-10.24c.6-1.19.11-2.64-1.09-3.21h0Z"/><rect class="cls-13" x="401.53" y="362.13" width="17.53" height="11.42" transform="translate(-109.7 185.49) rotate(-22.55)"/><path class="cls-8" d="m412.69,372.76c.45-.37.54-1.01.21-1.49l-7.01-9.92h0c-.71-.82-1.95-.93-2.79-.24-.84.69-.97,1.93-.3,2.79h0s8.4,8.78,8.4,8.78c.4.41,1.06.45,1.5.08h0Z"/></g><path class="cls-6" d="m403.15,359.51l4.86,2.94,4.32-8.88c.59-1.38.04-3.1-1.28-3.82h-.06c-1.46-.79-3.23-.06-3.93,1.44l-3.9,8.31Z"/><path class="cls-8" d="m409.57,369.88s2.26-1.16,3.62-.33c1.37.83,2.44,1.27,2.44,1.27,0,0-.07,1.09-2.01.08,0,0,.35.68,1.07.92,0,0,.65.26,1.09.11,0,0,.34.22.08.44s-1.14.45-1.14.45l-.38.49h-.4s-.28.35-.28.35l-.54-.14h-.34c-.72-.04-1.39-.37-1.84-.93l-1.99-2.5.62-.21Z"/><path class="cls-8" d="m410.43,342.98c.51-2.19,2.36-3.34,4.22-2.88,1.66.41,2.22,1.3,2.5,1.78,0,0,1.03,1.82-.05,3.18,0,0,.16.98.42,1.27.25.29,0,.75-.55.64,0,0-.71,1.77-.86,1.9-.15.13-.45.45-1.7,0-3.11-1.12-4.5-3.7-3.99-5.89Z"/><path class="cls-74" d="m413.1,344.36c-.07-.21-.17-.31-.23-.39-.06-.1-.52-.19-1.01-.34.31,1.95-1.23,3.63-1.23,3.63,0,0-3.21-4.16-.36-7.03,1.52-1.53,3.26-1.31,4.55-.77.41.06,3.3.65,3.32,4.48,0,0-1.09.56-3.68-.47,0,0,.22-.24.46-.61-.17.02-.33.06-.46.1-.15.39-.33.73-.42.85-.25.26-.45.57-.44.94,0,.21.03.43-.04.64-.08.24-.19.4-.14.67.04.25.06.51,0,.76-.03.12-.09.24-.15.36-.05.09-.18.19-.21.28.12-.32.16-.68.07-1.01-.09-.32-.26-.48-.2-.77.04-.22.12-.2.19-.5"/><path class="cls-8" d="m413.1,344.52c.04.57-.03,1.19-.5,1.25-.89.1-1.11-2.38-.48-2.57.66-.2.94.75.99,1.32Z"/></g><path class="cls-8" d="m432.27,372.04c.67.3,1.12.02,1.14-.18.02-.14-.5-.16-.9-.37.4.2,1,.14,1.09-.09.13-.32-.71-.39-1.17-.71-.46-.32-.72-.62-1.26-.94-.55-.33-.48-.6-.48-.6,0,0,.59.02,1.15-.16s.38-.65.38-.65c0,0-1.08.32-1.96.15-.87-.18-1.6.21-1.76.35l-.14.14c-.44.45-.39,1.17.09,1.56.63.51,1.44,1.15,1.97,1.39.28.12.48.15.65.14.22-.02,1.32.38,1.44.24.09-.12-.11-.18-.26-.26Zm.03-.66c-.07-.04-.11-.06-.11-.06.02.01.06.03.11.06Z"/></g><g><path class="cls-2" d="m327.02,428.8h131.84v20.01h-131.84c-1.86,0-3.38-1.51-3.38-3.38v-13.25c0-1.86,1.51-3.38,3.38-3.38Z" transform="translate(782.5 877.61) rotate(-180)"/><path class="cls-35" d="m217.74,431.14h112.44v14.94h-112.44c-2.07,0-3.76-1.68-3.76-3.76v-7.42c0-2.07,1.68-3.76,3.76-3.76Z" transform="translate(544.16 877.22) rotate(-180)"/><path class="cls-85" d="m326.58,432.07h-109.69s-2.45,0-2.45,0h-2.24v-2.24h0v-1.12h114.07c3.72,0,6.74,2.75,6.74,6.12v7.42c0,3.38-3.02,6.52-6.74,6.52h-114.07v-1.52s0,0,0,0v-2.24h2.24s2.45,0,2.45,0h109.69c1.69,0,3.06-1.37,3.06-3.06v-6.82c0-1.69-1.37-3.06-3.06-3.06Z"/></g><g><path class="cls-75" d="m314.18,409.23h119.08v19.58h-119.08c-1.84,0-3.34-1.5-3.34-3.34v-12.9c0-1.84,1.5-3.34,3.34-3.34Z" transform="translate(744.09 838.03) rotate(-180)"/><path class="cls-35" d="m249.96,411.57h67.3v14.94h-67.3c-2.07,0-3.76-1.68-3.76-3.76v-7.42c0-2.07,1.68-3.76,3.76-3.76Z" transform="translate(563.46 838.07) rotate(-180)"/><path class="cls-75" d="m313.65,412.5h-64.55s-2.45,0-2.45,0h-2.24v-2.24h0v-1.12h68.92c3.72,0,6.74,2.75,6.74,6.12v7.42c0,3.38-3.02,6.12-6.74,6.12h-68.92v-1.12s0,0,0,0v-2.24h2.24s2.45,0,2.45,0h64.55c1.69,0,3.06-1.37,3.06-3.06v-6.82c0-1.69-1.37-3.06-3.06-3.06Z"/></g><g><polygon class="cls-62" points="317.89 350.55 323.33 350.55 323.33 346.11 320.35 344.24 317.89 346.11 317.89 350.55"/><g><path class="cls-62" d="m312.84,357.29c.88.54,1.17,1.68.65,2.58s-1.66,1.2-2.56.7h0s-9.32-6.52-9.32-6.52c-.91-.53.24-2.01,1.15-1.48l10.09,4.72h0Z"/><path class="cls-62" d="m317.98,346.7c1.13.55,1.59,1.93,1.01,3.05l-5.31,10.12h0c-.47.92-1.59,1.29-2.52.84s-1.32-1.57-.89-2.5h0s4.69-10.42,4.69-10.42c.52-1.15,1.89-1.64,3.02-1.09h0Z"/><path class="cls-75" d="m312.43,353.65c-.1-.03-.19-.06-.29-.1l2.52-5.6c.57-1.25,2.05-1.78,3.28-1.18h0c1.23.6,1.73,2.1,1.1,3.31l-2.63,5.01c-1.32-.5-2.64-1.02-3.99-1.44Z"/></g><circle class="cls-13" cx="317.44" cy="347.94" r="1.36"/><g><circle class="cls-9" cx="316" cy="370.35" r="2.3"/><circle class="cls-9" cx="323.34" cy="370.35" r="2.3"/></g><line class="cls-3" x1="318.13" y1="409.13" x2="310.61" y2="409.13"/><g><path class="cls-27" d="m325.04,363.56l.89,3.63c.45,1.85.61,3.77.42,5.67-.03.28-.05.48-.08.57-.38,1.52-1.55.89-3.19.89l-5.31.02v-10.67s7.27-.12,7.27-.12Z"/><path class="cls-27" d="m313.51,363.76l-1.31,5.83c-.05.42-.06.85.05,1.27.38,1.52,1.75,3.46,3.39,3.46l5.31.02v-10.67s-7.44.09-7.44.09Z"/><rect class="cls-62" x="320.98" y="399.71" width="3.24" height="8.49" rx="1.62" ry="1.62" transform="translate(645.19 807.91) rotate(-180)"/><path class="cls-5" d="m318.54,408.05l.36-.05,1.25-1.97s1.54-1.56,3.45.51h.51c.29,0,.52.23.52.52v2.2h-7.01v-.18c.02-.52.4-.95.91-1.02Z"/><path class="cls-27" d="m322.64,366.8c2.22.02,3.93,2.4,3.78,4.61l-1.04,15.07c-.04,1.5-1.27,2.71-2.78,2.69-1.51-.02-2.72-1.24-2.72-2.75l-1.1-15.5c-.16-2.24,1.63-4.14,3.87-4.12h0Z"/><path class="cls-27" d="m319.86,386.18c.11-1.48,1.39-2.62,2.88-2.55,1.5.06,2.67,1.3,2.66,2.78l-.61,17.79-4.48-.1-.46-17.92Z"/><rect class="cls-62" x="309.22" y="399.7" width="3.24" height="8.49" rx="1.62" ry="1.62" transform="translate(577.61 838.24) rotate(-173.98)"/><path class="cls-41" d="m304.09,407.84l1.34-.14,2.49-1.46s.85-2.11,2.04.32h2.12c.28,0,.5.22.5.5v2.21h-9.84s0,0,0,0c.04-.74.61-1.35,1.35-1.43Z"/><path class="cls-27" d="m309.67,386.1c.18-1.47,1.51-2.55,3-2.41,1.49.13,2.61,1.43,2.53,2.91l-1.79,17.82-4.98-.66,1.24-17.65Z"/><path class="cls-27" d="m316.79,367.08c2.16.51,3.44,2.74,2.8,4.86l-4.51,14.94c-.37,1.46-1.84,2.36-3.31,2.01-1.47-.35-2.38-1.82-2.05-3.28l2.37-15.36c.34-2.22,2.51-3.68,4.69-3.16h0Z"/></g><path class="cls-62" d="m318.33,349.69l4.46-.05v-8.38c-.02-1.23-1.02-2.23-2.25-2.23h0c-1.23,0-2.23,1-2.23,2.24v8.42Z"/><path class="cls-75" d="m315.12,357.25c-1-1.07-2.05-2.1-1.52-3.67,1.22-3.65,2.2-6.28,2.34-6.44.41-.46,1.24-.37,1.67-.68.11-.08.35.13,1.3.69.07.04,1.21,3.97,1.25,3.98.06.02,1.87-3.25,2.08-3.25,3.01.05.55-.72.61-.68,2.76,2.03,4.55.39,4.81,1.01.73,1.71-1.33,6.43-1.9,10.84-.5,3.87.53,7.61.53,7.61l-4.51.75c-3.1.51-6.28.11-9.15-1.16h0s2.5-9.01,2.5-9.01Z"/><path class="cls-75" d="m312.2,353.52c.27-.9,2.2-6.18,2.7-6.37l3.42-1.49s-.6.87.83,1.02c0,0,.51,2.63,1.19,3.91.69-1.28,1.65-3.91,1.65-3.91,1.43-.15.83-1.02.83-1.02l3.31,1.28c.67.41,2.63.74,2.96,7.58l-7.74-2.25-2.93-.86-6.21,2.11Z"/><g><path class="cls-62" d="m329.38,359.21c.88.54,1.16,1.69.63,2.58-.53.89-1.67,1.19-2.57.68h0s-9.29-6.56-9.29-6.56c-.9-.54.25-2.01,1.16-1.48l10.07,4.77h0Z"/><path class="cls-62" d="m325.24,347.45c1.23-.29,2.45.5,2.71,1.73l2.27,11.2h0c.22,1.01-.41,2.01-1.42,2.25s-2.02-.38-2.27-1.38h0s-2.93-11.04-2.93-11.04c-.32-1.22.43-2.47,1.66-2.75h0Z"/><path class="cls-75" d="m325.1,355.97c-.09.04-.19.07-.28.11l-1.58-5.94c-.35-1.33.47-2.68,1.8-2.99h0c1.33-.31,2.66.54,2.94,1.88l1.12,5.54c-1.34.45-2.69.88-4,1.4Z"/></g><path class="cls-62" d="m321.04,356.94s-.49-1.14-.38-1.35.39-1.11.02-1.96-.23-2.09-.23-2.09c0,0-.55-.02-.63.63-.08.65.06,1.25.06,1.25,0,0-.13.32-.6-.13s-.58-1.09-1.02-1.45c-.44-.37-1.05-1.1-1.37-.84s.61,1.16.74,1.34c0,0-.98-1.16-1.2-1.06s-.05.67.46,1.31c.16.2-.28-.46-.48-.22-.14.17.61,1.14.63,1.38.02.18.06.21.12.52.27,1.44,1.69,2.23,1.74,2.48s1.43,1.12,2.14.21Z"/><path class="cls-62" d="m296.61,353.91c.04.22,1.45.31,1.67.45.17.11.4.19.76.21.7.05,1.89-.19,2.83-.37.72-.14,1.17-.88.95-1.59l-.07-.23c-.1-.23-.64-1.03-1.66-1.33-1.01-.29-1.98-1.23-1.98-1.23,0,0-.45.4.05.89s1.12.79,1.12.79c0,0-.08.32-.84.37-.75.04-1.18.21-1.84.3-.66.09-1.76.05-1.79.46-.03.3.75.34,1.28.34-.53,0-1.34.03-1.4.19-.08.22.49.46,1.36.52-.19,0-.48.04-.44.22Zm.93-.93s-.06,0-.15,0c.07,0,.12,0,.15,0Z"/><path class="cls-62" d="m317.32,339.04c.06,0,.11,0,.17.02,0,.72.09,1.52.18,2.26.01.1.03.21.05.31-.34.05-.38-.14-.55-.65-.18-.53-.51-1.83.16-1.94Z"/><path class="cls-62" d="m323.94,339.48c-.05-.02-.11-.02-.17,0-.09.71-.29,1.5-.47,2.21-.03.1-.06.2-.09.3.33.1.4-.09.63-.57.25-.5.75-1.75.1-1.94Z"/><g><circle class="cls-58" cx="323.58" cy="341.78" r=".19"/><circle class="cls-58" cx="323.58" cy="342.07" r=".19"/><circle class="cls-58" cx="323.58" cy="342.35" r=".19"/></g><g><circle class="cls-58" cx="317.35" cy="341.25" r=".19"/><circle class="cls-58" cx="317.35" cy="341.55" r=".19"/><circle class="cls-58" cx="317.35" cy="341.83" r=".19"/></g><path class="cls-62" d="m317.54,337.77c.03-.21.38-2.92,3.33-2.81.85.03,1.46.33,1.89.73,1.12.91,1.12,2.39,1.12,2.54.01.77-.37,4.14-.68,4.67-.44.75-1.75,1.77-2.62,1.77-.09,0-.19,0-.28-.03-.09,0-.18,0-.28-.01-.26-.04-.55-.17-.84-.36-.68-.43-1.35-1.21-1.6-1.79-.24-.56-.17-3.96-.05-4.72Z"/><path class="cls-5" d="m317.04,338.92s-.1-.09-.09-.17c0-.08.05-.12.1-.16-.04-.04-.09-.09-.08-.17,0,0,0,0,0,0s0,0,0,0c0-.08.06-.12.1-.15-.04-.04-.08-.1-.07-.17h0s0,0,0,0c.01-.07.06-.11.11-.14-.04-.04-.08-.1-.06-.18,0,0,0,0,0,0,0,0,0,0,0,0,.01-.07.07-.11.12-.14-.04-.05-.07-.11-.05-.18,0,0,0,0,0,0h0c.02-.07.08-.11.13-.13-.03-.05-.06-.11-.04-.18h0c.02-.07.09-.11.14-.13-.03-.05-.05-.12-.03-.19,0,0,0,0,0,0,0,0,0,0,0,0,.03-.07.09-.1.15-.11-.02-.05-.05-.12,0-.19h0s0,0,0,0c.04-.07.1-.09.16-.1-.02-.05-.03-.11,0-.17,0,0,0,0,0-.01,0,0,0,0,0-.01h0s0,0,.01-.01c0,0,.02-.02.02-.03,0,0,.02-.01.03-.02,0,0,.01,0,.02,0,0,0,.02,0,.03,0,0,0,.01,0,.02,0,0,0,.01,0,.02,0,0,0,.02,0,.02,0,0-.06,0-.14.05-.21.05-.07.14-.07.2-.07h0c0-.06-.01-.16.05-.22.06-.06.15-.06.21-.05,0-.07,0-.15.07-.21.07-.06.15-.04.22-.03,0-.07.02-.15.09-.2.07-.05.16-.03.22-.01.01-.06.03-.15.11-.19.08-.04.16-.01.22.01.02-.06.05-.14.14-.18,0,0,.02,0,.03,0,.07-.02.14.01.19.04.03-.06.06-.14.15-.17.09-.03.16.02.22.06.03-.06.08-.13.17-.15.09-.01.16.04.21.09.04-.05.1-.12.19-.12.09,0,.15.06.19.11.01-.01.03-.03.05-.04,0,0,0,0,0,0,0,0,0,0,0,0,.02-.02.04-.03.07-.04h.07s.07,0,.07,0c.02.01.04.03.06.04,0,0,0,0,0,0,0,0,0,0,0,0,.02.02.03.03.04.05.05-.04.12-.1.21-.09.09.01.14.09.17.15.05-.04.13-.09.22-.06.09.03.12.11.15.17.06-.03.14-.07.22-.03.08.04.11.12.13.18.06-.02.13-.04.2-.02,0,0,.02,0,.03.01.08.04.1.13.11.19.06-.02.15-.04.22.02.07.05.08.14.09.2.06,0,.15-.02.22.04.07.06.07.15.07.21.06,0,.15,0,.21.06.06.07.05.15.04.22.06,0,.15,0,.2.08.06.07.04.16.02.23,0,0,0,0,0,0,.06,0,.15.02.19.1.04.07.04.15.02.22,0,0,.02,0,.02,0,0,0,.01,0,.02,0,0,0,.01,0,.02,0,0,0,.02,0,.02.01,0,0,0,0,.01.01,0,0,.02.01.02.02,0,0,.01.02.02.03,0,0,0,0,0,.01h0s0,0,0,.01c0,0,0,.01,0,.02.02.06,0,.12-.03.16.06.02.12.05.15.12,0,0,0,0,0,0h0c.03.07,0,.14-.03.19.05.02.11.06.13.13,0,0,0,0,0,0,0,0,0,0,0,0,.02.07-.02.14-.05.18.05.03.11.07.12.14,0,0,0,0,0,0h0c.01.08-.02.13-.06.18.05.03.1.08.11.15,0,0,0,0,0,0,0,0,0,0,0,0,0,.08-.03.13-.07.17.05.03.1.08.1.16h0s0,0,0,0c0,.08-.04.13-.09.17.04.04.09.08.09.15,0,0,0,0,0,0h0c0,.08-.05.13-.09.16.04.04.09.09.08.17,0,0,0,0,0,0,0,0,0,0,0,0,0,.08-.06.12-.1.16.04.04.08.09.07.17,0,.08-.06.13-.12.16.04.04.1.12.05.22l-.07.12h0c-.17-.43-.33.28-.38.55h-.04s-.4-.2-.24-.54c-.04-.04-.09-.1-.08-.18,0-.08.06-.13.11-.17-.04-.04-.1-.1-.09-.18,0-.08.05-.13.1-.17-.05-.04-.1-.09-.11-.17,0-.08.04-.14.08-.18-.05-.03-.11-.08-.12-.16-.01-.08.03-.14.07-.19-.05-.03-.11-.07-.13-.15-.02-.08.02-.14.05-.19-.05-.02-.12-.06-.14-.13-.02-.08,0-.14.04-.2-.06-.02-.12-.05-.16-.12-.03-.07,0-.14.02-.2-.06-.01-.13-.04-.17-.11-.04-.07-.02-.15,0-.21h0s0,0,0,0c-.05,0-.11-.02-.15-.07h0s0,0,0,0c0,0,0,0,0,0,0,0,0,0,0,0,0,0,0,0,0,0h0s-.02-.06-.02-.09c-.04,0-.07-.01-.11-.04-.03-.03-.05-.06-.05-.1-.04,0-.07,0-.11-.01-.04-.02-.06-.05-.07-.08-.03.01-.06.02-.1.01-.02,0-.03,0-.04-.02-.03-.01-.05-.03-.06-.05-.03.02-.06.04-.11.04-.05,0-.09-.02-.12-.05-.03.03-.06.06-.11.06-.05,0-.09-.01-.13-.04-.02.04-.06.07-.11.08-.05,0-.1,0-.13-.03-.02.04-.06.07-.11.08-.06.01-.1,0-.14-.04-.02.04-.06.07-.12.08-.06.01-.11-.02-.14-.05-.03.04-.07.08-.13.08-.06,0-.1-.03-.14-.07-.04.03-.08.06-.14.05-.06,0-.1-.05-.12-.09-.04.03-.09.05-.15.03-.06-.02-.09-.06-.1-.1-.04.02-.09.04-.14.02-.05-.02-.08-.06-.1-.1-.04.02-.08.03-.13.02-.05-.02-.08-.05-.1-.09-.04.02-.08.04-.13.02-.05-.01-.08-.04-.1-.08-.03.02-.07.04-.12.03-.04,0-.08-.03-.1-.06-.02.02-.04.03-.07.04-.01,0-.03,0-.04,0-.04,0-.07,0-.09-.03-.02.03-.04.05-.08.07-.04.02-.08.01-.11,0,0,.03-.03.07-.06.09-.04.03-.08.03-.11.03,0,.03,0,.06-.03.08,0,0,0,0,0,0,0,0,0,0,0,0,0,0,0,0,0,0,0,0,0,0,0,0,0,0,0,0,0,0h0s-.11.05-.16.05c0,0,0,0,0,0h0c.01.06.02.14-.02.21-.05.06-.12.08-.18.08.02.06.03.13,0,.2-.04.07-.11.09-.17.1.02.06.04.13.01.2-.03.07-.1.1-.16.11.03.05.06.12.03.2-.03.07-.09.11-.15.13.03.05.07.12.04.19-.02.08-.09.11-.14.14.04.05.08.11.06.19-.02.08-.08.12-.13.15.04.05.08.11.07.19,0,.08-.07.13-.12.16.04.04.09.1.09.18,0,.08-.06.13-.1.17.11.36-.31.51-.31.51l-.04-.02c-.02-.27-.08-1-.3-.6h0s-.05-.13-.05-.13c-.03-.11.03-.17.08-.21Z"/></g><g><g><path class="cls-23" d="m341.69,358.32s-1.33-.33-1.43-.54-.66-.97-1.65-1.21-1.96-1.11-1.96-1.11c0,0-.41.4.08.86s1.11.72,1.11.72c0,0-.26.2-.98.27s-.94.37-1.58.48-1.7.12-1.71.52,1.43.26,1.68.26c0,0-1.7.03-1.77.25s.54.45,1.45.45c.28,0-.57-.08-.53.23.06.48,1.61.5,1.83.62.17.1.39.17.74.18,1.17.03,2.92-.63,3.17-.51s1.82-.37,1.57-1.46Z"/><path class="cls-71" d="m358.55,345.16c-4.48.16-4.25,3.24-6.28,5.68-2.27,2.73-4.44,5.21-4.44,5.21h0c-.6,1.67.46,3.47,2.21,3.76l1.21.2s8.14-5.63,9.61-9.9c0,0-.1-5.02-2.3-4.95Z"/><path class="cls-71" d="m352.08,356.25c-1.6-1.3-5.8-.78-9.75-.21-1.92.28-2.43.85-2.43.85l.35,3.57c1.12.18,3.37.49,10.91-.42.01,0,2.84-2.24.92-3.8Z"/></g><g><g><rect class="cls-23" x="346.04" y="399.06" width="3.25" height="7.92"/><rect class="cls-23" x="343.56" y="404.76" width="4.97" height="1.59" transform="translate(-186.87 390.72) rotate(-47.93)"/></g><path class="cls-6" d="m349.76,403.64l-.31-3.97-3.73.04-.09,4.01s3.19,1.45,4.14-.08Z"/><g><path class="cls-64" d="m350.09,407.27l-9.7,1.96s-.93-1.07.92-1.51c.43-.1,2.82-1.61,3.54-2.09.14-.09.31-.15.48-.16h0c1.26.26,2.55.2,3.78-.16l.22-.07c.25-.01.46.16.5.41l.25,1.63Z"/><path class="cls-64" d="m350.18,407.67l-9.68,1.97s-.21-.33-.17-.73l9.71-1.98.15.74Z"/></g><g><g><path class="cls-21" d="m351.35,333.81s-2.11,2.12-1.08,3.87c0,0-.91,1.39-.7,1.7s.58.24.67.33c0,0,.34,2.63,1.23,2.74s2.59-.81,3.08-1.3-3.2-7.33-3.2-7.33Z"/><g><polygon class="cls-21" points="352.66 345.41 358.66 343.33 358.19 342.1 357.36 338.95 352.44 340.1 353.41 343.26 352.66 345.41"/><circle class="cls-21" cx="354.1" cy="337.25" r="3.95"/></g></g><path class="cls-66" d="m357.45,339.84s-1.04-.82-1.23-1.44-.45-2.81-1.72-1.7c0,0-.26.24-.1.82l-.61.19s.36-1.35-.81-1.67c-.7-.19-.27-1.07-.46-1.28-.81-.92-.59.65-2.07.31,0,0-1.75-2.44,3.2-2.7,7.12-.37,3.81,7.48,3.81,7.48Z"/><path class="cls-21" d="m354.51,336.79s.38-.79,1.13-.47c.75.32.11,1.82-.36,1.97,0,0-.31.69-.78.23"/><path class="cls-66" d="m354.4,337.51l-.61.19c-.1.79-1.1,2.02-1.46,2.17-1.1.45-2.11-.18-2.11-.18-.44.28-.17.75.19,1.23.21.29-.18.38.3,1.33.52,1.04,3.11.11,3.65-.49.48-.53.27-2.94.04-4.24Z"/></g><rect class="cls-23" x="358.68" y="400.72" width="3.25" height="7.92"/><g><path class="cls-6" d="m358.04,373.76l-4.76-6.77s-4.73,10.93-8.82,20.54l.05.24c.56,2.54,3.12,4.11,5.64,3.44h0s8.2-13.72,8.2-13.72l-.31-3.74Z"/><path class="cls-6" d="m344.44,387.53c.32,8.06.64,13.92.77,14.08,0,0,3.7.7,4.9.21l1.05-13.4-.19-.32c-1.42-2.36-4.72-2.65-6.53-.58h0Z"/></g><g><path class="cls-6" d="m361.43,367.6l-8.79.16s1.62,12.26,3.08,22.93l.09.08c2.11,1.85,5.33,1.58,7.11-.59h0s1.05-19.33,1.05-19.33l-2.55-3.25Z"/><path class="cls-6" d="m355.73,390.69c1.11,8.13,2.13,13.12,2.27,13.28,0,0,3.32.74,4.52.26l.41-14.05-.13-.15c-1.96-2.27-5.57-1.93-7.07.67h0Z"/></g><path class="cls-64" d="m348.5,375.35l1.45-.55c4.75-1.81,9.97-1.97,14.82-.46h0c-.02-4.57-.12-14.72-.3-21.19-.19-6.81-3.39-10.34-5.21-11.52-.04-.03-.37-2.38-.37-2.38l-7.55,5.88s.53.92.53.93c-2.83,4.4-3.44,23.43-3.37,29.3Z"/><path class="cls-71" d="m349.43,372.87c4.91-1.87,10.27-2.08,15.31-.66,0,.79.01,1.51.01,2.13-4.85-1.51-10.07-1.35-14.82.46l-1.45.55c0-.58,0-1.3,0-2.12l.93-.36Z"/><polygon class="cls-71" points="358.9 338.45 359.25 341.62 351.87 346.05 351.34 345.12 358.9 338.45"/><path class="cls-69" d="m358.95,341.58h-.03s-.05.04-.05.04c.04-.03.07-.04.07-.04Z"/><path class="cls-69" d="m359.03,353.12l-.02.03s.02-.03.02-.03Z"/><path class="cls-6" d="m362.4,405.29l-.31-3.97-3.73.04-.09,4.01s3.19,1.45,4.14-.08Z"/><g><path class="cls-64" d="m362.6,408.83l-9.9-.02s-.7-1.24,1.21-1.3c.44-.01,3.08-1.02,3.88-1.34.16-.06.33-.09.5-.06h0c1.18.5,2.46.71,3.74.6l.23-.02c.24.04.42.25.41.5l-.08,1.64Z"/><path class="cls-64" d="m362.61,409.24h-9.88s-.14-.36-.03-.75h9.91s0,.75,0,.75Z"/></g><path class="cls-64" d="m356.21,345.48c-4.74,1.02-3.91,4.26-5.61,7.24-1.9,3.33-3.75,6.39-3.75,6.39h0c-.32,1.89,1.15,3.61,3.07,3.59l1.32-.02s7.61-7.55,8.36-12.38c0-.01-1.06-5.34-3.39-4.83Z"/><path class="cls-23" d="m339.39,363.1s-1.43-.37-1.54-.61-.71-1.06-1.78-1.33c-1.07-.27-2.1-1.22-2.1-1.22,0,0-.45.43.08.93s1.19.79,1.19.79c0,0-.28.21-1.07.28-.79.07-1.02.39-1.71.5s-1.84.11-1.86.54,1.55.29,1.81.3c0,0-1.84.01-1.92.25s.58.49,1.56.51c.3,0-.62-.09-.58.24.06.52,1.74.56,1.97.7.18.11.42.18.8.2,1.27.05,2.76-.76,3.03-.63s2.38-.27,2.12-1.45Z"/><path class="cls-64" d="m351.42,358.52c-1.95-1.08-6.29.4-10.42,1.63-3.85,1.14-3.39,1.37-3.39,1.37l1.05,3.74c1.23-.02,4.64-.12,12.5-2.52.01,0,2.61-2.93.26-4.23Z"/><g><g><g><path class="cls-41" d="m341.47,430.76l.17-.35,2.18-.6s1.24-1.42-.64-2.93l-.03-.44c-.02-.25-.23-.43-.48-.42l-1.89.13-.94,5.92.16-.02c.44-.04,1.45-.86,1.48-1.31Z"/><path class="cls-41" d="m340.34,425.99l-1.32,6.11s.42.13.85-.03l1.32-6.14-.85.06Z"/></g><path class="cls-27" d="m350.43,418.37l-9.73.27-.72,5.23c-.05.35-.04.71.05,1.06.35,1.34,1.64,3.04,3.17,3.04h4.82c.69,0,1.31-.45,1.53-1.1l.17-.37c1.03-2.28.71-8.13.71-8.13Z"/><path class="cls-27" d="m342.53,418.37l9.73.27.72,5.23c.05.35.04.71-.05,1.06-.35,1.34-1.64,3.04-3.17,3.04h-4.82c-.69,0-1.31-.45-1.53-1.1l-.17-.37c-1.03-2.28-.71-8.13-.71-8.13Z"/><path class="cls-27" d="m351.05,422.84l8.07-1.17c1.63-.24,3.19.75,3.68,2.32h0c.59,1.9-.62,4.26-2.59,4.48-3.59.41-6.62.59-11.68.51l-1.48-1.97,4.01-4.17Z"/><path class="cls-60" d="m353.85,428.31h0c-.1-.76-.79-1.31-1.56-1.21l-7.53.08c-.76.1,1.74,1.27,1.84,2.04l-3.05-.48c.1.76.79,1.31,1.56,1.21l7.53-.08c.76-.1,1.31-.79,1.21-1.56Z"/><path class="cls-41" d="m353.88,431.12l-.23-.31-2.25-.21s-1.47-1.18.12-3l-.05-.44c-.03-.25.15-.47.4-.49l1.88-.2,1.96,5.67h-.16c-.44.05-1.58-.58-1.69-1.01Z"/><path class="cls-41" d="m354.15,426.23l2.37,5.79s-.39.2-.84.12l-2.37-5.82.84-.09Z"/><path class="cls-27" d="m341.88,423.45l-7.37-1.19c-1.59-.42-3.25.39-3.91,1.89h0c-.8,1.82.16,3.92,2.05,4.53,3.11,1,17.52,1.55,17.55,1.45l.77-3.2-9.09-3.48Z"/></g><g><path class="cls-60" d="m340.06,407.38c-1.11.04-1.96.98-1.9,2.08l.63,10h0c.05.9.81,1.61,1.71,1.58s1.62-.78,1.61-1.68h0s-.03-10.02-.03-10.02c0-1.11-.92-1.99-2.03-1.95h0Z"/><path class="cls-60" d="m352.56,404.91c1.11-.05,2.71,1.74,2.92,4.5l.09,8.92h0c.02.9-.69,1.66-1.59,1.7s-1.67-.66-1.73-1.56h0s-.71-9.99-.71-9.99c-.07-1.1,1.03-3.57,1.03-3.57Z"/></g><g><g><path class="cls-60" d="m344.96,406.07l4.2-.27-.4-7.19c-.06-1.06-1.05-1.86-2.21-1.8h0c-1.16.06-2.05.97-1.99,2.03l.4,7.22Z"/><circle class="cls-53" cx="350.22" cy="393.59" r="2.69"/><path class="cls-60" d="m344.02,393.89s-2.39,1.41-1.83,3.79c0,0-1.18,1.41-.86,1.7l.31.19s.06.06.06.11c-.02.46.36,3,1.1,2.99.81,0,2.5-.36,2.5-.36l-1.28-8.41Z"/><circle class="cls-60" cx="346.63" cy="397.04" r="4.13"/><circle class="cls-7" cx="347.51" cy="399.38" r=".19" transform="translate(-.93 .81) rotate(-.13)"/><path class="cls-53" d="m346.4,392.65c-1,.06-2.19.62-2.95,1.3-.17.15-.11.42.09.51,2.04.88,2.92,2.88,3.17,3.57.03.08.14.09.18.01.71-1.43,1.89-.48,1.32.97-.25.63.56,2.32.69,2.36,0,0,2.22-2.21,2.13-4.64-.08-2.28-2.35-4.2-4.63-4.08Z"/></g><g><path class="cls-60" d="m338.34,411.29l8.33-.05,7.41.09c.43-1.62.58-3.79.24-5-.34-1.21-2.08-1.64-3.82-2.29-1.12-.42-1.52-.99-1.6-1.35,0-.8,0-1.47.01-1.5h.08s0,0,0,0h-.05s-4.53,0-4.53,0c.02.02.02.68.01,1.46-.06.35-.44.96-1.6,1.39-1.74.65-3.12,1.25-3.82,2.29-.8,1.21-1.11,3.34-.67,4.96Z"/><path class="cls-83" d="m340.93,408.66c.26-1.19.75-2.87.8-4.3.35-.13.71-.25,1.07-.39.3-.11.54-.24.73-.36-.02.51,0,1.26.12,2.04.48,1.47,1.4,2.86,3.03,2.97,1.63-.11,2.55-1.5,3.03-2.97.13-.77.14-1.53.12-2.04.19.13.44.25.73.36.36.14.72.26,1.07.39.04,1.4.51,3.03.78,4.22,1.13,1.58-.21,9.49-.14,11.78h-10.04c.07-2.25-2.29-9.91-1.31-11.7Z"/></g></g><path class="cls-60" d="m346.98,428.67c.41-.28.54-.83.29-1.27l-5.29-9.01h0c-.55-.76-1.61-.94-2.39-.4s-.98,1.59-.47,2.37h0s6.56,8.13,6.56,8.13c.32.38.88.46,1.29.17h0Z"/><path class="cls-60" d="m344.84,425.31l2.77,1.2.79,1.67.47,1.28c.02.06-.03.12-.09.11-.19-.02-.54-.1-.76-.37l-.27,1.23-.56.64c-.06.06-.15.09-.22.05h0c-.11-.04-.16-.18-.1-.28l.06-.11-.27.22s-.12.05-.18.04l-.21-.06c-.1-.03-.17-.13-.14-.24l.08-.36-.21.33c-.05.08-.16.11-.24.08l-.09-.04c-.08-.03-.12-.11-.12-.19l.02-.66-.05.14c-.03.09-.13.15-.23.13h-.07c-.08-.03-.14-.1-.15-.18l-.28-2.12-.58-1.23.66-1.29Z"/><g><path class="cls-60" d="m346.66,427.07c-.38-.32-.45-.87-.16-1.28l6.1-8.43h0c.61-.7,1.68-.78,2.39-.18s.81,1.67.23,2.39h0s-7.27,7.44-7.27,7.44c-.35.35-.91.37-1.29.05h0Z"/><path class="cls-60" d="m348.1,423.61s-1.39.96-2.46,1.9c-1.06.94-1.93,1.5-1.93,1.5,0,0,.23.95,1.77-.25,0,0-.2.65-.79.98,0,0-.53.34-.94.27,0,0-.26.25,0,.4s1.07.21,1.07.21l.41.37.35-.07.3.27.45-.21.3-.06c.62-.14,1.16-.54,1.46-1.1l1.34-2.51-1.34-1.7Z"/></g></g></g></g><g><g><path class="cls-21" d="m295.07,369.23l-11.07-4.83h0c-1.06-.35-2.22.21-2.59,1.27s.17,2.22,1.22,2.61h0s11.74,3.28,11.74,3.28l.7-2.33Z"/><g><path class="cls-21" d="m295.72,368.34l2.19-.05.98-.36s.49.11.2.6c0,0,.26.42-.06.76,0,0,.16.69-.18.91,0,0-.02.72-.41.92-.39.2-2.09.82-2.09.82,0,0-.46-.02-1-.08l-.12-3.92.49.4Z"/><path class="cls-21" d="m294.9,368.04l.1.23.4,3.45c-.54-.06-1.42.02-1.75-.14-.65-.33-1.1-2.38,1.25-3.54Z"/><path class="cls-26" d="m295.35,365.61l2.94.04c.28,0,.49.24.47.52l-.48,6.06s0,0,0,0c0,0,0,0,0,.01h0c-.04.33-.74.57-1.58.53-.84-.03-1.52-.33-1.53-.66h0s0-.02,0-.02h0s-.3-5.99-.3-5.99c-.01-.28.21-.51.49-.5Z"/><path class="cls-21" d="m294.53,368.88s1.15-.07,1.33-.47.17-.89-.8-.49c-.98.4-.53.97-.53.97Z"/></g></g><g><path class="cls-49" d="m288.01,349.74c-1.99.41-3.25,2.37-2.81,4.35l2.31,9.91h0c.4,1.76,2.14,2.89,3.92,2.52,1.78-.37,2.93-2.09,2.6-3.87h0s-1.73-10.02-1.73-10.02c-.37-2-2.31-3.31-4.3-2.89h0Z"/><path class="cls-21" d="m285.78,346.17c-.76-.52-2.03-.46-2.8.05l-3.3,1.86c-1.88,1.3-1.06,3.98.7,5.45l4.76,3.97,4.04-3.95c1.56-1.53,1.34-4.1-.46-5.33l-2.94-2.03Z"/><path class="cls-21" d="m284.47,340.8h0c1.31,0,2.38,1.07,2.38,2.38v6.35h-4.76v-6.35c0-1.31,1.07-2.38,2.38-2.38Z"/><g><circle class="cls-13" cx="277.28" cy="352.55" r="1.34"/><circle class="cls-13" cx="288.72" cy="352.55" r="1.34"/></g><path class="cls-21" d="m282.19,408.52v-.02c-.85,0-1.54-.67-1.54-1.53v-5.74c0-.85.69-1.54,1.54-1.54h0c.85,0,1.54.69,1.54,1.54v5.74c0,.85-.69,1.54-1.54,1.54Z"/><rect class="cls-21" x="293.73" y="399.4" width="3.09" height="8.09" rx="1.54" ry="1.54" transform="translate(-40.41 32.94) rotate(-5.98)"/><g><circle class="cls-13" cx="289.26" cy="374" r="2.19"/><circle class="cls-13" cx="281.61" cy="373.93" r="2.19"/></g><path class="cls-45" d="m287.8,374.87c.06-2.65-3.48-4.81-6.13-4.76h0c-2.64.05-4.71,2.28-4.57,4.91l.99,11.88c.07,2.19,1.88,3.92,4.08,3.87,2.19-.04,3.94-1.84,3.92-4.03l1.71-11.87Z"/><path class="cls-45" d="m286.07,387.23c-.08-2.14-1.85-3.86-4.01-3.86s-3.93,1.72-4.01,3.86l1.63,17.94,5.03-.06,1.36-17.88Z"/><path class="cls-45" d="m294.22,374.17c-.4-2.62-2.9-4.37-5.5-3.87h0c-2.59.51-5.97,3.06-5.37,5.63l4.75,11.53c.45,2.14,2.53,3.53,4.69,3.11,2.15-.42,3.56-2.49,3.17-4.65l-1.73-11.75Z"/><path class="cls-45" d="m295.91,385.92c-.48-2.09-2.54-3.44-4.67-3.03-2.12.41-3.54,2.43-3.21,4.55l4.76,18.03,5.29-1.08-2.17-18.47Z"/><g><path class="cls-45" d="m278.09,365.51l-.95,7.95c-.07.57-.07,1.15.06,1.7.46,2.04,2.16,4.64,4.19,4.64l6.56.03v-14.32h-9.85Z"/><path class="cls-45" d="m292.88,365.51l.95,7.95c.07.57.07,1.15-.06,1.7-.46,2.04-2.16,4.64-4.19,4.64l-6.56.03v-14.32h9.85Z"/></g><path class="cls-64" d="m291.43,350.66c-.89-1.31-3.22-3.02-4-3.36-.03-.01.2,1.5-2.2.74l-3.74-1.08c-1.77.51-4.42,3.53-4.52,3.85-3.72,12.12.3,25.79.3,25.79,7.63,3.55,17.16-.81,17.16-.81,0,0,1.68-18.17-3-25.12Z"/><path class="cls-64" d="m276.77,374.55c.29,1.29.51,2.04.51,2.04,7.63,3.55,17.16-.81,17.16-.81h0s0-.04,0-.11c0-.01,0-.02,0-.04,0-.03,0-.07,0-.11,0-.03,0-.06,0-.1,0-.05,0-.1.01-.15,0-.04,0-.08,0-.11,0-.07,0-.13.02-.21,0-.03,0-.07,0-.1.01-.15.02-.33.03-.51,0-.06,0-.12.01-.19,0-.08.01-.17.02-.26,0-.06,0-.12.01-.18-6.06,2.93-11.43,3-17.82.86Z"/><path class="cls-71" d="m287.12,346.47s1.39.5,1.59,1.92l-.06,1.87-1.82-2.07s.65-.35.13-1.25l.17-.47Z"/><g><path class="cls-50" d="m293.38,406.51l.27,2.62,8.64-.91s.32-2.08-1.92-1.73l-2.34-.32-.72-1.43s-1.29-.19-1.66,1.19c0,0-2.39-.48-2.28.59Z"/><path class="cls-50" d="m293.66,409.13l8.67-.94s.06-.42-.07-.85l-8.69.94.09.85Z"/></g><g><path class="cls-50" d="m279.68,406.54v2.63h7.47s.54-2.04-1.73-1.92l-1.08-.57-.57-1.5s-2.24-.79-2.74.54c0,0-1.36-.25-1.36.82Z"/><path class="cls-50" d="m279.68,409.17h7.47s.11-.41.02-.86h-7.49v.86Z"/></g><path class="cls-21" d="m298.06,365.98c1.4-.57,2.1-2.53.6-2.36-4.51.51-13.68,0-14.53,1.12-1.09,1.45.76,3.19.76,3.19,0,0,6.07.91,13.17-1.95Z"/><path class="cls-64" d="m277.65,356.31c.09.37.22.73.37,1.09l4.35,9.42c.77,1.64,5.8-4.11,5.8-4.11l-4.66-9.9c-.71-1.69-3.07-2.67-4.86-2-1.71.64-1.49,3.51-.99,5.51Z"/><polygon class="cls-64" points="287.96 363.35 282.88 367.78 281.92 365.91 286.69 361.92 287.96 363.35"/><g><path class="cls-48" d="m281.28,344.53c-.12-.05-.24-.1-.31-.2s-.06-.27.05-.33c-.44-.06-.73-.52-.76-.96s.15-.87.32-1.27c.08-.19.19-.4.39-.44.14-.02.28.06.4.15.6.47.93,1.23,1.03,1.99.05.39.04.79,0,1.19-.03.25,0,.65-.26.78-.16.08-.38.06-.45-.12-.05-.14.02-.32-.03-.47-.06-.18-.21-.26-.38-.32Z"/><rect class="cls-50" x="288.42" y="341.23" width=".45" height=".81" transform="translate(-61.9 619.39) rotate(-88.2)"/><path class="cls-21" d="m281.48,342.64c-.15-.37-.23-.76-.23-1.18,0-1.7.8-3.76,3.96-3.85,1.01-.03,3.6.85,3.45,3.45.18.23-.03.63-.09.96,1,1.32.09,2.24-.27,3.29.01.12.02.26,0,.41.04.34.02.85-.4,1.12,0,.01,0,.02,0,0-.11.07-.25.13-.43.15-1.12.18-4.34-.61-5.51-3.26-.2-.33-.35-.7-.47-1.1h.01Z"/><path class="cls-32" d="m282.47,342.68c.15.53.21,1.12-.19,1.25-.75.25-.96-1-1.2-1.6-.21-.51-.16-.74.23-.87s1.01.7,1.16,1.22Z"/><path class="cls-84" d="m288.28,345.73c0-.07.01-.14.01-.21,0-.07,0-.13-.01-.2h0c.1-.28.23-.55.36-.81.13-.28-.04-.62-.35-.67-.33-.05-.71.13-.74.11-.42-.16-1.5-.24-1.66.26-.15.5-.18.65.23,1.67.13.42-.03,1.03.01,1.05,0,0,0,0,0,0,.06.01.13.03.19.04,0,0,.01,0,.02,0,.06.01.11.02.17.03,0,0,.02,0,.03,0,.05,0,.1.01.15.02.01,0,.02,0,.03,0,.05,0,.09,0,.13.01.01,0,.03,0,.04,0,.04,0,.08,0,.12,0,.01,0,.03,0,.04,0,.04,0,.07,0,.1,0,.01,0,.03,0,.04,0,.03,0,.06,0,.1,0,.01,0,.02,0,.04,0,.04,0,.08,0,.12-.01.09-.01.17-.03.24-.06.07-.03.13-.06.19-.09,0,0,0,0,0,0,0,0,0,0,0,0,0,0,0,0,0,0,0,0,0,0,0,0,.26-.17.37-.44.4-.7.02-.15.01-.3,0-.42Zm-.17-.22c.05.32-.25-.03-.27-.18-.02-.12.16-.31.09-.38-.21.08-.41.11-.58.1-.05.09.1.24.09.35-.02.16-.05.2-.18.28-.44.26-.99-1.23-.96-1.25.35-.24,1.29-.14,1.29-.14l.09-.02s.44-.05.86-.02c.11,0-.51.68-.42,1.27Z"/><g><g><path class="cls-50" d="m288.43,343.2c-.15,0-.3-.05-.44-.15-.08-.06-.15-.13-.21-.21-.42-.53-.4-1.36-.31-1.53.03-.08.12-.16.25-.21.33-.13,1.07-.17,1.23-.1.06.03.15.08.23.18.07.08.12.2.14.33,0,.01.01.11.02.26.02.64-.22,1.18-.6,1.38-.1.05-.2.08-.31.08Zm-.55-1.68c-.02.15-.02.69.26,1.04h0c.03.05.07.09.12.12.13.09.21.07.26.04.19-.1.37-.46.36-.96,0-.1,0-.18-.01-.2,0-.05-.03-.1-.05-.12-.02-.02-.03-.03-.05-.04-.11-.02-.72.03-.89.11Z"/><path class="cls-50" d="m285.9,343.41c-.19,0-.37-.04-.55-.13-.47-.22-.8-.69-.86-1.24-.01-.12-.02-.24-.01-.29.01-.14.08-.28.17-.38.07-.08.16-.14.28-.19.13-.05,1.88-.29,2.19.08.16.15.35,1.05-.25,1.7-.07.08-.17.17-.28.24h0c-.21.14-.45.21-.69.21Zm.5-1.9c-.45,0-1.16.06-1.31.1-.04.02-.08.04-.11.07-.03.03-.05.08-.05.12,0,.02,0,.09.01.19.05.39.28.73.6.88.27.13.56.11.8-.05h0c.08-.05.14-.1.19-.16.42-.45.26-1.05.23-1.12-.05-.02-.19-.03-.36-.03Z"/><path class="cls-50" d="m287.17,341.73l-.29-.34s.17-.15.44-.17c.22-.02.38.07.44.1l-.22.39h0s-.08-.04-.18-.04c-.1,0-.17.06-.17.06Z"/></g><rect class="cls-50" x="283.35" y="340.78" width=".45" height="2.21" transform="translate(-95.28 573.77) rotate(-81.79)"/></g><path class="cls-48" d="m288.66,340.91c.6-.72.03-1.16-.09-1.25.29-.41.31-1.62,0-2.02-.88-1.15-1.8-.75-1.86-.75-.25-.42-.38-.87-1.55-.84-.49.01-.91.37-1.07.55-1.13-.46-1.7-.01-2.09.39-1.53.37-1.23,1.88-1.17,2.23,0,0,0,0,0,.01-.04.04-.08.07-.13.11-1.12.85-.19,1.63-.19,1.63-.45.24,0,1.97.42,1.8.28-.11.57-.95.76-.76.06.06.68.75,1.11.62.3-.09.45-.79.38-1.06-.04-.14.03-.28.14-.38.97-.86.14-1.64.5-1.86,0,0,1.05-.09,1.44-.78,0,0,.85.61,1.59.2s1.66,1.81,1.66,1.81l.14.36Z"/><g><path class="cls-48" d="m286.7,337.25c-.17-.43-.25-.56-.61-.67-.36-.15-.75-.24-1.13-.5.4-.39.9-.54,1.48-.33.62.18.89,1.17.26,1.51h0Z"/><path class="cls-48" d="m281.24,339.15c-.27.24-.67.4-.71.67-.06.3.09.76.04,1.18-.6-.2-1.01-.65-.93-1.37.14-.72,1.08-.94,1.59-.48h0Z"/></g></g><g><g><ellipse class="cls-71" cx="286.72" cy="349.24" rx=".41" ry=".35" transform="translate(-109.63 566.23) rotate(-79.31)"/><ellipse class="cls-71" cx="286.99" cy="350.91" rx=".41" ry=".35" transform="translate(-111.05 567.85) rotate(-79.31)"/></g><path class="cls-71" d="m282.07,345.94s-.86.26-.87,1.11l4.11,4.26,1.03-3.05s-4-1.06-4.26-2.32Z"/></g></g><path class="cls-21" d="m297.05,364.11l1.37-1.82c.05-.07.12-.14.2-.18l1.86-1.18c.12-.07.27.01.27.15,0,.28-.21.78-1.15,1.56,0,0,.41.5,1.32.18.69-.24,1.85-.48,2.39-.58.16-.03.31.07.34.23h0c.03.15-.05.3-.2.35l-2.15.69,2.07-.46c.16-.04.31.07.34.23h0c.02.14-.06.28-.2.32l-2.1.58,1.96-.29c.17-.03.32.1.33.27h0c0,.14-.08.26-.22.3l-2.28.58,1.64-.15c.18-.02.33.12.34.3h0c0,.16-.11.3-.27.32l-2.18.31s-1.64.84-3.24.3c-1.59-.53-.47-2-.47-2Z"/></g><g><g><rect class="cls-39" x="451.4" y="433.04" width="3.11" height="8.16" rx="1.56" ry="1.56" transform="translate(-139.66 224.87) rotate(-24.28)"/><path class="cls-75" d="m459.07,440.37l-1.28-.19-1.53-1.27c-.58-.37-1.23-.35-1.78.06l-.18.14-2.15-.23c-.27,0-.49.2-.5.46l-.08,2.12,8.76.33h0c-.01-.71-.54-1.32-1.25-1.42Z"/><g><rect class="cls-39" x="443.27" y="439.86" width="3.11" height="8.16" rx="1.56" ry="1.56" transform="translate(24.51 -23.27) rotate(3.08)"/><path class="cls-75" d="m449.77,447.65l-1.28-.19-1.53-1.28c-.58-.38-1.22-.35-1.78.06l-.19.13-2.15-.24c-.27-.01-.49.2-.5.46l-.09,2.12,8.76.36h0c0-.71-.53-1.32-1.24-1.42Z"/><path class="cls-27" d="m430.21,418.61c-2.21-.05-4.02,1.74-3.99,3.96h0c.04,2.2,1.89,4.32,4.09,4.21l16.49-1.16c1.82-.05,3.27-1.56,3.24-3.39-.03-1.83-1.53-3.29-3.35-3.29l-16.48-.33Z"/><path class="cls-27" d="m429.46,410.16c-3.69-.82-6.58,7.26-5.61,13.68.19,1.22.91,2.25,1.5,3.24.49.82,8.35,2.3,10-.42h0c1.28-2.12,1.84-4.76,1.01-7.13-2.02-5.74-3.5-8.61-6.9-9.37Z"/><path class="cls-27" d="m429.67,417.66c-2.31-.36-4.84,3.99-5.11,6.31h0c-.27,2.32,1.38,4.8,3.7,4.99l17.48,1.09c1.92.2,3.66-1.18,3.88-3.11s-1.14-3.67-3.06-3.92l-16.9-5.36Z"/><path class="cls-27" d="m448.51,427.68c.05-1.87-.52-3.56-2.41-3.67-1.89-.11-3.52,1.29-3.7,3.16l-.92,18.63,6.89-.16.14-17.95Z"/><path class="cls-27" d="m449.86,420.99c-.81-1.67-2.81-2.41-4.52-1.65-1.71.76-1.53,2.14-.84,3.87l5.76,17.32,6.09-4.5-6.49-15.03Z"/></g><g><path class="cls-39" d="m434.31,404.8l-3.36-1.43,2.63-6.33c.39-.93,1.46-1.37,2.39-.99h0c.93.39,1.37,1.46.99,2.39l-2.64,6.36Z"/><path class="cls-39" d="m434.8,395.16c-.06.73.5,1.93,1.31,2l.22-2.65c-.79-.45-1.47-.08-1.53.65Z"/><g><g><path class="cls-25" d="m434.85,398.25c-2.28,2.35-3.29,6.53-1.59,9.36.14.24,1.33,2.22,2.71,2.03,1.07-.14,1.88-1.54,2.04-2.74.29-2.24-1.79-2.91-1.91-5.44-.12-2.56,1.89-4.34,1.43-4.73-.35-.3-1.7.51-2.68,1.53Z"/><g><g><path class="cls-39" d="m446.98,409.38c.3.56-.31,1.44-.67,1.68l-7.97,6.07h0c-.57.28-1.39-.17-1.83-1.01s-.35-1.76.21-2.08h0s9.05-4.83,9.05-4.83c.4-.17,1.22.16,1.22.16Z"/><path class="cls-54" d="m432.66,402.63c-1.03.36-.12,3.96.26,4.96l2.61,7.73v.66c.32.82,1.41.53,2.26.23s1.41-3.44,1.14-4.27l-.5-.51s-4.77-9.15-5.8-8.79l.04-.02Z"/></g><path class="cls-40" d="m444.75,410.09s.27-1.43,1.67-1.65c0,0,.81-.17,1.03-.15s1.15-.46,1.35-.13-.78.62-1.47.81c0,0-.05.22.19.2s1.69.05,1.69.05l1.05-.21c.14-.03.28.06.31.21h0c.03.14-.06.28-.2.31l-.93.22s.74-.04.86.37c0,0-.07.2-.49.22s-1.1.12-1.1.12l-.32.35s-.78.12-1.03.07c0,0-.64.19-1.03.15,0,0-.61.56-1.45-.13s-.13-.79-.13-.79Z"/></g><polygon class="cls-39" points="434.19 402.29 436.44 399.52 432.25 396.5 431.75 404.76 436.16 407.41 434.19 402.29"/><path class="cls-54" d="m437.52,408.52c-.13-.63-3.27-6.32-3.27-6.32-.49.68,1.67,4.38,1.03,4.36-1.32-.04-4.24-4.24-4.59-4.92-.29-.07-5.49-.37-6.4,7.27-.15,1.25-.5,3.72-.55,4.54l4.56,1.5c2,.66,4.15.65,6.15,0h0c.22-.92.58-1.55,1.07-2.29.64-.97,2.34-2.47,2.01-4.13Z"/></g><g><path class="cls-39" d="m435.77,393.5s2.63,1.28,1.92,3.91c0,0,.98.81.91,1.45-.01.11-.11.2-.22.23-.17.04-.43.11-.57.14-.05.01-.08.05-.09.1-.05.4-.24,1.95-.85,2.01-.69.07-3.3-1.1-3.3-1.1l2.2-6.74Z"/><circle class="cls-39" cx="433.57" cy="396.93" r="4.03"/></g></g><path class="cls-76" d="m426.13,403.81l-.93,1.55c.67-4.68,3.36-10.13,6.15-11.86,2.28-1.42,4.56-.28,5.58.55.32.26.72.73.77,1.14.07.59-.48,0-.98,0-1.56-.03-2.42.53-2.97,2.52-.55,1.99-1.32,6.41-1.35,10.37-.03,3.96-1.34,5.51-2.02,5.79-.59.25-1.09-.54-1.52-1.43.48-1.32,1.22-3.93,1.18-6.52-.02-1.47-1.35-2.62-2.81-2.45-.49.06-.91.16-1.1.33Z"/></g></g><g><path class="cls-40" d="m433.87,419.49c0-.07.28-1.77,1.13-1.48.65.22.98.5,1.08.87.06.23.19.45.38.6.25.19.54.47.44.69-.16.38-1.22-.22-1.22-.22l1.41,1.08s.56.08,1.01-.16.58-.23.58-.23c0,0,.31.23.03.44s-.71.52-.71.52l.78-.19c.11-.03.23.02.29.12h0c.09.15.02.34-.14.39l-.17.06.41.15c.13.05.2.2.15.33h0c-.04.11-.15.17-.26.16l-1.98-.2c-.09,0-.18-.04-.25-.1l-.62-.49c-.07-.05-.14-.08-.23-.09l-.24-.02c-.11,0-.22-.06-.3-.14l-1.76-1.81.16-.26Z"/><path class="cls-39" d="m425.63,414.49c-.68-.21-1.44-.17-1.76.78s-.03,1.89.64,2.14h0s9.41,2.53,9.41,2.53c.69.23,1.19.43,1.51-.53s.12-.96-.68-1.24l-9.12-3.68Z"/><path class="cls-54" d="m428.18,403.69c-1.17-.31-2.32.23-2.54,1.19l-2.14,8.63-.37.5c-.18.78,1.01,1.17,1.97,1.42s2.3.55,2.52-.22l-.18-.66,2.36-8.58c.28-.94-.46-1.97-1.63-2.28h0Z"/></g></g><g><g><g><path class="cls-8" d="m377.3,372.37h-.03c-.07,1.34.97,2.12,2.31,2.16l10.3.23c.88.02,1.63-.64,1.72-1.52h0c.14-1.41-.92-2.18-2.34-2.28l-9.44-.76c-1.34-.1-2.45.83-2.52,2.17Z"/><path class="cls-8" d="m393.19,362.28c-.62-.16-1.23.08-1.42.57l-3.8,9.55h0c-.24.82.34,1.73,1.33,2.05.99.32,2-.07,2.28-.87h0s2.58-9.94,2.58-9.94c.15-.56-.29-1.17-.97-1.35h0Z"/><path class="cls-18" d="m376.55,371.88h0c-.07,1.34.99,2.48,2.33,2.51l10.42.88-1.07-4.51-9.12-1.15c-1.34-.1-2.51.92-2.57,2.27Z"/><g><rect class="cls-59" x="381.31" y="417.34" width="3.04" height="9.27" rx="1.52" ry="1.52" transform="translate(107.83 -77.02) rotate(13.36)"/><g><path class="cls-27" d="m380.67,423.82c-.39.68-1.06,1.99-.93,2.96l8.62,1.99s.68-.18.66-1.03l-2.27-1.27-2.73-2.95s-1.15.02-1.04.64l-.47.3c-.26.16-.6.1-.78-.14l-.43-.58c-.19-.19-.51-.15-.65.08Z"/><path class="cls-35" d="m388.88,428.35l-1.61-.29-3.57-1.05c-.18-.54-.93-1.07-1.9-1.29-.78-.18-1.51-.12-1.98.11-.08.33-.12.66-.08.95l8.62,1.99s.32-.09.52-.42Z"/></g></g><rect class="cls-59" x="376.29" y="418.17" width="3.04" height="9.27" rx="1.52" ry="1.52"/><g><path class="cls-27" d="m376.12,425.77c-.23.75-.58,2.18-.24,3.09h8.85s.62-.33.41-1.16l-2.5-.72-3.32-2.29s-.83.29-.58.87l-.68.41c-.21.22-.56.23-.79.04l-.55-.47c-.23-.14-.53-.03-.61.23Z"/><path class="cls-35" d="m385.14,428.33l-1.64.08-3.71-.22c-.3-.48-1.14-.83-2.15-.83-.8,0-1.5.22-1.9.55,0,.34.03.67.13.94h8.85s.3-.16.41-.53Z"/></g><g><circle class="cls-13" cx="383.1" cy="396.42" r="2.16"/><circle class="cls-13" cx="376.18" cy="396.46" r="2.16"/></g><g><path class="cls-50" d="m374,385.21l-.72,7.81c-.05.56-.05,2.63.04,3.18.35,2.01,1.64,3.05,3.17,3.05l4.97.03v-14.07h-7.47Z"/><path class="cls-50" d="m384.81,385.21l.72,7.81c.05.56.05,2.63-.04,3.18-.35,2.01-1.64,3.05-3.17,3.05l-4.97.03v-14.07h7.47Z"/></g><path class="cls-50" d="m385.64,395.47c-.38-1.65-2.05-2.66-3.68-2.21h0c-1.63.44-5.17,2.14-4.67,3.75l6.61,13.34c.38,1.34,1.77,2.14,3.13,1.77,1.35-.37,2.16-1.75,1.81-3.1l-3.19-13.54Z"/><path class="cls-50" d="m385.57,393.38c.06-1.69-6.38-4.02-8.07-4.01l.37,3.54c-1.69,0-4.11,1.41-4.04,3.1l1.54,13.92c.03,1.4,1.17,2.52,2.57,2.51s2.53-1.14,2.54-2.54l5.09-16.53Z"/><path class="cls-50" d="m388.96,410.63c.34-1.33-.43-2.7-1.75-3.09s-2.72.33-3.16,1.63l-3.1,11.62,4.21,1.21,3.8-11.37Z"/><circle class="cls-13" cx="376.28" cy="372.36" r="1.31"/><path class="cls-4" d="m380.46,371.58c-.31-1.31-1.63-2.11-2.94-1.77-1.3.34-2.07,1.69-1.69,2.98l3.24,10.91h0s3.91-1.03,3.91-1.03h0s-2.53-11.09-2.53-11.09Z"/><path class="cls-8" d="m379.88,371.62l-4.13-1.57,2.34-6.32c.34-.93,1.55-1.34,2.7-.92h0c1.14.42,1.79,1.52,1.45,2.45l-2.35,6.35Z"/><polygon class="cls-8" points="381.28 369.74 380.43 368.82 378.68 369.71 380.33 370.73 381.28 369.74"/><path class="cls-18" d="m381.28,369.74c-2.23.79-4.65-1.62-4.65-1.62-1.6.63-2.82,2.74-3.14,3.55-1.28,3.32-.74,21.07-.74,21.07,1.88.95,13.51,1.06,13.53.39.48-20.87-5.01-23.4-5.01-23.4Z"/><path class="cls-8" d="m377.84,395.1c.63-.19,1.04-.73.95-1.24l-1.8-9.96h0c-.22-.8-1.24-1.24-2.28-.98-1.05.26-1.73,1.13-1.55,1.95h0s3.1,9.63,3.1,9.63c.17.54.89.81,1.59.6h0Z"/><path class="cls-8" d="m376.13,372.9h0c-1.26-.12-2.37.83-2.45,2.1l-.59,9.29c-.07,1.05.69,1.97,1.72,2.11h0c1.11.16,2.14-.64,2.27-1.75l1.08-9.24c.15-1.26-.77-2.39-2.03-2.51Z"/><path class="cls-18" d="m376.39,370.42h0c-1.34-.12-2.52.89-2.61,2.23l-.68,8.07,5.34.93.1-8.56c.16-1.34-.82-2.54-2.16-2.66Z"/><rect class="cls-54" x="380.59" y="420.98" width="4.64" height="1.5" transform="translate(136.2 -91.7) rotate(16.57)"/><path class="cls-50" d="m380.53,409.71c-.04-1.37-1.17-2.47-2.55-2.48s-2.52,1.09-2.57,2.46l.3,13.13,4.38-.02.45-13.09Z"/><rect class="cls-54" x="375.54" y="422.16" width="4.64" height="1.5" transform="translate(1.6 -1.42) rotate(.22)"/><path class="cls-8" d="m382.91,363.24c-.35-.25-.2-1.28-.2-1.28-.37-1.89-2.5-2.33-2.5-2.33l-3.72,2.79s.5,3.11,1.59,3.93c1.09.82,3.89,1.25,4.63.93.32-.14.43-.46.41-.85,0-.1.05-.57.07-.75.05-.47-.04-1.08-.04-1.08l.31-.2c.5-.38-.2-.9-.56-1.15Z"/><path class="cls-52" d="m380.73,358.37s-1.09-.13-1.61-.37c-.17-.08-.38-.21-.51-.12-.15.09-.12.41-.06.69,0,0-.01,0-.02,0-.26-.17-.45-.15-.53-.13-.03,0-.05.02-.07.03-2.08,0-1.77,1.1-1.77,1.1-3.76,1.52.59,7.9.59,7.9,0,0,.66-1.26.85-1.73.16-.39.24-.7.27-.94-.03-.04-.05-.07-.07-.11-.27-.44-.64-1.57.03-1.74.18-.05.74-.03,1.13,1.02,0,0,0,0,0,0,.27.25.58.53.58.53,0-.05.16-.27.16-.32-.42-2.9,1.37-4.2,1.37-4.2.38.19.62.4.66.43,1.59-1.7-.32-1.96-.99-2.01Z"/><g><ellipse class="cls-80" cx="382.55" cy="363.16" rx=".4" ry="1.13" transform="translate(-2.55 2.7) rotate(-.4)"/><line class="cls-79" x1="382.13" y1="363.16" x2="378.87" y2="363.45"/></g></g><path class="cls-8" d="m392.37,363.37l-1.19-1.39-.38-1.84-.48-1.11-.1-1.31c-.01-.14.1-.27.24-.28h0c.12,0,.22.07.26.18l.43,1.42-.17-1.62c-.02-.15.1-.28.26-.28h0c.11,0,.21.08.25.19l.33,1.15.05-.53c.01-.14.14-.24.28-.23h.07c.13.02.22.13.23.25l.07,1.9.61.71.21-1.86c.02-.15.16-.25.31-.22h.02c.12.03.21.14.21.26l-.05,1.95s.83,2.53.04,3.35-1.47-.69-1.47-.69Z"/></g><path class="cls-8" d="m378.29,392.26l.53,1.47c.07.18.2.34.37.43l.73.38c.15.08.27.2.34.35l.47.95-3.85,1.23s-.69-1.78-.42-3.42c.27-1.64,1.83-1.38,1.83-1.38Z"/></g><g><path class="cls-34" d="m171.14,406.4l11.65,3.02s1.42,1.46,1.07,2.55c-.35,1.09-1.39,1.73-2.35,1.45l-11.17-5.39.81-1.63Z"/><path class="cls-34" d="m193.04,409.92l-10.17,3.51h0c-.96.27-2-.38-2.34-1.47-.34-1.09.15-2.22,1.09-2.54h0s9.59-3.79,9.59-3.79l1.83,4.29Z"/><polygon class="cls-71" points="193.51 404.36 184.43 408.02 184.63 413.56 191.08 410.72 193.51 404.36"/><g><g><rect class="cls-34" x="170.93" y="434.05" width="3.23" height="8.48" rx="1.62" ry="1.62" transform="translate(418.11 840.23) rotate(170.07)"/><path class="cls-47" d="m166.37,440.98l1.39.03,2.74-1.16s1.15-2.04,2.04.61l2.17.28c.28.04.48.3.44.58l-.3,2.25-10.05-1.32h0c.14-.75.8-1.29,1.57-1.28Z"/><path class="cls-27" d="m164.58,424.54c-.23-1.86,1.06-3.58,2.92-3.88,1.86-.3,3.63.94,3.99,2.77l2.88,15.51-3.8.12-6-14.52Z"/><path class="cls-27" d="m178.35,420.7c10.79.54,10.3,3.13,10.12,5.44l.04-.03c-.18,2.3-1.37,3.88-4.97,3.89l-15.87-2.81c-1.9-.17-3.32-1.84-3.17-3.75.15-1.91,1.8-3.34,3.71-3.22l10.14.48Z"/></g><g><rect class="cls-34" x="174.07" y="434.68" width="3.23" height="8.48" rx="1.62" ry="1.62" transform="translate(424.44 840.96) rotate(170.07)"/><path class="cls-70" d="m169.5,441.62l1.39.03,2.74-1.16s1.15-2.04,2.04.61l2.17.28c.28.04.48.3.44.58l-.3,2.25-10.05-1.32h0c.14-.75.8-1.29,1.57-1.28Z"/><path class="cls-27" d="m167.72,425.18c-.23-1.86,1.06-3.58,2.92-3.88,1.86-.3,3.63.94,3.99,2.77l2.88,15.51-3.8.12-6-14.52Z"/><path class="cls-27" d="m181.48,421.33c10.79.54,10.3,3.13,10.12,5.44l.04-.03c-.18,2.3-1.37,3.88-4.97,3.89l-15.87-2.81c-1.9-.17-3.32-1.84-3.17-3.75.15-1.91,1.8-3.34,3.71-3.22l10.14.48Z"/></g><g><circle class="cls-13" cx="193.28" cy="409.6" r="1.4"/><path class="cls-34" d="m196.09,406.21l-4.6,1.42-2.22-6.98c-.33-1.03.44-2.19,1.7-2.59h0c1.27-.4,2.56.1,2.89,1.13l2.23,7.02Z"/><path class="cls-34" d="m189.03,398.26c-.47-.89,1.3-2.87,1.89-3.1.55-.3,1.14-.4,1.98-.28,2.24.34,3.81,2.12,3.47,4.36-.41,2.64-3.74,3.52-3.74,3.52,0,0-2.31.43-3.04.51-1.78.17-1.72-1.18-1.64-1.49.09-.36.22-1.74.22-1.74-.43-.08-.34-.39-.34-.39-.08-.13,1.21-1.38,1.21-1.38Z"/><path class="cls-42" d="m193.58,399.09s-.86.53-1.21.28c-.31-.23.04-1.38-.64-2.02s.43-.86.29-1.35-.87-.8-1.45-.63c0,0-.83-.26-.37-.97.58-.89,2.55-.77,4.72.25,2.98,1.4,2.53,6.81-.42,7.86,0,0-.8-.5-.5-1.1.01-.03.85-1.31.45-2.01-.31-.53-.87-.3-.87-.3Z"/></g><path class="cls-71" d="m182.5,421.52s2.19-4.54,4.18-10.14c1.99-5.6,6.12-7.8,8.37-8.55.26-.09,4.61,2.61,3.85,12.9-.23,3.03-3.14,10.35-3.14,10.35-6.39.88-13.25-4.55-13.25-4.55Z"/><path class="cls-34" d="m194.15,406.44c1.34.38,2.11,1.79,1.7,3.13l-3.57,11.25h0c-.33,1.09-1.48,1.72-2.58,1.41-1.1-.31-1.75-1.45-1.46-2.55h0s2.84-11.45,2.84-11.45c.34-1.35,1.74-2.16,3.08-1.78h0Z"/><path class="cls-34" d="m176.5,419.83c0-.61.48-1.1,1.09-1.13l12.59-.59h0c1.14.06,2.03,1.02,1.99,2.17s-.98,2.05-2.12,2.04h0s-12.53-1.33-12.53-1.33c-.59-.06-1.03-.56-1.02-1.15h0Z"/><path class="cls-34" d="m177.57,418.74l-2.45-.95-1.61.05-1.19.93s-.26.57.16.69c0,0-.24.55.15.73,0,0,.13.6.44.62s.51-.02.51-.02c0,0,.02.51.31.55s2.68.02,2.98-.13c.15-.08.86-.67,1.49-1.21.43-.37.24-1.08-.32-1.19l-.47-.09Z"/><path class="cls-71" d="m192.81,422.22l-5.47-4.19,2.76-9.49c.51-1.77,2.37-2.79,4.14-2.26h0c1.79.53,2.8,2.43,2.22,4.21l-3.66,11.74Z"/><path class="cls-46" d="m197.12,424.14s-10.25-2.82-15.7,6l14.4,4.02,1.29-10.02Z"/><g><path class="cls-77" d="m173.11,445.46l1.96-11.95c.19-.94.76-1.76,1.6-2.29.84-.52,1.84-.67,2.79-.41l17.77,4.82,1.42-16.13-2.23-.2-1.18,13.47-15.19-4.12c-1.54-.42-3.2-.17-4.56.67-1.36.84-2.31,2.22-2.62,3.79l-1.96,11.99,2.21.36Z"/><rect class="cls-77" x="170.56" y="437.06" width="2.23" height="14.25" transform="translate(-295.49 536.51) rotate(-80.05)"/><rect class="cls-77" x="182.95" y="433.88" width="16.6" height="2.23"/><polygon class="cls-77" points="175.39 444.58 175.63 442.58 188.06 432.4 186.64 430.67 173.52 441.42 173.17 444.32 175.39 444.58"/><path class="cls-57" d="m174.54,449.07c-.72-.02-1.38-.41-1.82-1.08-.36-.55-.55-1.26-.53-1.99.05-1.66,1.13-2.94,2.47-2.94.02,0,.04,0,.06,0,1.37.04,2.4,1.39,2.35,3.07h0c-.05,1.66-1.13,2.94-2.47,2.94-.02,0-.04,0-.06,0Zm.11-3.73c-.09.11-.22.35-.23.72-.01.37.1.62.19.73.09-.11.22-.35.23-.72s-.1-.62-.19-.73Z"/></g><g><path class="cls-46" d="m180.4,436.73c0-6.81,5.54-12.35,12.35-12.35,6.81,0,12.35,5.54,12.35,12.35,0,6.81-5.54,12.35-12.35,12.35-6.81,0-12.35-5.54-12.35-12.35Zm2.23,0c0,5.58,4.54,10.11,10.11,10.11,5.58,0,10.11-4.54,10.11-10.11s-4.54-10.11-10.11-10.11c-5.58,0-10.11,4.54-10.11,10.11Z"/><path class="cls-72" d="m181.64,436.73c0-6.13,4.98-11.11,11.11-11.11,6.13,0,11.11,4.98,11.11,11.11,0,6.13-4.98,11.11-11.11,11.11-6.13,0-11.11-4.98-11.11-11.11Zm.74,0c0,5.72,4.65,10.37,10.37,10.37,5.72,0,10.37-4.65,10.37-10.37,0-5.72-4.65-10.37-10.37-10.37-5.72,0-10.37,4.65-10.37,10.37Z"/><g><circle class="cls-72" cx="192.75" cy="436.73" r="1.91"/><rect class="cls-72" x="181.81" y="436.41" width="21.77" height=".74" transform="translate(-283.5 470.65) rotate(-70.26)"/><rect class="cls-72" x="181.82" y="436.43" width="21.77" height=".74" transform="translate(-236.65 228.02) rotate(-40.26)"/><rect class="cls-72" x="181.82" y="436.44" width="21.77" height=".74" transform="translate(-74.74 41.32) rotate(-10.26)"/><rect class="cls-72" x="192.32" y="425.94" width=".74" height="21.77" transform="translate(-283.55 470.62) rotate(-70.26)"/><rect class="cls-72" x="192.3" y="425.95" width=".74" height="21.77" transform="translate(-236.76 228.19) rotate(-40.29)"/><rect class="cls-72" x="192.28" y="425.94" width=".74" height="21.77" transform="translate(-74.55 41.18) rotate(-10.23)"/></g></g><path class="cls-77" d="m201.38,422.06c.57,0,1.05-.43,1.11-1,.06-.61-.38-1.16-1-1.23l-3.73-.39c-.61-.07-1.16.38-1.23,1-.06.61.38,1.16,1,1.23l3.73.39s.08,0,.12,0Z"/></g></g><g><g><path class="cls-10" d="m304,444.87v-.02c.87-.09,1.51-.85,1.42-1.72l-.59-5.88c-.09-.87-.87-1.51-1.74-1.42h0c-.87.09-1.51.87-1.42,1.74l.59,5.88c.09.87.87,1.51,1.74,1.42Z"/><path class="cls-10" d="m300.15,444.34h0c.31.31.82.33,1.14.01l2.34-.26c.32-.31.14-2.67-.17-2.99h0c-.31-.32-.83-.33-1.15-.01l-2.16,2.11c-.32.31-.33.83-.01,1.15Z"/><path class="cls-41" d="m301.98,444.17l3.85-.2.08.76-9.16.92s-.07-2.21,2.38-2.33l1.48-.76.64-.67s.61,1.12.73,2.28Z"/></g><path class="cls-44" d="m318.6,417.48c2.45.28,3.26,5.79,3.26,5.79-.36,3.16-2.26,4.42-4.68,3.98l-15.09-.32c-2.01-.33-4.09-1.48-3.81-3.34s1.27-2.9,3.85-3.45l16.47-2.65Z"/><path class="cls-44" d="m298.3,424.03c-.06-1.84,1.35-3.41,3.2-3.54s3.47,1.23,3.66,3.06l.88,19.06-6.84-.12-.9-18.46Z"/><polygon class="cls-45" points="306.01 441.09 306.07 442.66 299.23 442.54 299.07 440.85 306.01 441.09"/><g><path class="cls-10" d="m306.61,447.53v-.02c.87-.13,1.46-.92,1.33-1.79l-.88-5.84c-.13-.87-.94-1.46-1.81-1.33h0c-.87.13-1.46.94-1.33,1.81l.88,5.84c.13.87.94,1.46,1.81,1.33Z"/><path class="cls-10" d="m302.74,447.2h0c.33.3.19.89.49.56l3.37-.25c.3-.33-.39-3.41-.72-3.71h0c-.33-.3-.84-.28-1.15.04l-2.05,2.21c-.3.33-.28.84.04,1.15Z"/><path class="cls-41" d="m303.62,447.41l4.73-.63.11.76-10,1.61s-.18-2.2,2.26-2.45l1.44-.84.61-.7s.67,1.09.84,2.24Z"/></g><path class="cls-10" d="m317.81,402.49l4.49-1.34-1.97-6.79c-.29-1-1.53-1.52-2.77-1.16h0c-1.24.36-2.01,1.46-1.72,2.46l1.98,6.83Z"/><path class="cls-59" d="m319.82,419.2c2.47.16,3.55,5.62,3.55,5.62-.2,3.17-2.04,4.53-4.48,4.21l-15.08.68c-2.03-.23-4.16-1.28-3.97-3.15s1.12-2.96,3.67-3.64l16.31-3.72Z"/><path class="cls-59" d="m299.87,427.01c-.16-1.83,1.17-3.48,3.02-3.7,1.84-.22,3.53,1.06,3.81,2.87l1.83,18.99-6.84.23-1.82-18.39Z"/><polygon class="cls-45" points="308.42 443.66 308.57 445.23 301.73 445.44 301.49 443.77 308.42 443.66"/><path class="cls-10" d="m313.03,395c.13-.3.53-.68.84-.93.17-.14.27-.36.25-.57-.04-.34.11-.84.3-1.32.42-1.06,1.21-1.96,2.26-2.4.4-.17.84-.27,1.27-.23,2,.21,3.92,2.4,3.71,4.4-.17,1.64-2.72,3.44-2.65,3.48,0,0-1.84,1.31-3.76,1.35-1.28.03-1.86-.77-1.64-2.22.03-.2.07-.41.12-.63s-.07-.47-.28-.51c-.34-.08-.44-.33-.4-.42Z"/><path class="cls-63" d="m319.25,393.76c-.45-.25-.8.21-1.1.52-.43.44.22-1.86.27-2.38.14-1.32-1.12-2.04-2.99-1.31,0,0-.15-.72,1-1.34,2.46-1.33,6.57.57,6.14,4.25-.21,1.81-1.01,3.12-1.84,3.81,0,0-1.27-2.02-1.19-2.24.16-.44.13-1.07-.3-1.31Z"/><g><path class="cls-10" d="m305.35,415.33s-1.25-.33-1.34-.54-.61-.93-1.54-1.17-1.83-1.08-1.83-1.08c0,0-.4.37.06.81s1.04.7,1.04.7c0,0-.25.18-.93.24s-.9.33-1.5.42-1.6.08-1.62.46,1.35.27,1.58.28c0,0-1.61,0-1.68.21s.5.43,1.36.45c.26,0-.54-.08-.51.2.05.46,1.51.5,1.71.62.16.09.36.16.69.18,1.11.05,3.95-.5,4.19-.39s.53-.36.32-1.39Z"/><path class="cls-88" d="m321.66,400.9c-4.21.3-3.89,3.2-5.72,5.57-2.04,2.65-4.01,5.06-4.01,5.06h0c-.51,1.59.55,3.26,2.21,3.47l1.14.15s7.48-5.59,8.72-9.67c0,0-.26-4.73-2.34-4.58Z"/><path class="cls-86" d="m314.7,411.76c-1.65-1.03-10.71,2.79-10.71,2.79l.41,3.01c1.07.04,2.93-.4,9.88-2.14.01,0,2.4-2.43.42-3.67Z"/></g><path class="cls-87" d="m321.56,398.11s0,.07.08.08c9.03.54,2.55,28.75,2.55,28.75,0,0-10-5.23-12.42-6.31,0,0,2.86-14.08,4.76-18.56l5.04-3.96Z"/><path class="cls-81" d="m325.71,417.95s.01.08.04.2c0,0,0,.02,0,.03-.06.44-.12.87-.18,1.3,0,.02,0,.03,0,.05-.5,3.35-1.06,6.03-1.27,7.01,0,0,0,0,0,.01-.05.25-.09.38-.09.38h0s-4.24-2.22-7.86-4.06l9.38-4.92Z"/><path class="cls-82" d="m323.5,403.1c1.41-.05,2.58,1.08,2.59,2.49v11.91s0,0,0,0c.02,1.15-.89,2.11-2.05,2.15s-2.13-.86-2.19-2.01h0s-.78-11.89-.78-11.89c-.08-1.41,1.01-2.61,2.42-2.65h0Z"/><path class="cls-10" d="m311.69,422.07l-2.76,1.13-1.13.9s-.06.06-.08.09l-.55,1.12c-.09.18-.01.39.16.47h0c.17.08.37.02.46-.15l.43-.8s.06-.08.11-.11l.85-.47-.87.71-.37.84c-.07.15,0,.33.14.41h0c.15.08.34.03.43-.12l.35-.62.78-.51-.64.75-.14.32c-.06.14,0,.31.13.38h0c.15.08.34.01.4-.14l.18-.4.81-.57-.58.69-.15.23c-.09.13-.05.31.08.4h0c.11.08.25.07.36-.01l.4-.32,2.01-1.41.6-.97s.35-1.31-1.41-1.83Z"/><rect class="cls-10" x="312.75" y="419.37" width="2.71" height="7.11" rx="1.36" ry="1.36" transform="translate(5.22 849.69) rotate(-107.5)"/><path class="cls-101" d="m323.11,415.87c1.05-.48,2.29-.03,2.79,1.01.5,1.04.07,2.29-.96,2.81h0s-11.82,5.66-11.82,5.66l-1.83-3.83,11.82-5.66h0Z"/><polygon class="cls-102" points="322.41 396.95 323.89 399.11 316.55 402.09 322.41 396.95"/><polygon class="cls-100" points="322.41 396.95 323.87 398.24 316.52 402.07 322.41 396.95"/></g><g><g><circle class="cls-15" cx="509.99" cy="411.92" r="2.2"/><circle class="cls-15" cx="517" cy="411.92" r="2.2"/></g><path class="cls-64" d="m519.81,391.5l6.59,6.87h0c.71.68.76,1.81.09,2.54-.67.73-1.79.79-2.53.14h0s-7.07-4.64-7.07-4.64c-.91-.79,2.06-5.74,2.93-4.91Z"/><g><path class="cls-27" d="m518.17,403.88l1.86,7.31c.05.4.05.81-.04,1.21-.36,1.45-1.67,3.3-3.24,3.3l-5.07.02-.18-11.84h6.66Z"/><path class="cls-27" d="m508.49,403.79l-2.12,7.41c-.05.4-.05.81.04,1.21.36,1.45,1.67,3.3,3.24,3.3l5.07.02.11-11.87-6.34-.07Z"/><path class="cls-27" d="m516.75,408c2.12.02,3.9,1.07,4.13,7.15,0,0-1.58,15.61-3.02,15.6s-3.89-.94-3.89-2.37l-1.05-14.79c-.15-2.14,1.68-5.64,3.83-5.63v.05Z"/><g><rect class="cls-30" x="502.65" y="439.24" width="3" height="9.22" rx="1.5" ry="1.5" transform="translate(1073.85 799.66) rotate(170.63)"/><path class="cls-30" d="m498.88,447.54l.46-.07,3.59-2.53s2.88-.37,2.88-.01v2.14c0,1.1-.89,1.99-1.99,1.99h-6.1v-.23c.02-.65.51-1.2,1.15-1.29Z"/><path class="cls-44" d="m499.31,447.4s1.29.24,1.11,1.65h3.2s-.1-2.76-2.1-3.4l-2.21,1.75Z"/><rect class="cls-44" x="497.41" y="448.4" width="8.8" height=".67" transform="translate(1003.62 897.46) rotate(-180)"/><line class="cls-4" x1="506.35" y1="448.94" x2="496.86" y2="448.94"/></g><g><rect class="cls-30" x="513.45" y="438.5" width="3.01" height="9.16" rx="1.5" ry="1.5"/><path class="cls-30" d="m518.8,447.52l-.35-.07-2.45-2.42s-2.55-.5-2.55-.14v4.17s6.24,0,6.24,0v-.23c-.02-.66-.39-1.21-.89-1.3Z"/><path class="cls-44" d="m518.38,447.38s-2.95.24-2.77,1.66l-2.06-.19s.69-3,3.36-2.97l1.47,1.49Z"/><rect class="cls-44" x="513.04" y="448.38" width="6.62" height=".67"/></g><path class="cls-27" d="m514.1,428.94c.22-1.23,2.72-.93,4.13-.74s-.97,14.76-.97,14.76l-4.37.28v-2.67c.02-3.9.42-7.8,1.21-11.62h0Z"/><path class="cls-27" d="m514.13,409.47c-1.81-1.1-4.27-2.82-7.68,2.22,0,0-7.83,17.26-6.6,18.01,1.23.75,3.8,1.25,4.56.04l8.69-12.01c1.26-1.74,2.8-7.07.97-8.19l.06-.06Z"/><path class="cls-27" d="m504.19,428.8c-.22-1.23-2.72-.93-4.13-.74s1.74,15.56,1.74,15.56l4.37.28v-2.67c-.02-3.9-1.2-8.6-1.98-12.43h0Z"/></g><path class="cls-30" d="m519.24,406s-1.31.74-1.1,1.56.46,1.38.35,2.09-.04,1.31.28,1.17.6-1.45.6-1.45l1.13,2.3s.11-2.33-.31-3.85-.96-1.81-.96-1.81Z"/><path class="cls-64" d="m507.8,393.38c1.59-.74,3.93-1.29,4.98-1.61h.56c1.05.32,3.39.87,4.98,1.61,1.47.69,0,8.51.07,10.8h-10.3c.07-2.3-1.77-10.11-.3-10.8Z"/><g><path class="cls-30" d="m510.91,393.63l3.79-.04-.02-7.11c0-1.05-.85-1.89-1.9-1.89h0c-1.05,0-1.89.85-1.89,1.9l.02,7.15Z"/><path class="cls-30" d="m508.27,390.14c1.77-.37,2.54-1.18,2.37-3.13-.02-.22-.05-.43-.08-.63l3.66.6.47.53c0,1.56.75,2.28,2.32,2.62l.17.19-3.33,5.65-3.88-1.97-1.99-3.36.31-.5Z"/><path class="cls-64" d="m516.45,389.81s-3.37,5.89-7.88.16c0,0-3.81,1.71-4.01,4.93l7.99,2.34,8.89-3.68s-1.78-3.39-4.98-3.75Z"/></g><g><path class="cls-30" d="m511.2,392.11l3.65-.65-1.16-6.87c-.17-1.01-1.13-1.69-2.14-1.52h0c-1.01.17-1.69,1.13-1.52,2.14l1.17,6.91Z"/><g><path class="cls-30" d="m514.39,384.98c.76-2.08.99-4.41-1.07-5.16s-3.56.84-4.42,2.79c-.11.25.01.45-.08.79-.2.72-.8.75-.54,1.66.1.33.35,1.18.19,1.73-.07.22-.25,1.17,1.08,1.15,0,0,1.07-.01,1.5-.09.92-.17,2.4-.29,3.35-2.86Z"/><path class="cls-30" d="m514.72,384.73c-.59-.03-.82.4-.89.72-.1.44-.16.72-.39,1.17.88.39,1.49-.48,1.71-.98.22-.5-.03-.89-.43-.91Z"/><circle class="cls-65" cx="513.8" cy="386.44" r=".17"/><path class="cls-8" d="m516.27,382.62c-.05-2.5-3-3.23-4.48-2.97-1.32.23-1.97,1.34-1.97,1.34,0,0,.02,0,.04-.01.17.1,1.53.87,2.89.83.56.35.69,2.06.73,2.93.02.48.34.44.6.2.26-.24,1.09-.39,1.14.31.06.92-.62,1.72-.62,1.72,0,0,1.7-1.85,1.66-4.35Z"/></g><path class="cls-8" d="m516.83,387.11c-.36,1.8-.07,2.36.15,2.83.17.36.08.79-.22,1.05-.69.6-1.89,1.27-2.6,1.54-.78-1.8-.35-5.44-.18-5.87.24-.23,1.07-.8,1.17-1.03.12-.26.1-.5,0-.66.2-.65.31-1.32.21-2.1-.27-2-.9-2.81-.9-2.81,0,0,3.52,1.34,2.38,7.05Z"/></g><g><rect class="cls-30" x="519.34" y="402.76" width="2.29" height="6.01" rx="1.15" ry="1.15" transform="translate(667.69 1049.1) rotate(-140.83)"/><path class="cls-64" d="m523.9,398.75c.68-.71,1.8-.76,2.53-.09.73.67.79,1.79.14,2.53h0s-4.1,4.84-4.1,4.84c-.67.74-3.62-1.53-2.95-2.27l4.37-5.01h0Z"/></g><path class="cls-30" d="m503.21,405.7c-1.05,5.1-.45,11.66-.45,11.66.45.68,1.22.41,1.49-.35,0,0,1.62-7.01,1.49-11.04,0,0-2.38-1.03-2.54-.27Z"/><path class="cls-64" d="m508.2,395.43l-1.78,10.76h0c-.15.97-1.05,1.65-2.03,1.52-.98-.13-1.67-1.02-1.56-2h0s.3-12.59,3.34-13.72c0,0,2.22,2.25,2.03,3.44Z"/><path class="cls-30" d="m504.22,421.6c.09-.18.03-.39.03-.39h0c.14-.28-.19-.71-.19-.71l.07-.61.31-.84h0c.12.09.17.72.26,1.13.04.16.11.26.19.32.12.08.29.03.34-.11.19-.51-.12-1.3-.12-1.3l-.06-.82s.17-1.25-.22-1.68c-.38-.44-.59-.73-.59-.73l-1.6.46v1.07c-.18.59.03,1.5.07,1.67,0,.02.01.04.03.06l.13.18h0l.13.82.08.07-.02.02.13.35.32.27h0l.51.78c.04.07.15.07.18,0Z"/></g><g><g><rect class="cls-17" x="404.04" y="440.14" width="3.12" height="8.18" rx="1.56" ry="1.56"/><path class="cls-27" d="m405.2,428.5c-.08-2.16-1.86-3.9-4.05-3.9s-3.97,1.73-4.05,3.9l3.95,16.47,6.92-.06-2.78-16.41Z"/><path class="cls-27" d="m406.74,429.27c1.04-1.06-.5-9.59-.5-9.59.21.04-7.6-.25-7.68-.04l-1.7,7.1c-.51.92.44,2.62,2.15,3.89l7.72-1.36Z"/><path class="cls-27" d="m415.18,429.49l-9.06-.17c-1.04-1.06-.48-7.65-.48-7.65-.21.04,6.42-1.92,6.5-1.72l8.06,4.57c.51.92-1.39,4.77-3.11,6.03h0c-1.71,1.26-1.18-.31-1.92-1.06Z"/><path class="cls-64" d="m407.72,448.65l-.47-2.73h-.53c-.24-.35-.65-.59-1.13-.59s-.89.23-1.13.59h-.48l-.57,1.99c-.63.42-.84,1.06-.84,1.67h5.14v-.93Z"/><g><rect class="cls-17" x="411.52" y="439.97" width="3.12" height="8.18" rx="1.56" ry="1.56"/><path class="cls-64" d="m419.15,448.09c-.46-.24-1.48-.28-2.22-.54-1.32-.46-1.44-1.02-2.12-2.54-.05-.11-.24.02-.25.15l-.19.74c-.69.68-2.1.37-2.86-.21l-.12-.09s-.09,0-.09.05v3.82h2.91s5.57,0,5.57,0v-.33c0-.44-.23-.84-.63-1.05Z"/><path class="cls-27" d="m421.81,427.22c-.08-1.88-1.86-3.39-4.05-3.39s-3.97,1.51-4.05,3.39l-3.22,17.54,6.92-.05,4.39-17.49Z"/></g></g><g><rect class="cls-17" x="414.45" y="419.04" width="1.93" height="5.07" rx=".97" ry=".97" transform="translate(1007.07 406.39) rotate(133.11)"/><path class="cls-17" d="m416.94,421.82l3.12,1.22,1.21,1.84v1.34s-.69-.31-.78-1.08l-1.14-.88-1.37.07s1.53.69,1.26,1.37c0,0-1.37-.65-1.76-.76s-2.01-2.13-2.01-2.13c0,0-.26-1.9,1.47-1Z"/><path class="cls-12" d="m414.01,421.52s-.2.46.76.87l1.12.96,1.32-1.41-.91-.98s-.09-4.2-2.94-7.25c-2.85-3.05-2.04,5.62-2.04,5.62l2.7,2.19Z"/></g><g><g><circle class="cls-13" cx="399.52" cy="402.9" r="1.31"/><circle class="cls-13" cx="408.98" cy="402.9" r="1.31"/></g><g><circle class="cls-13" cx="409.48" cy="424.91" r="2.22"/><circle class="cls-13" cx="402.41" cy="424.91" r="2.22"/></g><g><path class="cls-27" d="m398.89,417.8l-.74,5.7c-.05.41-.05.82.04,1.22.36,1.47,1.69,3.33,3.27,3.33l5.12.02v-10.27h-7.69Z"/><path class="cls-27" d="m413.57,417.8l.74,5.7c.05.41.05.82-.04,1.22-.36,1.47-1.69,3.33-3.27,3.33l-5.12.02v-10.27h7.69Z"/><path class="cls-17" d="m406.83,401.11l-3.75-.04v-6.93c0-1.02.84-1.85,1.88-1.85h0c1.04,0,1.88.83,1.88,1.85v6.97Z"/><path class="cls-17" d="m404.95,397.44l-4.64,2.6c-1.92,1.68-1.43,4.67.36,6.15l4.86,4.01,4.11-3.99c1.59-1.54,1.59-4.45-.19-5.79l-4.51-2.99Z"/><path class="cls-19" d="m412.85,409.42c.06-2.9-.96-5.75-2.97-7.85-.81-.85-1.21-1.95-2.18-2.37-.03-.01-.05-.02-.08-.03,0,0-1.71,1.77-3.66.74l-1.5-1.08c-1.65.47-3.82,2.62-4.35,3.81-1.2,2.7-1.11,11.99-1,16.15.02.64.41,1.21,1.01,1.44,5.14,1.95,10.89,1.58,14.27,1.16,1.15-.14.33-5.3.33-5.3l.14-6.67Z"/></g><path class="cls-12" d="m414.12,420.02l-.74-13.11c.06-2.31-.96-4.57-2.97-6.24-.81-.67-1.73-1.21-2.69-1.55l.37,2.94s1.05,15.91.56,19.57l.06.88c1.72-.05,3.5-.21,4.64-.32,1.15-.11.96-1.27.76-2.18Z"/><path class="cls-16" d="m406.83,397.13v1.83c.1.16.23.28.34.44.7.99.92,3.64.92,3.64.29-.87,1.1-1.36,1.74-1.74.55-.33.73-1.06.37-1.6-.84-1.23-2.51-2.15-3.37-2.57Z"/><path class="cls-12" d="m407.01,408.92c-.22-4.71-1.83-6.66-1.83-6.66l-.99-2.49c-.08-.03-.16-.05-.24-.08l-1.5-.86c-1.65.38-4.43,2.02-4.97,2.97-1.2,2.14-.63,16.59-.52,19.9.02.51.41.96,1.01,1.14,2.9.87,5.97-.16,9.01-.16.03-2.12.21-9.82.03-13.77Z"/><g><g><path class="cls-17" d="m397.44,426.28s2.26,1.36,2.28,3.02c.02,1.66.21,2.85.21,2.85,0,0-1,.54-1.18-1.73,0,0-.41.68-.23,1.45,0,0,.13.72.5,1.02,0,0-.01.42-.35.31s-1.02-.76-1.02-.76l-.65-.07-.22-.35-.47-.05-.17-.55-.18-.31c-.37-.65-.44-1.42-.19-2.13l1.11-3.13.53.43Z"/><rect class="cls-17" x="396.02" y="421.82" width="2.67" height="6.98" rx="1.33" ry="1.33" transform="translate(-31.67 31.97) rotate(-4.43)"/></g><path class="cls-12" d="m400.6,401.03c-1.42-.41-2.9.43-3.28,1.86l-2.97,11.39h0c-.31,1.17.36,2.38,1.52,2.72,1.17.34,2.38-.32,2.74-1.47h0s3.74-11.16,3.74-11.16c.45-1.41-.35-2.91-1.77-3.32h0Z"/><path class="cls-12" d="m398.72,415.04c-.12-1.2-1.18-2.09-2.39-2-1.21.1-2.11,1.14-2.04,2.35h0s.79,9.92.79,9.92c.1,1.23,1.17,2.14,2.4,2.04s2.14-1.17,2.04-2.4l-.79-9.92h0Z"/></g><g><path class="cls-17" d="m409.25,393.98c-.04-.16.03-.88.03-1.04,0-.43-.1-1.06-.4-1.68-.47-1.16-1.41-2.09-2.89-2.16-3.31-.16-4.31,1.88-4.31,3.67,0,.75.26,1.45.68,2,.44.78,3.93,4.38,5.73,3.32.41-.24,1.49-2.85,1.15-4.12Z"/><path class="cls-68" d="m404.07,388.89c2.33-1.12,5.69,1.58,5.15,3.32-.45-1.37-3.16-3.96-4.92.71-.51,1.35-.71.88-.71.88,0,0-.27-1.03-1.05-.56-.69.42-.13,2.03.61,2.34-.04.26-.06.55-.06.86-.82.36-4.17-5.07.98-7.55Z"/><path class="cls-68" d="m403.76,393.86s3.26-1.38,3.84-3.83c0-.52-3.97-1.22-3.84,3.83Z"/></g><polygon class="cls-12" points="398.89 427.44 396.1 427.74 396.1 425.25 398.89 424.95 398.89 427.44"/><path class="cls-16" d="m403.08,396.49s-3.7,1.09-2.31,3.03c1.38,1.94,4.42,3.64,4.42,3.64,0,0-.11-3.29-2.11-4.73v-1.94Z"/></g></g><g><g><path class="cls-33" d="m241.19,399.27s1.69-.07,3.11.04,2.45.04,2.45.04c0,0,.38.9-1.57.87,0,0,.55.4,1.22.31,0,0,.63-.05.91-.35,0,0,.36.04.24.32s-.73.81-.73.81l-.11.55-.32.16-.08.4-.48.1-.28.13c-.58.27-1.25.27-1.83,0l-2.58-1.19.05-2.16Z"/><path class="cls-54" d="m230.81,396.03h0c-1.1-.17-2.14.55-2.34,1.65-.2,1.1.51,2.15,1.6,2.37h0s12.51,2.67,12.51,2.67l.38-3.76-12.14-2.94Z"/><polygon class="cls-67" points="242.82 403.31 244.84 404.13 248.79 397.8 248.34 397.61 246.38 397.74 242.82 403.31"/><polygon class="cls-61" points="242.39 403.1 244.41 403.92 248.36 397.58 245.95 397.53 242.39 403.1"/><path class="cls-33" d="m246.28,399.41s-.19.99-2.14.96l.16-1.05c1.42.11,1.98.09,1.98.09Z"/><g><path class="cls-18" d="m232.94,399.52c-2.1-.65-4.38.87-5.02,3.34h0c-.64,2.47.36,5.75,2.49,6.22l16.23,2.7c1.76.43,3.61-.87,4.14-2.91.53-2.05-.45-4.08-2.19-4.56l-15.65-4.78Z"/><g><path class="cls-54" d="m232.46,383.94c-1.28.45-1.94,1.88-1.45,3.15l4.28,10.96h0c.39,1.04,1.54,1.58,2.6,1.2,1.05-.37,1.4-1.24,1.05-2.29l-.1-.31-3.28-11.19c-.42-1.29-1.83-1.98-3.11-1.53h0Z"/><path class="cls-33" d="m236.44,384.89l-3.62.3-.62-6.79c-.09-1,.64-1.88,1.64-1.97h0c1-.09,1.88.64,1.97,1.64l.62,6.82Z"/><circle class="cls-13" cx="229.02" cy="404.85" r="2.18"/><path class="cls-18" d="m237.07,396.02c-1.1-.32-2.33.23-3.4,1.35-.31-1.52-1.06-2.64-2.16-2.95-2.07-.6-4.6,1.85-5.64,5.46-.2.69-.33,1.38-.4,2.04-.16,1.65,1.03,3.23,2.8,3.74,1.1.32,2.23.16,3.11-.36.47.91,1.35,1.64,2.45,1.96,1.77.51,3.62-.19,4.36-1.68.3-.59.55-1.24.75-1.94,1.04-3.61.2-7.03-1.87-7.63Z"/><path class="cls-11" d="m227.53,440.94c.24-.51.11-1.11-.31-1.5-.45-.42-1.01-1.03-1.36-1.75-.71-1.46.25-4,.6-4.82l-3.37-1.62-2.96,6.14,1.9.91.46-.95c.34.19.62.48.8.83l.5.98,3.73,1.79v-.02Z"/><path class="cls-18" d="m238.22,404.85c.58-2.11-2.68-4.41-4.82-4.91h0c-2.13-.5-4.98.68-5.41,2.82l-2.49,16.24c-.39,1.77.71,3.53,2.48,3.94s3.54-.67,3.97-2.43l6.26-15.66Z"/><path class="cls-18" d="m232.26,419.77c.48-1.71-.49-3.51-2.2-4.05-1.71-.54-3.54.37-4.13,2.05l-4.33,15.13,5.43,1.67,5.23-14.79Z"/><path class="cls-64" d="m238.74,394.79c-.09-.38,2.63-.02,1.29-4.58-.42-1.44-1.66-4.24-2.6-5.65-2.42-2.33-3.43-5.32-7.63-.84-2.26,2.41-2.98,13.91-2.98,13.91,0,0,8.49,1.36,12.36,1.25,0,0,.03-2.16-.43-4.09Z"/><path class="cls-45" d="m236.4,386.15l-1.52,31.99s-9.66-.2-11.66-2.26l4.41-27.38c.13-.78.32-1.54.61-2.28.77-2,2.52-5.12,5.8-4.32l2.36,4.24Z"/><polygon class="cls-49" points="234.02 381.86 233.18 385.32 235.44 386.4 232.75 387.36 235.21 411.14 236.41 386.05 234.02 381.86"/><path class="cls-11" d="m234.56,372.77s2.09-.64,3.02.86c1.07,1.74,2.01,7.73-.67,10.31-2.68,2.58-2.76-.66-2.76-.66l1.41-1.22-1-9.29Z"/><path class="cls-33" d="m238.85,377.6c-.16-.14-.24-.25-.3-.34,0-.03-.01-.06-.02-.08-.09-4.28-3.13-4.08-3.13-4.08,0,0-.63-.35-2.27.58-1.65.93-1.07,3.74-.14,5.17.93,1.43,3.43,3.06,4.46,3.09s1.31-.24,1.32-.85c0-.56-.05-1.42.23-2.04.2-.16.45-.33.51-.56.07-.27-.19-.48-.66-.89Z"/><path class="cls-54" d="m238.85,378.2c-.07,0-.13-.02-.18-.07-.25-.21-.31-.93-.33-1.49v-.15s.01-.03.01-.03c.11-.2.22-.3.35-.31.17,0,.28.12.37.22.02.02.04.04.05.06.08.08.1.22.1.31.05.93-.07,1.42-.34,1.46-.01,0-.02,0-.04,0Zm-.26-1.64v.08c.02.67.11,1.2.24,1.31.1-.02.19-.42.15-1.19,0-.08-.02-.13-.03-.14-.02-.02-.04-.05-.07-.08-.04-.05-.11-.15-.15-.13,0,0-.06,0-.14.16Zm.36.05h0,0Z"/><polygon class="cls-54" points="235.7 377.03 235.67 376.78 239.02 376.42 239.04 376.67 235.7 377.03"/><path class="cls-56" d="m237.24,373.55c-.82.2-1.54.94-1.62,1.78-.08,1.09,0,1.74-.9,2.49,1.33-.11,1.63-1.34,1.65-2.4.02-.67.45-1.18,1.01-1.5.09-.05,0-.3-.15-.37Z"/><path class="cls-56" d="m236.97,374.19s.29-.1.51-.26c.17-.12.05-.7-.31-.83-1.41-.5-4.4.17-5.14,2.11-.74,1.93.16,7.1.16,7.1,0,0,.6-3.77,1.54-4.14,1.21-.48,1.51-2.3,2.03-3.25.45-.83,1.2-.72,1.2-.72Z"/><g><path class="cls-45" d="m231.53,384.47c-1.29-.45-2.68.26-3.1,1.55l-3.5,11.24h0c-.34,1.06.22,2.2,1.27,2.57,1.05.37,2.2-.18,2.59-1.23h0s3.62-11.09,3.62-11.09c.48-1.27.39-2.6-.89-3.04h0Z"/><g><rect class="cls-33" x="235.88" y="392.45" width="2.62" height="6.87" rx="1.31" ry="1.31" transform="translate(-102.83 707.93) rotate(-101.62)"/><polygon class="cls-26" points="245.03 395.64 242.14 395.64 241.5 390.93 245.67 390.93 245.03 395.64"/><path class="cls-33" d="m239.23,394.35s1.86-1.24,1.91-1.24,1.52-.27,1.52-.27l1.4.17c.16.02.28.16.26.32h0c-.01.16-.15.28-.31.28l-1.27-.05-.8.33,1.28-.05,1.44.3c.16.03.26.19.21.35h0c-.04.13-.16.22-.3.21l-1.47-.12-1.3.25,1.3-.02h1.14c.16.01.28.14.27.3h0c0,.14-.11.26-.26.27l-1.33.11h-1.13l1.14.17,1-.13.03.33-1.27.31-1.38.25s-1.34.47-2.41.05.3-2.13.3-2.13Z"/><path class="cls-45" d="m226.71,395.96h0c-1.08.25-1.78,1.31-1.56,2.41.22,1.09,1.28,1.8,2.37,1.61h0s11.39-1.09,11.39-1.09l.09-4.71-12.29,1.79Z"/></g></g><g><path class="cls-99" d="m238.53,386.38s.74-4.43-2.15-3.28c-1.14.45-1.9-.74-2.37-1.87-.25-.6-.46-1.38-.52-2.32-.15-2.59-3.39,5.52-3.39,5.52,0,0,4.63,3.05,7.4,1.63.98-.5.64.06,1.03.32Z"/><path class="cls-89" d="m237.83,374.18s-2.18-.92-2.9,1.51c-.99,3.39,2.45,7.38,3.03,7.47,0,0-5,.7-3.84,1.91,0,0-3.18.35-4.45-.69,0,0-.38-1.53.16-3.1.1-.31.13-.63.09-.95-.21-1.53-.55-5.84,1.89-7.03,2.2-1.08,4.18-.84,5.17-.46.56.22.85,1.35.85,1.35Z"/></g></g></g></g><path class="cls-11" d="m251.27,428.78c0-.56-.39-1.05-.93-1.21-.59-.18-1.36-.49-1.99-.99-1.27-1.01-1.5-3.71-1.54-4.61h-3.73s-.01,6.81-.01,6.81h2.11s0-1.05,0-1.05c.39.02.77.16,1.08.4l.88.67h4.14s0-.01,0-.01Z"/><path class="cls-18" d="m250.9,408.09c.22-1.76-.99-3.4-2.76-3.69s-3.45.88-3.79,2.62l-2.48,18.02,5.99-1.56,3.04-15.39Z"/></g><g><g><path class="cls-75" d="m489.37,400.85s-8.26-6.44-9.76-7.02-3.05.63-.99,2.76c2.06,2.13,8.45,7.22,8.45,7.22,0,0,.68.22,1.75.02,1.18-.22,1.79-1.28.55-2.99Z"/><g><circle class="cls-13" cx="479.84" cy="395.84" r="1.19"/><circle class="cls-13" cx="470.28" cy="395.84" r="1.19"/></g><g><circle class="cls-14" cx="470.64" cy="414.61" r="2.02"/><circle class="cls-14" cx="477.09" cy="414.61" r="2.02"/></g><rect class="cls-21" x="475.81" y="440.4" width="2.85" height="7.46" rx="1.42" ry="1.42" transform="translate(954.48 888.26) rotate(180)"/><rect class="cls-21" x="469.49" y="440.4" width="2.85" height="7.46" rx="1.42" ry="1.42" transform="translate(941.82 888.26) rotate(180)"/><path class="cls-6" d="m479.21,408.12l.67,5.2c.05.37.05.75-.04,1.11-.33,1.34-1.54,3.04-2.98,3.04l-4.67.02v-9.37h7.01Z"/><path class="cls-6" d="m468.68,408.12l-.67,5.2c-.05.37-.05.75.04,1.11.33,1.34,1.54,3.04,2.98,3.04l4.67.02v-9.37h-7.01Z"/><rect class="cls-6" x="475.42" y="442.66" width="3.67" height="1.85" transform="translate(954.52 887.18) rotate(180)"/><rect class="cls-6" x="469.02" y="442.66" width="3.67" height="1.85" transform="translate(941.71 887.18) rotate(180)"/><path class="cls-28" d="m473.05,393.43l3.37-.03v-6.32c0-.93-.75-1.68-1.68-1.68h0c-.93,0-1.68.75-1.68,1.68v6.36Z"/><path class="cls-28" d="m474.81,390.45l3.63,2.48c1.75,1.2,1.87,3.74.23,5.09l-4.43,3.66-3.75-3.64c-1.45-1.4-1.24-3.78.42-4.92l3.9-2.67Z"/><path class="cls-75" d="m468.04,395.95c.25-1.86,4.17-3.85,4.55-3.98.52-.21,3.89-.21,4.41,0,.14.04,3.69,1.65,4.08,2.57,1.2,2.83-1.52,15.18-1.52,15.18h-11.26s-1.4-5.26-.26-13.77Z"/><path class="cls-6" d="m473.59,414.15c-.06-1.6,1.93-2.93,3.53-2.93h0c1.6,0,2.87,1.32,2.82,2.92l-.37,15.16c-.02,1.32-1.09,2.39-2.42,2.39s-2.4-1.07-2.42-2.39l-1.14-15.14Z"/><path class="cls-6" d="m474.72,429.3c.05-1.3,1.12-2.33,2.42-2.33s2.38,1.04,2.43,2.33l-.32,13.83-4.15-.04-.38-13.8Z"/><path class="cls-6" d="m467.96,414.15c-.06-1.6,1.22-2.93,2.82-2.93h0c1.6,0,3.58,1.32,3.53,2.92l-1.08,15.16c-.02,1.32-1.09,2.39-2.42,2.39s-2.4-1.07-2.42-2.39l-.43-15.14Z"/><path class="cls-6" d="m468.38,429.3c.05-1.3,1.12-2.33,2.42-2.33s2.38,1.04,2.43,2.33l-.32,13.83-4.15-.04-.38-13.8Z"/><g><path class="cls-55" d="m473.83,447.53l.32-.05s1.61-3.14,1.46-1.28h3.13c.25,0,.46.21.46.46v1.93h-6.5v-.16c.02-.45.69-.83,1.14-.9Z"/><path class="cls-61" d="m479.19,449.01l-6.48.02s-.15-.45.06-.87l6.43-.02v.87Z"/></g><g><path class="cls-55" d="m467.42,447.53l.32-.05s1.61-3.14,1.46-1.28h3.13c.25,0,.46.21.46.46v1.93h-6.5v-.16c.02-.45.69-.83,1.14-.9Z"/><path class="cls-61" d="m472.79,449.01l-6.48.02s-.15-.45.06-.87l6.43-.02v.87Z"/></g><g><rect class="cls-21" x="458.31" y="382.79" width="1.76" height="4.62" rx=".88" ry=".88" transform="translate(1017.04 604.1) rotate(161.45)"/><path class="cls-21" d="m457.19,380.32c-.35-.61-.73-1.38-.51-1.48.31-.15,1.59,2.35,1.62,2.2.02-.16-1.25-2.19-.83-2.19.42,0,1.53,2.25,1.53,2.25.03-.87.8-1,.8-1,.16-.2-.14,1.38-.14,1.38.35.94-.06,2.15-.06,2.15h0c-.43.91-1.73.93-2.18.02l-.28-.55c-.25-.25-.81-1.89-.95-2.27-.14-.38.21-.36.21-.36.87,1.56.89,1.45.89,1.45,0,0-1.17-2.28-.91-2.48.12-.09.49.42.79.9Z"/><path class="cls-75" d="m464.87,393.8c.37.83.02,1.8-.81,2.19s-1.8.05-2.21-.77h0s-4.28-9.04-4.28-9.04c-.39-.83-.04-1.83.8-2.22.83-.39,1.83-.04,2.22.8l4.28,9.04h0Z"/><path class="cls-75" d="m461.65,394.09c.21-1.09,1.28-1.79,2.36-1.55l10.44.83h0c.89.19.81,2.45.64,3.35-.17.89-1.03,1.48-1.92,1.32l-.95,1.57-8.96-3.2c-1.09-.18-1.82-1.23-1.61-2.32h0Z"/></g><g><path class="cls-28" d="m471.63,386.81c.36-.26.76-.69.8-.97.04-.28.1-2.94,3.48-3.3.71-.18,1.45-.17,2.16.06,2.25.73,3.34,3.38,2.48,6.01-.85,2.63-7.69,2.78-9.16,1.9-.18-.11-.14-3.43.23-3.7Z"/><g><path class="cls-95" d="m472.76,383.12c-.34.2.4,2.87,1.34,2.99,1.3.17,1.46.64,1.21.67,0,0-.27,1.75,1,3.41,0,0,3.44,2.08,4-2.62.56-4.69-3.42-6.84-7.56-4.45Z"/><path class="cls-97" d="m480.07,394.37c-.74-3.08,3.37-11.89-4.08-12.15l-.68,4.56s-.99,5.9-3.16,6.41c-2.17.51-1.92,6.37,2.8,6.38,4.72,0,5.85-2.11,5.11-5.19Z"/><g><circle class="cls-98" cx="478.57" cy="397.27" r="2.14"/><path class="cls-90" d="m480.69,394.56c-.2,1.16-1.18,2.38-2.33,2.12s-1.87-1.42-1.6-2.57c.27-1.15,1.54-3.34,2.69-3.07s1.54,1.78,1.24,3.53Z"/><path class="cls-96" d="m480.79,390.92c-.2,1.16-1.18,2.38-2.33,2.12-1.15-.27-1.87-1.42-1.6-2.57s1.54-3.34,2.69-3.07c1.15.27,1.54,1.78,1.24,3.53Z"/><path class="cls-92" d="m480.98,387.04c.12,1.18-.5,2.61-1.68,2.66s-2.18-.87-2.23-2.05-1.14-5.72.68-5.2c2.5.71,3.05,2.83,3.23,4.59Z"/><circle class="cls-93" cx="472.2" cy="395.15" r="2.14"/><circle class="cls-91" cx="476.26" cy="398.49" r="2.14"/><circle class="cls-94" cx="473.41" cy="397.5" r="2.14"/></g></g></g><path class="cls-28" d="m474.49,386.14l-.17,2.02c.75.17,1.6-.74,1.76-1.42s-.65-1.42-1.59-.6Z"/></g><g><path class="cls-75" d="m489.37,401.04c-2.68-.27-9.86,5.75-9.86,5.75l1.46.98c-.05.12,5.52-2.17,8.54-4.22,0,0,.53-2.44-.13-2.51Z"/><path class="cls-21" d="m477.42,411.22l1.47-.77s-1.09.31-1.62.44c-.15.04-.31-.05-.37-.2h0c-.06-.17.03-.35.2-.4l1.62-.49s-1.81.4-1.88.24c-.08-.19.17-.35.36-.42l1.3-.46,1-2.36s1.59.88,1.6.92c0,.03-.43,1.77-.64,2.58-.07.27-.23.5-.45.65l-1.67,1.17c-.08.05-.18.05-.25-.01h0c-.09-.08-.09-.23,0-.31l1.1-.87-1.55.75c-.11.06-.25.02-.33-.08h0c-.1-.13-.05-.31.09-.39Z"/></g></g><g><g><path class="cls-13" d="m270.94,448.27v-.02c-.89,0-1.61-.7-1.61-1.59v-5.98c0-.89.72-1.61,1.61-1.61h0c.89,0,1.61.72,1.61,1.61v5.98c0,.89-.72,1.61-1.61,1.61Z"/><path class="cls-43" d="m276.38,447.66c0-.18-.06-.35-.17-.48l-2.87-1.75v.02c-.31-.56-.97-.9-.97-.9-.84,0-.45.92-.65,1.71-.04.14-2.47-.1-2.47.05v1.08h0v1.52h7.14v-1.24Z"/><rect class="cls-43" x="269.25" y="448.05" width="7.13" height=".86"/></g><g><path class="cls-13" d="m259.72,448.27v-.02c-.89,0-1.61-.7-1.61-1.59v-5.98c0-.89.72-1.61,1.61-1.61h0c.89,0,1.61.72,1.61,1.61v5.98c0,.89-.72,1.61-1.61,1.61Z"/><path class="cls-43" d="m265.17,447.66c0-.18-.06-.35-.17-.48l-2.87-1.75v.02c-.31-.56-.97-.9-.97-.9-.84,0-.45.92-.65,1.71-.04.14-2.47-.1-2.47.05v1.08h0v1.52h7.14v-1.24Z"/><rect class="cls-43" x="258.03" y="448.05" width="7.13" height=".86"/></g><path class="cls-64" d="m268.5,406.62s6.72-6.37,9.48-.65c.72,1.49-.48,13.76-1.25,20.97l-.38.5c-2.32,3.05-4.52,5.68-6.76,2.56l-.08-3.33-1.02-20.04Z"/><path class="cls-64" d="m261.79,405.23s7.57-3.15,9.58,3.38c.52,1.7-3.68,12.19-5.42,22.18l-4.14,3.78-1.91-5.41,1.89-23.91Z"/><path class="cls-64" d="m269.52,426.22h0c2.2-3.28,4.64-3.14,6.82.15l.38.58c.06.2-2.24,17.17-2.24,17.17-4.75,2.77-5.78-.12-5.78-.12l.81-17.79Z"/><path class="cls-64" d="m259.94,428.94l6.02,1.75c.02.18-2.2,13.93-2.2,13.93-5.19,1.15-6.15-.98-6.15-.98l2.34-14.69Z"/><circle class="cls-20" cx="270.84" cy="375.99" r="3.78"/><path class="cls-20" d="m272.89,380.22s-.1,2.41-.12,2.45-6.13.65-6.13.65l.32-.45c.85-1.2,1.26-2.66,1.16-4.13h0s2.45-4.03,2.45-4.03l2.33,5.5Z"/><path class="cls-20" d="m271.47,380.83s2.4.74,3.1-.04c.25-.29.18-1.36.27-2.3.04-.39.59-.2.26-.8-.21-.38-.43-.75-.26-1.66.13-.67.02-2.77-3.2-3.82-1.89-.62-2.54,6.3-.16,8.62Z"/><path class="cls-51" d="m273.72,373.34s-.78-1.45-3.44-1.21c-3.09.28-3.94,3.4-2.86,5.59,0,0,.72.98.75,1.32,0,0,.76-.71,1.51-.23,0,0,.26-4.57,2.03-2.93l.73-.12s0-2.56,1.27-2.43Z"/><path class="cls-51" d="m269.76,378.87l-.2-.17-.13-.09.13.09s.03-.07.04-.25c0-.01-.01-.05-.02-.08-.03-.08-.06-.17-.04-.28.01-.09.06-.17.1-.23.02-.04.05-.08.06-.1,0-.02-.01-.07-.02-.1-.02-.08-.05-.17-.03-.27.02-.1.08-.17.12-.23.02-.03.06-.07.06-.09,0-.02,0-.07-.01-.11-.01-.08-.03-.17,0-.27.03-.1.1-.17.16-.23.03-.03.06-.06.07-.08,0-.02,0-.07,0-.12,0-.08,0-.18.05-.27.06-.11.15-.16.23-.21.03-.02.07-.04.08-.05.02-.02.04-.06.06-.1.04-.09.1-.19.21-.25.13-.06.26-.01.36.02.03.01.07.02.1.03.01,0,.05,0,.08,0,.09,0,.22-.02.34.06.07.05.12.11.16.18,0,0,.01,0,.02,0,.01,0,.03,0,.05,0,.01,0,.03,0,.04-.01.01,0,.03,0,.05,0,.01,0,.03,0,.04-.01.01,0,.03,0,.05,0,.01,0,.03,0,.04-.01.01,0,.03,0,.05,0,.01,0,.03,0,.04-.01.01,0,.03,0,.05,0,.01,0,.03,0,.04-.01,0,0,0,0,0,0,0,0,.02-.01.02-.02,0,0-.01-.01-.02-.03-.03-.06-.07-.15-.06-.25.01-.09.07-.15.12-.2,0,0,.02-.02.02-.03,0,0,0-.02-.01-.03-.03-.06-.06-.15-.04-.24.02-.09.09-.15.14-.2,0,0,.02-.01.02-.02,0,0,0-.02,0-.03-.02-.06-.05-.15-.01-.24.03-.09.11-.15.16-.18,0,0,.02-.01.03-.02,0-.01,0-.02,0-.03,0-.07-.02-.16.02-.24.05-.09.14-.13.2-.16.01,0,.03-.01.04-.02,0,0,0-.02,0-.03,0-.07.02-.16.1-.24.08-.08.19-.08.25-.08.01,0,.04,0,.05,0,0,0,0-.02.02-.03.04-.06.11-.14.22-.17.11-.02.19.04.25.07.02,0,.04.03.05.03l.05.21c-.06.04-.24.09-.28.06,0,0,0,0,0,0,0,0,0,0,0,0-.03.04-.07.1-.14.14-.07.04-.14.04-.2.04,0,0,0,0-.01,0,0,0,0,0,0,.01,0,.06-.02.14-.07.2-.05.07-.12.1-.18.12,0,0-.01,0-.02,0,0,0,0,.01,0,.02,0,.06.02.14-.01.22-.03.08-.1.13-.15.16,0,0-.01,0-.02.01,0,0,0,.02,0,.02.02.06.04.14.02.23-.02.09-.09.15-.14.19,0,0-.01.01-.02.02,0,0,0,.02.01.03.02.06.06.13.04.22-.02.09-.08.16-.12.2,0,0-.01.01-.02.02,0,.01.01.02.02.03.03.05.06.12.05.21-.01.12-.05.19-.11.24,0,.04,0,.08-.03.13l-.04.07h-.09s-.03.01-.05.01c-.02,0-.03,0-.05.01-.01,0-.03,0-.05,0-.01,0-.03,0-.04.01-.01,0-.03,0-.05,0-.01,0-.03,0-.04.01-.01,0-.03,0-.05,0-.01,0-.03,0-.04.01-.01,0-.03,0-.05,0-.01,0-.03,0-.04.01-.23.06-.37-.18-.41-.25-.02-.03-.04-.08-.05-.09-.02-.01-.08,0-.13,0-.05,0-.11,0-.17,0-.05,0-.1-.03-.16-.04-.04-.01-.09-.03-.11-.03,0,0-.03.05-.04.08-.03.05-.06.12-.11.17-.05.06-.11.09-.17.12-.04.02-.09.05-.1.07,0,.01,0,.07,0,.1,0,.07,0,.16-.03.24-.03.08-.09.14-.14.19-.03.03-.07.07-.07.09,0,.02,0,.07.01.11.01.07.03.16,0,.25-.02.09-.08.16-.12.22-.02.03-.06.07-.06.09,0,.02,0,.07.02.11.02.07.04.16.03.25-.02.1-.07.18-.11.24-.02.03-.05.07-.05.09,0,.03.01.08.03.13.02.07.05.14.04.23-.02.23-.18.37-.19.38Zm3.71-5.41h0Z"/><path class="cls-51" d="m268.09,379.11s-.08-.06-.13-.09c-.09-.05-.19-.1-.25-.21-.07-.1-.08-.22-.09-.32,0-.06-.01-.12-.03-.15-.02-.03-.06-.07-.11-.11-.08-.06-.16-.14-.21-.25-.05-.11-.04-.22-.03-.33,0-.06,0-.12,0-.16-.01-.04-.05-.08-.09-.13-.06-.08-.14-.16-.17-.28-.03-.12,0-.23.03-.33.01-.06.03-.12.02-.15,0-.04-.04-.09-.07-.14-.05-.09-.11-.18-.12-.3,0-.12.04-.23.08-.32.02-.05.05-.11.05-.15,0-.04-.02-.1-.04-.15-.04-.09-.08-.2-.06-.32.01-.12.08-.22.14-.3.03-.05.07-.1.08-.13,0-.04,0-.1-.01-.16-.02-.1-.04-.21,0-.33.04-.12.12-.2.2-.27.04-.04.09-.08.1-.12.02-.03.02-.1.02-.16,0-.1.01-.22.07-.32.07-.11.17-.17.26-.22.05-.03.1-.06.13-.09.02-.03.04-.09.06-.14.03-.1.07-.21.16-.3.09-.08.21-.11.31-.13.06-.01.12-.03.15-.05.03-.02.06-.07.1-.11.06-.08.13-.18.25-.24.11-.05.23-.04.33-.03.06,0,.12.01.16,0,.03,0,.08-.04.13-.08.08-.06.18-.13.31-.15.12-.02.23.03.32.06.04.02.08.03.12.04,0,0,0,0,0,0,.05-.05.12-.13.23-.12.09,0,.15.05.19.1.05-.04.11-.09.2-.08.09,0,.15.06.19.11.05-.04.12-.08.2-.07.09.01.14.07.18.12.05-.04.12-.07.21-.06.09.02.14.08.17.13.05-.03.13-.07.21-.04.09.02.13.09.17.14.06-.03.13-.06.21-.03.08.03.13.1.15.16.06-.02.14-.05.22-.01.08.04.12.11.14.17.06-.02.14-.03.22.01.08.05.11.12.12.19.06-.01.14-.02.22.04.07.06.09.14.1.21.06,0,.15,0,.21.07.02.02.04.04.06.06.05.04.14.12.09.25-.02.05-.07.12-.21.11v-.15s-.08.07-.08.07c-.02-.02-.04-.04-.06-.06h0c-.07,0-.17.01-.26-.06-.06-.05-.07-.11-.08-.17-.06,0-.13,0-.19-.03-.06-.04-.09-.11-.1-.16-.06.02-.13.02-.2-.01-.07-.04-.1-.1-.12-.15-.06.02-.12.04-.2,0-.07-.03-.11-.09-.14-.14-.05.03-.12.05-.2.03-.08-.02-.12-.08-.15-.13-.05.03-.12.06-.2.04-.08-.02-.13-.07-.16-.12-.05.03-.12.07-.19.05-.08-.01-.13-.06-.17-.11-.05.04-.11.07-.19.07-.08,0-.14-.06-.17-.1-.05.04-.11.08-.19.08-.08,0-.14-.05-.18-.09-.04.04-.1.09-.19.09-.11,0-.2-.04-.28-.07-.06-.02-.12-.05-.15-.04-.04,0-.09.05-.15.09-.07.05-.15.11-.24.13-.1.03-.2.02-.28.01-.06,0-.13-.01-.16,0-.03.01-.07.07-.11.12-.05.07-.11.15-.19.2-.08.06-.18.08-.26.1-.06.01-.13.03-.15.05-.03.02-.05.09-.07.15-.03.08-.06.17-.12.25-.06.08-.15.13-.22.17-.06.03-.11.07-.13.1-.02.03-.02.1-.02.16,0,.09,0,.19-.05.28-.04.09-.11.16-.18.22-.05.05-.09.09-.11.13-.01.03,0,.1.01.16.02.09.03.19.01.29-.02.1-.08.18-.13.26-.04.05-.07.11-.08.14,0,.03.02.1.04.15.03.08.07.18.07.29,0,.1-.04.2-.08.28-.03.06-.05.12-.05.16,0,.04.04.09.07.15.05.08.1.17.11.27.02.1-.01.2-.03.29-.02.06-.03.13-.02.16,0,.03.05.08.09.13.06.07.12.15.16.25.03.1.02.2.02.29,0,.06-.01.13,0,.16.01.03.06.07.11.12.07.06.15.12.2.22.05.09.06.19.07.28,0,.06.01.13.03.16.02.03.08.06.13.09.08.04.17.09.23.17l-.27.22Zm4.94-6.26h0Zm-.67-.31h0Zm-.13-.04h0Zm-.72-.18h0Zm-.53-.24h0Z"/><g><path class="cls-20" d="m250.73,393.98s8.53-8.76,10.38-9.6,5.25.55,2.83,3.39c-2.42,2.84-10.07,9.76-10.07,9.76,0,0-.84.34-2.2.17-1.5-.19-2.36-1.47-.93-3.72Z"/><path class="cls-20" d="m277.64,401.38s-2.65-12.01-2.29-14,3.67-2.66,4.62.95c.96,3.61,2.62,13.27,2.62,13.27,0,0-.21,1.79-1.36,1.83-.98.04-3.45-.21-3.59-2.05Z"/><path class="cls-20" d="m279.16,403.83c4.32.56,11.25-7.8,11.25-7.8.32-.9-.47-1.43-1.38-1.15,0,0-7.71,3.43-11.4,6.38,0,0,.64,2.45,1.53,2.57Z"/></g><path class="cls-54" d="m277.52,384.82l-4.81-2.45s-2.53.76-5.18-.4l-2.98.58c-1.57.31-3.05,1.01-4.28,2.03l2.16,7.11-1.57,17.39s10.16,2.73,17.55.68l-.9-24.94Z"/><path class="cls-20" d="m263.24,409.57l-1.54-.92s1.16.4,1.72.58c.16.05.34-.03.41-.19h0c.08-.18-.01-.38-.19-.45l-1.72-.63.04-.14,1.74.58c.18.06.39,0,.48-.18.1-.2.01-.44-.19-.53l-1.67-.71-1.04-2.31s-1.78.85-1.78.89c0,.03.36,1.94.52,2.83.05.29.21.55.44.74l1.73,1.37c.08.06.19.07.27,0h0c.11-.08.11-.24.01-.33l-1.13-1.01,1.63.91c.12.07.27.04.36-.07h0c.11-.13.08-.34-.07-.43Z"/><path class="cls-20" d="m293.35,391.67c-.23.04-.39.24-.39.24h0c-.36.07-.53.68-.53.68l-.62.36-1.01.3h0c-.01-.18.55-.67.87-1.04.13-.15.16-.29.16-.41,0-.17-.18-.29-.34-.24-.62.19-1.13,1.03-1.13,1.03l-.72.63s-1.28.72-1.42,1.39c-.14.67-.27,1.06-.27,1.06l1.56,1.18,1.01-.75c.67-.25,1.38-1.08,1.52-1.25.02-.02.03-.04.03-.06l.08-.25h0l.68-.71v-.12s.04,0,.04,0l.23-.37.03-.49h0l.37-1.03c.03-.09-.04-.19-.14-.17Z"/><path class="cls-20" d="m251.4,393.91c3.31.79,9.88,10.8,9.88,10.8l-1.34,1.18c0,.17-7-5.35-9.74-9.05,0,0,.38-3.13,1.2-2.94Z"/><path class="cls-54" d="m272.88,382.37s6.43,2.65,7.2,4.48c0,0,1.98,8.2,2.1,10.79l-4.96,2.01-2.21-6.61-2.12-10.68Z"/><path class="cls-54" d="m260.31,384.55l-7.18,6.4,3.84,4.88,5.53-4.26s-.37-8.28-2.19-7.02Z"/></g><g><g><g><rect class="cls-21" x="153.83" y="405.33" width="2.79" height="7.31" rx="1.4" ry="1.4" transform="translate(-211.47 170.45) rotate(-36.17)"/><g><path class="cls-31" d="m157.07,409.18s1.85,2.77,1.85,2.77l.59,2.08-.61,1.95c-.08.18-.28.26-.47.2h0c-.21-.07-.3-.31-.21-.51l-.27.53c-.05.12-.18.19-.31.16h0c-.17-.04-.26-.23-.18-.39l-.2.13c-.06.1-.19.14-.29.1h0c-.15-.06-.21-.25-.11-.38v-.07c-.07.1-.21.11-.31.03h0c-.09-.07-.11-.2-.04-.3l.68-.98-1.68-2.26-.66-2.59,2.22-.48Z"/><path class="cls-31" d="m157.91,410.39c-.46-.56-.48-.34-.5-.36l-2.56-.38.64,2.49c.52.4,1.17.76,1.17.76l.81,1.2c.13.2.39.25.6.13.18-.11.26-.33.19-.52-.08-.25-.22-.6-.42-.98-.38-.71.21-2.34.21-2.34h-.13Z"/></g></g><path class="cls-6" d="m150.63,399.33c-.7-.96-2.04-1.18-3.01-.5s-1.22,2.02-.55,3h0s7.74,11.02,7.74,11.02l3.57-2.51-7.74-11.02h0Z"/><path class="cls-29" d="m147.49,385.71c-1.44.12-2.5,1.41-2.34,2.85l1.43,12.16h0c.12,1.18,1.17,2.05,2.35,1.95,1.19-.1,2.07-1.13,1.99-2.31h0s-.64-12.23-.64-12.23c-.08-1.45-1.35-2.54-2.79-2.42h0Z"/></g><path class="cls-6" d="m135.08,446.29v-.02c-1.03-.31-1.63-1.39-1.31-2.43l2.12-7c.31-1.04,1.41-1.63,2.45-1.31h0c1.04.31,1.63,1.41,1.31,2.45l-2.12,7c-.31,1.04-1.41,1.63-2.45,1.31Z"/><g><path class="cls-22" d="m140.83,400.14l-.68,8.4c-.05.6-.05,1.21.04,1.8.34,2.16,1.56,4.91,3.03,4.91l4.74.03v-15.15h-7.12Z"/><path class="cls-22" d="m153.65,400.14s.05,15.11-1.41,15.11l-5.71.03v-15.15h7.12Z"/></g><path class="cls-6" d="m152.24,447.86v-.02c-1.02,0-1.86-.8-1.87-1.82l-.04-6.9c0-1.02.82-1.86,1.84-1.87h0c1.02,0,1.86.82,1.87,1.84l.04,6.9c0,1.02-.82,1.86-1.84,1.87Z"/><path class="cls-64" d="m159.53,448.04l-.02-.55c-.03-.57-.47-1.04-1.05-1.09l-1.42-.12-2.74-1.4s-1.84,1.61-4.46.35l.08,2.76h0s0,0,0,0h0s.01.45.01.45l2.61-.08v-.33s.6,0,.6,0l1.16.26,5.23-.17s0-.04,0-.09Z"/><path class="cls-64" d="m142.03,448.73l.15-.53c.16-.56-.31-.81-.85-1.04l-1.14-.25-2.19-2.21s-2.28.97-4.4-1.08l-.8,2.68h0s0,0,0,0h0s-.13.43-.13.43l2.54.75.09-.32.58.2,1.03.62,2.73.8,2.36.03s.02-.03.03-.09Z"/><path class="cls-31" d="m151.73,386.75l-4.46-1.8,2.67-6.76c.39-.99,1.71-1.41,2.95-.92h0c1.24.49,1.92,1.69,1.53,2.69l-2.68,6.8Z"/><path class="cls-31" d="m156.32,380.85c-.16-.43.07-.59.07-.59.19-.32.26-.68.25-1.04.04-.1.07-.19.09-.26.19-.97.02-1.98-.52-2.81-.06-.1-.13-.19-.19-.26-1.56-1.83-3.68-1.47-3.68-1.47-1.2.07-1.99.67-2.52,1.53-.89,1.46-.62,3.36.54,4.62l1.13,1.24c.18,2.2,1.82,2.85,2.55,3.12.75.28,1.1-.62,1.06-.83-.04-.21.78-1.73.78-1.73,0,0,.39.15.68-.1.15-.13.12-.41.03-.7-.08-.26-.19-.53-.27-.73Z"/><path class="cls-103" d="m155.14,383.79c-.33-.3-.55-.72-.62-1.17l1.12.2.17-.32c-.33-.17-.71-.26-1.09-.25-.14,0-.3.02-.4.12-.13.12-.14.33-.11.5s.08.36.04.53c-.71-.17-1.31-.76-1.49-1.47-.11-.46-.06-.94.02-1.4s.21-.92.24-1.39c-.25-.06-.51-.11-.76-.17-.07.73-.15,1.47-.42,2.15-.09.24-.21.47-.26.72-.09.45.06.92.28,1.32.44.81,1.21,1.44,2.1,1.72.15.05.3.08.46.07.52-.04.73-.73.73-1.18Z"/><path class="cls-24" d="m151.76,378.3s.51.58.44,1.17c0,.03.01.06.04.06l.62.14s.06-.01.07-.05c.03-.19.13-.76.38-1,.3-.28-.2-1.23-.2-1.23l-1.35.9Z"/><path class="cls-24" d="m156.16,375.27s0,0,0,0c-1.34-1.45-4.54-1.38-4.54-1.38,0,0-1.68-.69-2.86.84-.22.28-.28.55-.34.83.06.3.03.63-.09.91,0,.41-.18.84-.38,1.2-.47.84.05,1.57.02,1.83-.03.22-.13.43-.28.59-.26.3-.65.48-1.03.58-.17.18-.24.42-.24.67.23.31.81.54,1.14.34.05-.03.12-.13.2-.28.08.04.15.08.24.11,1.19.43,1.92-1.34,2.74-2.88.79-1.47,1.41.49,1.78.52.24.02.52-.2.78-.5,1.28-1.24,2.52-1.2,3.1-1.39.59-.19,1.87-1.13-.24-1.98Z"/><path class="cls-6" d="m148.28,376.59s2.64-1.3,5-2.55c0,0-.58-.67-1.6-.79-1.37-.16-2.77.44-3.36,2.02-.14.37-.05,1.25-.04,1.33Z"/><path class="cls-75" d="m151.71,410.2c-.78-2.2-2.82-4.12-6.76-2.75h0c-3.07,1.11-3.62,4.34-2.68,6.47l6.67,12.95c.74,1.78,2.78,2.64,4.57,1.92s2.67-2.75,1.98-4.55l-3.78-14.04Z"/><path class="cls-75" d="m155.78,425.82c-.08-1.89-1.65-3.39-3.55-3.38-1.91.01-3.46,1.53-3.52,3.42l.59,19.6,6.12-.55.36-19.09Z"/><path class="cls-75" d="m151.06,412.28c.62-2.25.05-4.99-3.96-6.13h0c-3.15-.85-5.45,1.48-5.9,3.77l-1.96,14.43c-.41,1.88.76,3.75,2.64,4.19,1.88.44,3.76-.72,4.23-2.59l4.96-13.67Z"/><path class="cls-75" d="m145.76,427.31c.56-1.81-.41-3.75-2.21-4.38-1.8-.63-3.77.28-4.46,2.04l-6.03,18.66,5.5,1.42,7.21-17.75Z"/><path class="cls-6" d="m148.4,382.08c-.72.21-2.55,2.37-3.16,2.83-7.6,5.72-6.4,27.56-6.4,27.56,0,0,12.02,1.48,14.7.96,0,0,.87-12.35.85-20.18,0-3.21-1.24-6.29-3.43-8.63,0,0-2.48-2.56-2.55-2.54Z"/><path class="cls-6" d="m138.89,409.93c-.06,1.58-.06,2.53-.06,2.53,0,0,12.02,1.48,14.7.96,0,0,.07-.93.16-2.43-3.33.25-12.44-.78-14.8-1.06Z"/><rect class="cls-75" x="149.25" y="444.2" width="6.23" height="1.15" transform="translate(-21.4 7.92) rotate(-2.78)"/><rect class="cls-75" x="133.02" y="443.32" width="6.23" height="1.15" transform="translate(106.51 -19.46) rotate(13.39)"/><path class="cls-6" d="m148.37,381.98s.18.91,1.13,3.45l2.09.87,1.77,3.49.42-.46s-1.46-4.83-5.41-7.35Z"/><path class="cls-6" d="m154.09,403.86c.02-.52.05-1.05.07-1.58,0-.03,0-.06,0-.09.03-.79.07-1.59.09-2.39,0-.06,0-.13,0-.19.02-.5.03-1,.05-1.49.03-1.18.06-2.33.07-3.42,0-.5,0-.98,0-1.45,0-1.37-.23-2.72-.66-4l-.38.4.45,3.61c.02,7.84-.85,20.18-.85,20.18-.31.06-.74.09-1.26.1,0,0,0,0,0,0,.18,0,.35,0,.51,0,.05,0,.1,0,.15,0,.11,0,.22,0,.32-.01.05,0,.1,0,.15,0,.1,0,.19-.01.28-.02.04,0,.08,0,.12-.01.12-.01.23-.03.33-.05,0,0,.27-3.89.51-8.69.01-.29.03-.59.04-.88Z"/></g><path class="cls-31" d="m165.38,406.18l1.66.24,1.17-.22,2.51,2.44s.17.42-.07.48-.49-.07-.49-.07c0,0,.17.7-.41.53,0,0-.11.5-.61.36,0,0-.19.34-.58.2s-.51-.36-.51-.36c0,0-2.14-1.47-2.8-1.72s.14-1.88.14-1.88Z"/><path class="cls-34" d="m168.29,406.6c-.18-.13-.29-.26-.66-.1s-.91.43-1.12.07c0,0-.14-.08.31-.31l.29-.54s1.18-.37,1.35-.31,1.48.51,1.58.74l1.89.44-.34,2.03h-.91l-2.39-2.03Z"/><path class="cls-34" d="m166.18,409.09l-.34-.23s-.28-.56,0-.59.42.34.42.34c0,0,.17-.44.42-.33s.31.3.27.48.16-.46.39-.33.42.27.15.75c0,0,.29-.33.45-.16s.15.61.03.76l.41.31s-.5.24-.59.2-.32-.28-.32-.28c0,0-.4.01-.46-.07s-.11-.26-.11-.26c0,0-.33-.04-.43-.18s-.28-.41-.28-.41Z"/><g><path class="cls-6" d="m144.76,386.2c-1.48.75-2.93,4.69-2.14,6.15l7.63,10.13h0c.64,1.19,2.11,1.66,3.32,1.04s1.7-2.09,1.11-3.3h0s-5.94-12.66-5.94-12.66c-.71-1.49-2.52-2.11-3.99-1.36h0Z"/><path class="cls-6" d="m154.06,399.97c-1.09-.47-2.35,0-2.85,1.08-.5,1.08-.04,2.36,1.03,2.87h0s12.63,5.35,12.63,5.35l1.19-3.37-11.99-5.94h0Z"/></g><ellipse class="cls-1" cx="448.32" cy="448.99" rx="12.54" ry="1.01"/><ellipse class="cls-1" cx="475.7" cy="448.99" rx="12.54" ry="1.01"/><ellipse class="cls-1" cx="512.61" cy="448.99" rx="13.98" ry="1.01"/></g></g></svg>