<svg width="300" height="116" viewBox="0 0 300 116" fill="none" xmlns="http://www.w3.org/2000/svg">
<path d="M171.758 26.502C169.429 26.5107 167.198 27.4443 165.557 29.0974C163.916 30.7506 162.999 32.9878 163.008 35.317V105.817C162.903 108.144 163.727 110.417 165.297 112.137C166.867 113.858 169.056 114.884 171.383 114.992C172.535 115.037 173.685 114.854 174.767 114.454C175.848 114.054 176.84 113.445 177.686 112.662C178.532 111.878 179.216 110.935 179.697 109.888C180.178 108.84 180.448 107.707 180.492 106.555C180.503 106.309 180.503 106.062 180.492 105.817V35.317C180.498 34.1658 180.278 33.0247 179.843 31.9586C179.409 30.8926 178.769 29.9227 177.959 29.1041C177.15 28.2856 176.187 27.6345 175.126 27.188C174.065 26.7415 172.926 26.5084 171.775 26.502H171.758Z" fill="white"/>
<path d="M256.001 44.618C250.783 44.618 245.682 46.1654 241.343 49.0645C237.004 51.9636 233.622 56.0843 231.625 60.9053C229.628 65.7263 229.106 71.0313 230.124 76.1493C231.142 81.2673 233.655 85.9685 237.345 89.6583C241.035 93.3482 245.736 95.861 250.854 96.8791C255.972 97.8971 261.277 97.3746 266.098 95.3777C270.919 93.3807 275.039 89.999 277.938 85.6602C280.838 81.3214 282.385 76.2203 282.385 71.002C282.385 64.0045 279.605 57.2937 274.657 52.3457C269.709 47.3978 262.998 44.618 256.001 44.618ZM256.001 115.002C247.299 115.002 238.792 112.421 231.556 107.587C224.32 102.752 218.681 95.88 215.35 87.8401C212.02 79.8001 211.149 70.9532 212.846 62.418C214.544 53.8829 218.735 46.0428 224.888 39.8893C231.042 33.7358 238.882 29.5452 247.417 27.8475C255.952 26.1497 264.799 27.0211 272.839 30.3513C280.879 33.6816 287.751 39.3212 292.586 46.5569C297.42 53.7927 300.001 62.2996 300.001 71.002V71.018C299.988 82.6821 295.348 93.8645 287.098 102.111C278.849 110.357 267.665 114.993 256.001 115.002" fill="white"/>
<path d="M196.25 0.0019989C193.916 0.0152236 191.684 0.954657 190.043 2.61371C188.402 4.27277 187.487 6.5156 187.5 8.849V106.154C187.487 108.488 188.402 110.731 190.043 112.39C191.684 114.049 193.916 114.989 196.25 115.002C198.583 114.989 200.816 114.049 202.457 112.39C204.098 110.731 205.012 108.488 205 106.155V8.849C205.012 6.5156 204.098 4.27277 202.457 2.61371C200.816 0.954657 198.583 0.0152236 196.25 0.0019989" fill="white"/>
<path d="M96.2299 97.3079H91.8519C88.3833 97.2932 84.9515 96.5955 81.7525 95.2544C78.5535 93.9134 75.6501 91.9554 73.2078 89.4922C70.7656 87.029 68.8325 84.1088 67.5189 80.8985C66.2053 77.6882 65.5369 74.2506 65.5519 70.7819V44.2549H96.2299C98.566 44.2443 100.802 43.3064 102.447 41.6473C104.091 39.9883 105.01 37.744 105 35.4079C105.009 33.0721 104.091 30.8282 102.446 29.1695C100.802 27.5108 98.5657 26.5732 96.2299 26.5629H65.5409V8.85291C65.5461 7.69614 65.3233 6.54968 64.8853 5.47902C64.4473 4.40835 63.8028 3.43444 62.9884 2.61291C62.174 1.79137 61.2057 1.1383 60.1389 0.690987C59.0722 0.243674 57.9277 0.0108844 56.7709 0.00590515C55.6142 0.0108844 54.4697 0.243674 53.4029 0.690987C52.3361 1.1383 51.3679 1.79137 50.5535 2.61291C49.7391 3.43444 49.0945 4.40835 48.6565 5.47902C48.2186 6.54968 47.9958 7.69614 48.0009 8.85291V70.7819C47.9669 82.4564 52.5641 93.668 60.7846 101.958C69.005 110.248 80.1775 114.939 91.8519 115.003H96.2299C98.5601 114.978 100.786 114.035 102.426 112.379C104.065 110.722 104.984 108.486 104.984 106.155C104.984 103.825 104.065 101.589 102.426 99.9323C100.786 98.2757 98.5601 97.3327 96.2299 97.3079" fill="white"/>
<path d="M158 35.842C158.008 33.5061 157.089 31.2626 155.443 29.6048C153.798 27.947 151.561 27.0107 149.225 27.002C148.551 27.0113 147.88 27.0948 147.225 27.251C146.868 27.3026 146.516 27.3859 146.173 27.5C145.817 27.562 145.415 27.687 145.043 27.781C141.456 28.6068 137.987 29.8837 134.721 31.581C134.381 31.752 134.04 31.908 133.715 32.095C132.836 32.583 131.985 33.129 131.149 33.659C130.685 33.959 130.22 34.251 129.787 34.559C129.044 35.0783 128.317 35.624 127.605 36.196C127.079 36.617 126.553 37.053 126.057 37.506C125.561 37.959 124.897 38.554 124.325 39.072C123.753 39.59 123.041 40.397 122.425 41.083C122.054 41.488 121.667 41.894 121.311 42.315C120.367 43.438 119.5 44.638 118.665 45.854C118.479 46.135 118.294 46.415 118.123 46.696C117.462 47.7039 116.853 48.7445 116.297 49.814C116.297 49.97 116.111 50.114 116.034 50.266C112.705 56.6077 110.978 63.6676 111.004 70.83V106.172C111.001 107.329 111.225 108.474 111.664 109.544C112.104 110.614 112.75 111.587 113.565 112.407C114.381 113.227 115.35 113.878 116.417 114.324C117.484 114.77 118.628 115.001 119.785 115.004C122.118 114.993 124.35 114.056 125.993 112.4C127.637 110.745 128.556 108.505 128.549 106.172V70.827C128.548 65.8154 129.97 60.9065 132.651 56.672C133.007 56.08 133.409 55.534 133.812 54.972L134.276 54.348C134.601 53.943 134.941 53.537 135.297 53.148L136.117 52.248C136.334 52.014 136.581 51.811 136.817 51.593C140.529 47.9789 145.239 45.5605 150.339 44.65C152.473 44.3742 154.431 43.3252 155.843 41.7018C157.255 40.0784 158.023 37.9934 158 35.842" fill="white"/>
<path opacity="0.33" d="M15 0.0019989C17.9667 0.0019989 20.8668 0.881734 23.3336 2.52995C25.8003 4.17818 27.7229 6.52086 28.8582 9.26175C29.9935 12.0026 30.2906 15.0186 29.7118 17.9284C29.133 20.8381 27.7044 23.5108 25.6066 25.6086C23.5088 27.7064 20.8361 29.135 17.9264 29.7138C15.0166 30.2926 12.0006 29.9955 9.25975 28.8602C6.51886 27.7249 4.17618 25.8023 2.52796 23.3356C0.879735 20.8688 0 17.9687 0 15.002C0 11.0238 1.58035 7.20844 4.3934 4.3954C7.20644 1.58235 11.0218 0.0019989 15 0.0019989" fill="white"/>
<path opacity="0.66" d="M15 43.002C17.9667 43.002 20.8668 43.8817 23.3336 45.53C25.8003 47.1782 27.7229 49.5209 28.8582 52.2617C29.9935 55.0026 30.2906 58.0186 29.7118 60.9284C29.133 63.8381 27.7044 66.5108 25.6066 68.6086C23.5088 70.7064 20.8361 72.135 17.9264 72.7138C15.0166 73.2926 12.0006 72.9955 9.25975 71.8602C6.51886 70.7249 4.17618 68.8023 2.52796 66.3356C0.879735 63.8688 0 60.9687 0 58.002C0 54.0238 1.58035 50.2084 4.3934 47.3954C7.20644 44.5824 11.0218 43.002 15 43.002" fill="white"/>
<path d="M15 85.002C17.9667 85.002 20.8668 85.8817 23.3336 87.53C25.8003 89.1782 27.7229 91.5209 28.8582 94.2617C29.9935 97.0026 30.2906 100.019 29.7118 102.928C29.133 105.838 27.7044 108.511 25.6066 110.609C23.5088 112.706 20.8361 114.135 17.9264 114.714C15.0166 115.293 12.0006 114.996 9.25975 113.86C6.51886 112.725 4.17618 110.802 2.52796 108.336C0.879735 105.869 0 102.969 0 100.002C0 96.0238 1.58035 92.2084 4.3934 89.3954C7.20644 86.5824 11.0218 85.002 15 85.002" fill="white"/>
</svg>
