<svg xmlns="http://www.w3.org/2000/svg" viewBox="0 0 192.76 73.7"><defs><style>.cls-1,.cls-2,.cls-3{fill:#25baa2;}.cls-2{opacity:0.33;}.cls-3{opacity:0.66;}</style></defs><g id="Layer_2" data-name="Layer 2"><g id="Layer_1-2" data-name="Layer 1"><path class="cls-1" d="M109.84,17a5.67,5.67,0,0,0-5.67,5.67V68a5.67,5.67,0,0,0,11.34,0V22.68A5.67,5.67,0,0,0,109.84,17Z"/><path class="cls-1" d="M164.41,73.7a28.35,28.35,0,1,1,28.35-28.35A28.38,28.38,0,0,1,164.41,73.7Zm0-45.35a17,17,0,1,0,17,17A17,17,0,0,0,164.41,28.35Z"/><path class="cls-1" d="M126.85,0a5.67,5.67,0,0,0-5.67,5.67V68a5.67,5.67,0,0,0,11.34,0V5.67A5.67,5.67,0,0,0,126.85,0Z"/><path class="cls-1" d="M62.36,62.36H59.53a17,17,0,0,1-17-17v-17H62.36a5.67,5.67,0,1,0,0-11.34H42.52V5.67a5.67,5.67,0,0,0-11.34,0V45.35A28.38,28.38,0,0,0,59.53,73.7h2.83a5.67,5.67,0,0,0,0-11.34Z"/><path class="cls-1" d="M101.28,22.93a5.67,5.67,0,0,0-5.67-5.67,6,6,0,0,0-1.28.16v0c-.23,0-.45.12-.67.16s-.49.12-.73.18a26.24,26.24,0,0,0-3.44,1,25.27,25.27,0,0,0-3.23,1.42c-.22.11-.44.21-.66.33-.57.31-1.11.66-1.66,1l-.88.58c-.48.33-.94.68-1.4,1s-.68.56-1,.85-.76.67-1.12,1-.83.85-1.23,1.29c-.24.26-.49.52-.72.79a26.94,26.94,0,0,0-1.71,2.27c-.13.18-.24.36-.36.54-.41.64-.8,1.29-1.17,2l-.17.28h0a28,28,0,0,0-3.31,13.2V68A5.67,5.67,0,1,0,82.2,68V45.35a16.85,16.85,0,0,1,2.65-9.07c.23-.38.49-.74.75-1.09l.3-.4c.21-.26.43-.52.66-.77s.34-.39.53-.58.3-.28.44-.43a16.92,16.92,0,0,1,8.75-4.44v0A5.64,5.64,0,0,0,101.28,22.93Z"/><circle class="cls-2" cx="9.92" cy="9.92" r="9.92"/><circle class="cls-3" cx="9.92" cy="36.85" r="9.92"/><circle class="cls-1" cx="9.92" cy="63.78" r="9.92"/></g></g></svg>